<svg xmlns="http://www.w3.org/2000/svg" width="1143" height="917" viewBox="0 0 1143 917">
<g>
<path d="M 720.00 508.71 C720.00,530.83 719.62,547.00 719.10,547.00 C718.30,547.00 682.45,509.76 586.95,409.76 L 559.50 381.02 L 484.50 381.09 L 489.50 385.62 C502.52,397.42 527.53,411.14 548.37,417.92 C561.30,422.12 578.55,426.00 584.32,426.00 C587.60,426.00 589.52,427.78 615.00,454.41 C629.95,470.04 642.26,483.17 642.34,483.59 C642.90,486.31 611.19,488.48 591.29,487.08 C557.25,484.69 528.87,477.16 498.50,462.46 C462.57,445.07 428.74,416.22 405.92,383.50 C376.03,340.65 360.30,287.41 362.33,236.00 C362.65,228.02 363.13,220.15 363.41,218.50 C363.69,216.85 364.44,211.68 365.07,207.00 C365.71,202.32 367.08,194.90 368.10,190.50 L 369.97 182.50 L 360.18 172.50 C351.66,163.79 310.06,120.40 298.56,108.21 L 294.51 103.93 L 462.01 104.28 C618.73,104.61 634.05,104.32 648.00,108.57 C650.62,109.37 653.20,110.33 656.66,111.49 C677.06,118.31 694.09,128.97 710.06,144.94 C730.42,165.28 742.93,188.85 748.66,217.63 C751.12,230.02 751.13,256.31 748.67,268.00 C742.92,295.30 731.02,318.28 712.53,337.81 C693.45,357.97 666.81,373.00 641.24,378.03 L 635.02 379.26 L 640.00 384.88 C642.73,387.97 650.49,396.28 657.24,403.35 L 669.50 416.19 L 678.00 412.46 C697.62,403.86 716.69,391.08 732.37,376.02 C789.63,321.01 804.95,236.04 770.51,164.50 C752.59,127.28 722.82,97.47 685.50,79.37 C659.69,66.85 634.06,60.99 605.29,61.01 C571.17,61.03 534.77,71.60 507.50,89.39 L 500.50 93.96 L 457.75 93.98 C434.24,93.99 415.00,93.63 415.00,93.18 C415.00,90.75 435.31,69.44 447.50,59.06 C486.03,26.28 533.76,6.25 583.80,1.87 C599.27,0.52 628.55,1.34 643.00,3.53 C666.72,7.13 689.31,14.21 711.50,25.02 C761.06,49.15 799.15,87.10 823.91,137.02 C835.29,159.96 842.43,182.88 846.63,210.00 C849.12,226.13 849.16,262.02 846.69,278.00 C840.83,315.90 828.29,348.59 807.74,379.50 C786.92,410.83 754.71,440.22 721.75,458.00 C717.49,460.29 714.02,462.47 714.04,462.84 C714.06,463.20 715.41,465.06 717.04,466.96 L 720.00 470.42 ZM 442.31 326.24 C442.96,326.67 484.23,326.89 534.00,326.73 C624.22,326.44 624.53,326.44 632.50,324.21 C670.93,313.46 696.05,281.25 695.98,242.80 C695.96,227.41 692.70,214.36 685.80,202.00 C673.43,179.83 651.52,164.21 626.95,160.03 C622.49,159.28 589.98,159.02 521.61,159.22 L 422.71 159.50 L 448.79 187.64 C463.14,203.12 474.60,216.06 474.27,216.39 C473.94,216.73 462.54,217.00 448.95,217.00 L 424.23 217.00 L 423.64 221.25 C421.25,238.73 422.18,262.27 426.03,281.13 C429.29,297.13 439.01,324.07 442.31,326.24 Z" fill="rgb(203,170,132)"/>
<path d="M 298.67 0.00 L 1143.00 0.00 L 878.25 0.14 C723.64,0.22 621.82,0.61 621.82,1.12 C621.82,1.13 621.88,1.14 622.00,1.16 C625.81,1.55 629.46,1.96 632.99,2.40 C618.60,1.18 599.02,0.83 586.37,1.67 C592.18,1.14 596.72,0.61 596.92,0.41 L 596.92 0.41 C596.92,0.18 462.79,0.00 298.67,0.00 ZM 453.71 434.02 C465.12,443.13 477.27,451.23 489.77,457.99 C484.63,455.29 479.97,452.66 476.50,450.47 C468.81,445.60 461.15,440.05 453.71,434.02 ZM 503.12 464.65 C517.12,471.13 530.78,476.09 544.85,479.74 C536.19,477.56 527.79,474.95 519.88,471.94 C515.16,470.15 509.23,467.54 503.12,464.65 ZM 669.01 8.99 C683.61,12.77 696.79,17.85 711.50,25.02 C697.55,18.22 683.45,12.90 669.01,8.99 ZM 564.58 4.34 C547.85,7.18 531.48,11.77 515.75,18.01 C531.51,11.75 547.88,7.15 564.58,4.34 ZM 604.45 487.52 C608.27,487.53 612.17,487.46 615.94,487.33 C612.17,487.49 608.34,487.56 604.45,487.52 ZM 637.74 485.42 C638.73,485.24 639.58,485.05 640.28,484.85 C639.65,485.05 638.82,485.24 637.74,485.42 Z" fill="rgb(211,191,166)"/>
<path d="M 447.72 326.48 C447.90,326.35 448.00,326.19 448.00,326.00 C448.00,325.45 447.35,325.00 446.56,325.00 C444.50,325.00 442.00,321.04 442.00,317.78 C442.00,316.25 441.60,315.00 441.12,315.00 C440.63,315.00 439.75,313.06 439.15,310.68 C438.55,308.31 437.15,305.54 436.03,304.53 C434.75,303.37 434.00,301.44 434.00,299.31 C434.00,297.46 433.13,293.36 432.07,290.22 C431.01,287.07 429.97,282.62 429.76,280.33 C429.55,278.03 428.88,275.55 428.27,274.83 C427.67,274.10 426.85,270.23 426.45,266.23 C426.06,262.23 425.44,258.77 425.07,258.54 C424.70,258.31 424.64,255.96 424.95,253.31 C425.25,250.67 425.25,244.45 424.95,239.50 C424.64,234.55 424.75,230.07 425.20,229.55 C425.64,229.03 426.00,227.15 426.00,225.38 C426.00,225.08 426.00,224.79 425.99,224.51 C425.98,222.95 425.97,221.83 426.47,221.03 C427.74,218.99 432.29,218.99 448.38,219.00 C449.50,219.00 450.67,219.00 451.91,219.00 C476.46,219.00 479.03,218.67 478.99,215.55 C478.97,214.14 469.59,203.74 446.75,179.82 C439.97,172.73 434.57,166.23 434.49,165.06 L 434.33 162.98 L 520.92 163.35 C609.46,163.72 612.67,163.61 615.24,164.84 C615.58,165.00 615.91,165.19 616.41,165.40 C619.36,166.63 620.39,166.63 623.93,165.41 C628.24,163.93 635.10,164.70 637.32,166.92 C637.91,167.51 639.41,168.00 640.65,168.00 C641.89,168.00 643.26,168.61 643.70,169.35 C644.78,171.17 648.40,173.00 650.93,173.00 C652.07,173.00 653.00,173.45 653.00,174.00 C653.00,174.55 653.95,175.00 655.10,175.00 C657.35,175.00 677.00,194.13 677.00,196.32 C677.00,196.98 677.86,198.05 678.91,198.71 C679.95,199.36 681.37,201.60 682.06,203.67 C682.74,205.75 683.91,208.05 684.65,208.79 C685.39,209.54 686.00,211.46 686.00,213.07 C686.00,214.68 686.43,216.00 686.96,216.00 C688.22,216.00 689.76,218.93 690.45,222.60 C692.11,231.54 692.70,250.44 691.50,256.43 C691.06,258.59 690.63,261.07 690.54,261.93 C690.23,264.68 688.09,269.00 687.02,269.00 C686.46,269.00 686.00,269.62 686.00,270.38 C686.00,271.14 685.32,272.32 684.49,273.01 C683.34,273.96 683.25,274.59 684.11,275.63 C684.94,276.64 684.95,277.00 684.12,277.00 C683.51,277.00 683.00,277.90 683.00,279.00 C683.00,280.10 682.55,281.00 682.00,281.00 C681.45,281.00 681.05,281.34 681.12,281.75 C681.54,284.42 680.96,284.99 679.05,283.80 C676.63,282.29 675.19,283.50 676.66,285.80 C677.49,287.10 677.34,288.09 676.01,290.00 C675.05,291.38 673.98,293.40 673.63,294.50 C672.85,296.99 665.36,301.50 662.00,301.50 C659.85,301.50 659.54,301.90 659.80,304.33 C660.03,306.48 659.61,307.29 658.06,307.69 C656.94,307.99 656.26,308.61 656.55,309.08 C656.84,309.56 655.83,310.24 654.29,310.61 C652.76,310.98 650.69,312.12 649.71,313.14 C648.73,314.16 647.38,315.07 646.71,315.15 C644.49,315.43 643.51,315.69 641.78,316.44 C639.39,317.48 630.00,317.68 630.00,316.69 C630.00,316.25 629.59,316.13 629.09,316.44 C628.60,316.75 628.40,317.82 628.66,318.81 C629.28,321.18 625.32,323.00 619.51,323.00 C617.10,323.00 614.84,323.45 614.50,324.00 C614.16,324.55 612.78,325.00 611.44,325.00 C610.10,325.00 609.00,325.50 609.00,326.10 C609.00,326.18 609.03,326.24 609.09,326.30 C595.89,326.53 573.61,326.61 534.00,326.73 C494.60,326.86 460.54,326.74 447.72,326.48 ZM 853.97 770.46 C854.79,771.45 856.94,772.00 860.01,772.00 C866.44,772.00 869.09,769.75 870.11,763.41 C872.17,750.58 874.30,741.67 877.17,733.88 C878.93,729.09 880.21,728.93 914.89,729.23 C942.49,729.46 947.40,729.72 948.05,731.00 C951.76,738.21 953.96,744.73 954.97,751.50 C956.56,762.10 958.78,768.73 961.35,770.53 C963.88,772.30 971.13,772.47 972.80,770.80 C974.45,769.15 974.23,762.32 972.37,757.50 C971.52,755.30 970.44,751.70 969.97,749.50 C967.52,738.09 966.14,733.36 959.19,712.50 C958.64,710.85 957.65,707.92 956.98,706.00 C956.32,704.08 955.34,700.70 954.80,698.50 C954.26,696.30 952.74,692.25 951.43,689.50 C950.12,686.75 948.54,682.47 947.93,680.00 C947.32,677.53 943.96,670.10 940.47,663.50 C936.97,656.90 933.63,649.30 933.02,646.61 C932.42,643.93 931.05,640.60 929.97,639.23 C928.88,637.85 928.00,636.31 928.00,635.79 C928.00,635.28 926.13,632.64 923.84,629.93 C919.78,625.11 919.56,625.00 914.13,625.00 C908.80,625.00 908.41,625.19 904.29,629.67 C901.93,632.24 900.00,634.52 900.00,634.74 C900.00,634.96 897.97,639.32 895.50,644.45 C893.03,649.57 891.00,654.52 891.00,655.45 C891.00,656.37 888.78,661.26 886.06,666.31 C883.35,671.37 880.58,677.75 879.90,680.50 C879.23,683.25 877.40,687.79 875.84,690.58 C874.28,693.38 873.00,696.89 873.00,698.38 C873.00,699.88 872.25,702.54 871.33,704.30 C870.41,706.06 869.33,709.08 868.93,711.00 C868.53,712.92 867.75,715.85 867.20,717.50 C866.66,719.15 865.23,723.65 864.03,727.50 C862.83,731.35 861.24,736.08 860.50,738.00 C858.70,742.64 856.56,750.66 854.43,760.71 C853.01,767.41 852.93,769.21 853.97,770.46 ZM 255.20 770.80 C256.72,772.32 264.12,772.36 267.40,770.86 C270.08,769.64 270.50,768.35 271.56,758.00 C271.93,754.42 272.86,750.28 273.62,748.80 C274.38,747.31 275.00,745.29 275.00,744.30 C275.01,742.56 278.71,732.79 280.32,730.25 C280.93,729.29 288.88,729.00 314.49,729.00 L 347.85 729.00 L 349.93 731.63 C351.07,733.08 352.00,735.19 352.00,736.31 C352.00,738.55 353.49,743.71 355.57,748.68 C356.31,750.44 357.22,755.36 357.61,759.64 C358.53,769.76 360.47,772.00 368.33,772.00 C375.48,772.00 376.54,770.74 375.09,763.99 C374.49,761.19 373.32,757.59 372.50,756.00 C371.67,754.40 371.00,751.97 371.00,750.58 C371.00,749.20 370.36,746.59 369.58,744.78 C368.80,742.98 367.42,738.80 366.50,735.50 C365.59,732.20 364.16,727.25 363.33,724.50 C362.50,721.75 361.41,718.12 360.91,716.43 C360.41,714.74 359.99,712.49 359.97,711.43 C359.95,710.37 358.83,707.70 357.47,705.50 C356.12,703.30 355.01,700.25 355.01,698.72 C355.00,697.19 353.94,693.81 352.64,691.22 C351.34,688.62 349.97,684.86 349.61,682.85 C349.25,680.85 346.32,674.10 343.10,667.85 C339.89,661.61 336.94,654.92 336.55,653.00 C335.06,645.73 327.99,633.49 321.37,626.75 C319.33,624.68 310.40,624.37 307.93,626.28 C306.19,627.63 299.95,637.54 297.40,643.00 C296.50,644.92 292.44,653.47 288.38,662.00 C284.32,670.53 280.14,679.97 279.11,683.00 C278.07,686.03 276.77,689.85 276.21,691.50 C275.64,693.15 274.41,696.75 273.47,699.50 C272.53,702.25 271.57,705.62 271.33,707.00 C271.09,708.38 269.83,711.75 268.54,714.50 C266.24,719.38 265.37,722.22 262.38,734.50 C261.57,737.80 260.43,741.85 259.85,743.50 C259.26,745.15 258.44,748.30 258.02,750.50 C257.60,752.70 256.53,756.17 255.63,758.22 C253.72,762.58 253.49,769.09 255.20,770.80 ZM 143.20 770.80 C144.09,771.69 154.59,772.00 184.25,772.00 L 224.09 772.00 L 226.60 769.49 C228.56,767.53 229.05,766.15 228.81,763.24 L 228.50 759.50 L 193.50 759.00 C174.25,758.72 157.94,758.14 157.25,757.69 C155.49,756.55 155.45,706.95 157.20,705.20 C158.08,704.32 166.09,704.00 187.00,704.00 C207.91,704.00 215.92,703.68 216.80,702.80 C218.36,701.24 218.36,692.76 216.80,691.20 C215.92,690.32 207.86,690.00 186.78,690.00 L 157.95 690.00 L 156.98 687.43 C155.65,683.96 155.70,643.42 157.04,640.93 C158.03,639.08 159.48,639.00 192.34,639.00 C217.65,639.00 226.91,638.69 227.80,637.80 C228.46,637.14 229.00,634.53 229.00,632.00 C229.00,629.47 228.46,626.86 227.80,626.20 C226.08,624.48 144.92,624.48 143.20,626.20 C141.46,627.94 141.46,769.06 143.20,770.80 ZM 601.21 770.81 C602.13,771.73 613.93,771.96 650.46,771.76 L 698.50 771.50 L 698.80 767.47 C699.03,764.29 698.59,762.97 696.75,761.23 C694.42,759.05 693.99,759.02 657.45,758.76 C620.74,758.50 620.50,758.49 620.20,756.39 C620.02,755.15 621.34,752.49 623.40,749.89 C625.33,747.48 628.01,743.40 629.37,740.83 C630.73,738.27 632.76,735.24 633.88,734.12 C635.01,732.99 637.09,729.92 638.50,727.28 C639.92,724.65 642.19,720.92 643.55,719.00 C644.92,717.08 646.59,714.67 647.27,713.66 C647.94,712.65 649.52,710.71 650.76,709.34 C652.01,707.98 653.72,705.21 654.57,703.18 C655.41,701.16 657.14,698.38 658.40,697.00 C659.67,695.62 662.20,691.80 664.02,688.50 C665.85,685.20 668.55,680.92 670.04,679.00 C671.52,677.08 673.71,673.57 674.91,671.21 C676.10,668.85 677.95,666.05 679.00,665.00 C680.05,663.95 681.80,661.35 682.89,659.22 C683.97,657.10 685.59,654.75 686.50,654.00 C687.41,653.25 689.08,650.80 690.22,648.57 C691.36,646.33 693.35,643.11 694.64,641.41 C696.45,639.03 697.00,637.04 697.00,632.86 C697.00,629.86 696.46,626.86 695.80,626.20 C694.07,624.47 600.93,624.47 599.20,626.20 C597.26,628.14 597.71,635.43 599.89,637.40 C601.62,638.96 605.07,639.08 639.89,638.81 C660.85,638.64 678.00,638.67 678.00,638.88 C678.00,639.31 674.00,645.93 672.80,647.50 C672.38,648.05 670.97,649.85 669.68,651.50 C668.39,653.15 666.27,656.64 664.99,659.25 C663.70,661.86 662.31,664.00 661.90,664.00 C661.48,664.00 659.44,666.81 657.36,670.25 C655.28,673.69 652.54,678.08 651.27,680.00 C650.00,681.92 648.41,684.35 647.73,685.38 C647.05,686.42 645.76,688.00 644.85,688.88 C643.95,689.77 641.98,692.75 640.48,695.50 C638.98,698.25 636.97,701.40 636.01,702.50 C635.05,703.60 632.63,707.48 630.62,711.12 C628.62,714.75 625.81,718.99 624.38,720.53 C622.95,722.07 620.96,725.26 619.96,727.60 C618.95,729.95 617.22,732.78 616.10,733.90 C614.99,735.01 613.21,737.62 612.15,739.71 C611.08,741.79 609.22,744.40 608.00,745.50 C602.34,750.62 597.83,767.43 601.21,770.81 ZM 730.67 771.33 C731.03,771.70 752.80,772.00 779.04,772.00 C819.08,772.00 826.95,771.77 827.94,770.58 C828.60,769.78 828.98,767.03 828.81,764.33 L 828.50 759.50 L 790.59 759.24 C766.94,759.07 752.22,758.60 751.46,757.97 C750.53,757.20 751.07,755.37 753.74,750.25 C755.66,746.57 757.79,743.09 758.48,742.53 C759.75,741.48 766.38,731.29 771.30,722.80 C772.80,720.21 774.84,717.51 775.84,716.80 C776.83,716.08 778.70,713.36 780.00,710.75 C781.29,708.14 782.63,706.00 782.96,706.00 C783.30,706.00 784.40,704.54 785.42,702.75 C788.73,696.95 800.02,680.10 801.02,679.49 C801.56,679.16 803.19,676.44 804.66,673.44 C806.13,670.45 807.64,668.00 808.03,668.00 C808.79,668.00 817.11,655.04 823.91,643.24 C827.67,636.72 828.07,635.41 827.80,630.38 L 827.50 624.77 L 779.54 624.94 C747.18,625.05 731.16,625.45 730.29,626.17 C729.58,626.76 729.00,628.96 729.00,631.05 C729.00,633.97 729.61,635.34 731.63,636.93 C734.19,638.94 735.36,639.00 770.63,639.00 C801.19,639.00 807.00,639.22 807.00,640.40 C807.00,642.18 800.33,654.16 798.59,655.50 C797.88,656.06 796.35,658.35 795.20,660.61 C794.05,662.86 792.18,665.79 791.04,667.10 C789.90,668.42 786.66,673.10 783.85,677.50 C775.70,690.26 773.78,693.00 772.99,693.00 C772.58,693.00 771.30,695.20 770.14,697.90 C768.98,700.59 767.13,703.85 766.04,705.15 C762.07,709.81 755.08,719.92 753.02,723.96 C751.86,726.23 750.05,728.95 749.00,730.00 C747.95,731.05 746.19,733.67 745.10,735.81 C744.00,737.96 742.18,740.79 741.04,742.10 C739.90,743.42 736.95,747.60 734.48,751.40 C730.40,757.68 730.00,758.85 730.00,764.48 C730.00,767.88 730.30,770.97 730.67,771.33 ZM 69.05 693.48 C66.12,694.99 61.97,695.34 41.46,695.77 C19.26,696.24 17.27,696.15 16.66,694.56 C16.30,693.61 16.00,681.48 16.00,667.61 C16.00,648.57 16.32,641.95 17.29,640.62 C18.48,639.00 20.30,638.89 39.04,639.34 C73.04,640.15 77.05,641.53 82.89,654.42 C86.49,662.36 86.80,667.26 84.25,675.71 C82.32,682.10 75.37,690.22 69.05,693.48 ZM 1028.20 770.80 C1029.84,772.44 1038.48,772.34 1039.87,770.66 C1040.66,769.71 1041.06,750.22 1041.24,703.99 L 1041.50 638.67 L 1059.50 638.51 C1077.21,638.36 1083.28,637.72 1085.75,635.75 C1087.34,634.48 1087.38,627.78 1085.80,626.20 C1084.90,625.30 1072.02,625.00 1034.00,625.00 C995.98,625.00 983.10,625.30 982.20,626.20 C980.43,627.97 980.72,635.03 982.65,637.17 C984.15,638.83 986.20,639.00 1004.10,639.00 C1023.41,639.00 1023.92,639.05 1025.44,641.22 C1026.81,643.18 1027.00,651.05 1027.00,706.52 C1027.00,754.25 1027.29,769.89 1028.20,770.80 ZM 408.20 770.80 C409.09,771.69 419.65,772.00 449.55,772.00 C487.70,772.00 489.78,771.91 491.41,770.10 C492.61,768.77 493.03,766.90 492.81,763.85 L 492.50 759.50 L 458.21 759.00 C429.20,758.58 423.78,758.27 422.98,757.00 C422.41,756.10 422.02,730.02 422.02,691.45 C422.00,642.98 421.71,627.11 420.80,626.20 C420.14,625.54 417.30,625.00 414.50,625.00 C411.70,625.00 408.86,625.54 408.20,626.20 C406.46,627.94 406.46,769.06 408.20,770.80 ZM 344.64 714.49 C343.80,716.68 285.23,716.77 284.40,714.59 C284.10,713.82 284.56,711.10 285.43,708.56 C286.29,706.01 287.00,703.26 287.00,702.44 C287.00,701.62 288.35,698.27 290.00,695.00 C291.65,691.73 293.00,688.31 293.00,687.39 C293.00,686.47 297.08,677.42 302.06,667.27 C307.04,657.13 311.53,647.74 312.03,646.41 C312.90,644.12 316.00,642.96 316.00,644.92 C316.00,645.43 317.06,647.12 318.35,648.67 C319.64,650.23 321.02,652.85 321.42,654.50 C321.82,656.15 325.48,664.35 329.57,672.71 C333.66,681.08 337.00,688.86 337.00,690.00 C337.00,691.14 337.84,693.75 338.86,695.79 C339.88,697.83 341.00,701.00 341.35,702.83 C341.70,704.66 342.71,707.70 343.60,709.57 C344.49,711.45 344.96,713.66 344.64,714.49 ZM 943.89 714.63 C942.98,715.73 937.09,716.00 914.00,716.00 C881.93,716.00 881.45,715.90 884.47,710.06 C885.35,708.36 886.47,705.07 886.96,702.74 C888.53,695.35 892.39,686.02 901.76,667.00 C906.77,656.83 911.17,647.26 911.54,645.75 C911.96,644.03 912.89,643.00 914.00,643.00 C915.12,643.00 916.03,644.03 916.45,645.75 C916.81,647.26 921.14,656.67 926.06,666.66 C930.98,676.65 935.00,685.77 935.00,686.94 C935.00,688.10 936.35,691.73 938.00,695.00 C939.65,698.27 941.01,701.74 941.02,702.72 C941.03,703.70 941.94,706.47 943.03,708.88 C944.55,712.22 944.75,713.60 943.89,714.63 ZM 534.67 771.33 C535.83,772.50 547.54,772.06 548.80,770.80 C550.58,769.02 550.53,627.69 548.75,626.21 C547.70,625.34 539.93,624.60 535.25,624.91 C534.26,624.98 534.00,640.28 534.00,697.83 C534.00,737.89 534.30,770.97 534.67,771.33 ZM 447.79 908.02 C443.75,910.18 436.58,910.50 431.50,908.76 C429.85,908.19 427.96,907.59 427.31,907.42 C423.90,906.53 417.99,890.72 418.01,882.54 C418.03,877.74 420.71,867.27 423.06,862.89 C426.11,857.18 431.97,854.00 439.42,854.00 C449.59,854.00 454.03,857.87 458.54,870.65 C461.36,878.63 461.57,882.39 459.50,887.35 C458.67,889.32 458.00,892.32 458.00,894.02 C458.00,897.44 455.55,902.82 453.10,904.77 C452.22,905.47 449.83,906.93 447.79,908.02 ZM 604.25 434.06 C606.41,435.86 606.42,435.93 604.49,435.97 C603.38,435.99 601.36,434.59 599.99,432.88 C595.84,427.67 593.00,424.67 593.00,425.48 C593.00,425.90 592.36,425.71 591.57,425.06 C590.78,424.40 587.52,423.61 584.32,423.30 C581.12,422.99 577.99,422.33 577.37,421.84 C575.82,420.62 564.84,417.82 564.19,418.48 C563.90,418.77 562.55,418.28 561.20,417.40 C559.84,416.51 556.41,415.72 553.53,415.64 C548.52,415.51 538.66,411.53 535.18,408.25 C534.45,407.56 532.74,407.00 531.38,407.00 C528.14,407.00 523.41,404.52 522.60,402.39 C522.24,401.47 521.68,400.99 521.35,401.32 C520.30,402.37 514.64,399.41 510.61,395.69 C508.47,393.71 505.52,391.83 504.07,391.52 C502.62,391.20 500.59,389.82 499.57,388.47 C498.55,387.11 496.88,386.00 495.86,386.00 C494.84,386.00 494.00,385.55 494.00,385.00 C494.00,384.35 504.95,384.00 524.84,384.00 L 555.68 384.00 L 560.37 388.75 C562.95,391.36 567.89,396.48 571.35,400.12 C574.81,403.76 578.62,407.26 579.82,407.90 C581.02,408.55 582.00,409.97 582.00,411.07 C582.00,412.16 582.79,413.34 583.75,413.68 C585.55,414.30 602.00,430.41 602.00,431.55 C602.00,431.89 603.01,433.02 604.25,434.06 ZM 627.67 916.33 C628.63,917.29 666.78,917.16 667.38,916.19 C667.65,915.75 667.33,914.29 666.66,912.94 C665.48,910.56 665.09,910.49 651.14,910.00 C641.70,909.67 637.40,909.64 635.51,907.50 C633.92,905.70 634.01,902.43 634.18,896.27 C634.20,895.86 634.21,895.45 634.22,895.02 L 634.50 884.50 L 648.15 884.22 C658.70,884.01 662.08,883.61 663.02,882.47 C663.99,881.31 663.98,880.68 663.00,879.50 C662.01,878.31 659.12,878.00 649.00,878.00 C639.30,878.00 635.97,877.67 635.09,876.60 C634.33,875.69 634.03,871.76 634.21,865.35 L 634.50 855.50 L 650.39 855.00 C663.78,854.58 666.45,854.24 667.34,852.83 C668.10,851.63 668.02,850.73 667.07,849.58 C665.96,848.24 662.94,848.00 647.58,848.00 C634.77,848.00 629.05,848.35 628.20,849.20 C627.32,850.08 627.00,858.99 627.00,883.03 C627.00,900.98 627.30,915.97 627.67,916.33 ZM 543.44 917.00 C545.54,917.00 546.84,914.97 553.92,900.72 C558.36,891.77 562.00,883.42 562.00,882.17 C562.00,880.92 562.75,878.46 563.67,876.70 C564.59,874.94 565.73,871.70 566.21,869.50 C566.70,867.30 567.57,863.70 568.15,861.50 C569.89,854.95 569.73,849.89 567.77,848.64 C565.06,846.91 563.17,849.65 561.59,857.55 C560.82,861.37 559.23,867.20 558.04,870.50 C556.85,873.80 555.45,878.30 554.93,880.50 C554.41,882.70 552.23,888.33 550.10,893.00 C547.96,897.67 545.96,902.29 545.64,903.25 C544.67,906.19 541.25,905.40 540.52,902.07 C540.16,900.46 537.65,894.79 534.94,889.47 C532.22,884.16 530.00,878.71 530.00,877.36 C530.00,876.02 529.15,873.25 528.10,871.20 C527.06,869.15 525.75,863.76 525.20,859.21 C524.17,850.66 522.95,848.00 520.08,848.00 C515.91,848.00 514.63,854.78 517.50,861.65 C518.33,863.63 519.00,866.11 519.00,867.16 C519.00,868.22 519.90,870.84 521.00,873.00 C522.10,875.16 523.00,877.85 523.00,878.99 C523.00,880.13 524.29,883.63 525.88,886.78 C527.46,889.93 529.06,893.93 529.44,895.68 C529.82,897.43 530.75,899.37 531.50,900.00 C532.25,900.63 533.15,902.40 533.49,903.93 C533.82,905.47 534.93,907.62 535.94,908.71 C536.96,909.80 538.52,912.11 539.42,913.84 C540.56,916.05 541.77,917.00 543.44,917.00 ZM 733.71 916.38 C734.10,916.77 735.34,916.95 736.46,916.79 C738.46,916.51 738.51,915.86 738.76,883.38 C738.99,854.82 738.82,850.09 737.51,849.01 C736.31,848.01 735.70,848.01 734.50,849.00 C733.22,850.06 733.00,855.10 733.00,882.96 C733.00,900.95 733.32,915.99 733.71,916.38 ZM 434.67 844.33 C436.81,846.48 442.19,843.25 445.67,837.72 C448.52,833.21 448.14,831.00 444.52,831.00 C442.71,831.00 441.41,831.94 440.02,834.25 C438.95,836.04 437.16,838.55 436.04,839.83 C433.88,842.31 433.59,843.26 434.67,844.33 ZM 546.65 0.18 C553.80,0.20 560.29,0.21 566.05,0.23 C561.51,0.45 558.84,0.85 557.00,1.50 C551.51,3.44 548.00,3.44 548.00,1.50 C548.00,0.83 547.57,0.40 546.65,0.18 ZM 617.30 448.62 C618.61,450.89 617.80,450.27 611.00,443.79 C607.42,440.39 605.22,438.14 606.09,438.80 C606.97,439.45 607.95,439.72 608.26,439.40 C608.83,438.84 615.68,445.84 617.30,448.62 ZM 624.00 455.06 C624.00,456.52 621.39,456.17 620.03,454.53 C618.05,452.15 619.24,450.78 621.76,452.54 C622.99,453.41 624.00,454.54 624.00,455.06 ZM 631.00 462.06 C631.00,463.28 628.29,463.28 627.54,462.07 C627.23,461.56 627.42,460.86 627.98,460.51 C629.18,459.77 631.00,460.71 631.00,462.06 ZM 636.00 468.06 C636.00,468.58 635.58,469.00 635.06,469.00 C633.88,469.00 632.62,467.05 633.33,466.33 C634.05,465.62 636.00,466.88 636.00,468.06 ZM 796.95 93.91 C801.28,99.41 805.40,105.11 809.29,111.00 C814.94,119.58 820.33,129.32 825.15,139.55 C824.75,138.71 824.33,137.86 823.91,137.02 C816.20,121.47 807.19,107.08 796.95,93.91 ZM 696.33 18.16 C712.06,24.51 727.06,32.50 741.11,41.98 C731.75,35.73 721.88,30.07 711.50,25.02 C706.30,22.48 701.29,20.21 696.33,18.16 ZM 622.72 325.84 C626.21,325.34 629.86,324.66 633.00,323.87 C635.98,323.11 638.90,322.19 641.76,321.10 C638.77,322.28 635.68,323.32 632.50,324.21 C629.70,324.99 627.85,325.50 622.72,325.84 ZM 661.67 310.26 C673.85,301.33 683.68,289.20 689.59,275.24 C683.77,289.16 674.17,301.21 661.67,310.26 ZM 674.12 185.89 C662.32,173.13 646.64,164.00 629.49,160.51 C646.58,163.98 662.25,173.01 674.12,185.89 ZM 845.37 285.83 C843.00,299.09 839.65,311.90 835.31,324.30 C839.59,312.02 842.92,299.25 845.37,285.83 ZM 839.67 177.70 C840.69,181.20 841.60,184.66 842.40,188.06 C842.73,189.49 843.06,191.00 843.39,192.56 C842.28,187.49 841.05,182.54 839.67,177.70 ZM 847.53 217.83 C847.83,220.55 848.00,222.82 848.00,224.36 C848.00,224.42 848.00,224.48 848.00,224.54 C847.87,222.18 847.71,219.94 847.53,217.83 ZM 612.35 487.45 C613.55,487.42 614.75,487.38 615.94,487.33 L 615.94 487.33 C621.83,487.11 627.41,486.73 631.91,486.24 C626.54,486.85 619.57,487.28 612.35,487.45 ZM 604.45 487.52 C604.47,487.52 604.49,487.52 604.51,487.52 C605.47,487.53 606.42,487.53 607.37,487.53 C601.77,487.56 596.21,487.43 591.29,487.08 C595.32,487.37 599.83,487.50 604.45,487.52 ZM 442.31 326.24 C440.90,325.31 438.32,319.87 435.57,312.69 C438.33,319.88 440.91,325.32 442.31,326.21 C442.34,326.23 442.36,326.25 442.39,326.26 C442.35,326.26 442.32,326.25 442.31,326.24 ZM 622.00 1.16 C625.95,1.56 629.69,1.98 633.24,2.42 L 632.99 2.40 C629.46,1.96 625.81,1.55 622.00,1.16 Z" fill="rgb(254,254,254)"/>
<path d="M 288.38 909.82 C288.68,905.79 289.38,894.86 289.94,885.53 C290.54,875.67 291.60,866.69 292.48,864.10 C293.32,861.65 294.00,857.56 294.00,855.02 C294.00,847.39 297.53,845.89 303.39,851.04 C305.34,852.75 307.16,855.49 307.55,857.29 C307.94,859.06 309.73,863.46 311.55,867.07 C313.36,870.68 315.16,875.40 315.56,877.57 C316.92,884.99 323.00,892.77 323.00,887.08 C323.00,886.03 323.90,883.07 325.00,880.50 C326.10,877.93 327.00,875.11 327.00,874.22 C327.00,870.92 338.45,849.77 340.83,848.68 C344.10,847.17 346.32,848.86 347.32,853.61 C349.31,863.11 350.87,876.16 350.93,883.82 C350.97,888.39 351.40,892.89 351.90,893.82 C352.39,894.74 352.96,900.22 353.15,906.00 L 353.50 916.50 L 350.00 916.50 L 346.50 916.50 L 345.81 904.00 C344.56,881.02 342.08,866.19 339.36,865.29 C338.10,864.87 333.89,873.47 332.90,878.50 C330.99,888.16 330.25,890.69 328.54,893.29 C327.55,894.82 326.34,898.14 325.87,900.67 C324.84,906.16 323.52,908.00 320.58,908.00 C317.61,908.00 316.00,906.16 316.00,902.76 C316.00,901.20 315.10,898.16 314.00,896.00 C312.90,893.84 312.00,891.14 312.00,890.00 C312.00,888.86 311.10,886.16 310.00,884.00 C308.90,881.84 308.00,878.89 308.00,877.43 C308.00,874.27 303.08,864.81 301.67,865.28 C299.43,866.02 297.71,876.54 296.63,896.00 L 295.50 916.50 L 291.67 916.82 L 287.84 917.13 L 288.38 909.82 ZM 428.97 915.47 C428.16,914.63 425.26,912.49 422.52,910.72 C418.70,908.25 416.83,906.10 414.53,901.50 C411.60,895.64 411.53,895.16 411.58,881.00 C411.62,866.56 412.15,863.85 415.63,860.00 C416.38,859.17 418.17,857.02 419.62,855.21 C424.12,849.58 428.54,848.00 439.83,848.00 L 449.73 848.00 L 454.97 852.25 C461.23,857.33 465.05,864.18 466.27,872.50 C468.96,890.87 464.55,906.29 455.05,911.78 C452.55,913.22 450.14,914.99 449.70,915.70 C448.48,917.69 430.91,917.50 428.97,915.47 ZM 447.79 908.02 C449.83,906.93 452.22,905.47 453.10,904.77 C455.55,902.82 458.00,897.44 458.00,894.02 C458.00,892.32 458.67,889.32 459.50,887.35 C461.57,882.39 461.36,878.63 458.54,870.65 C454.03,857.87 449.59,854.00 439.42,854.00 C431.97,854.00 426.11,857.18 423.06,862.89 C420.71,867.27 418.03,877.74 418.01,882.54 C417.99,890.72 423.90,906.53 427.31,907.42 C427.96,907.59 429.85,908.19 431.50,908.76 C436.58,910.50 443.75,910.18 447.79,908.02 ZM 539.42 913.84 C538.52,912.11 536.96,909.80 535.94,908.71 C534.93,907.62 533.82,905.47 533.49,903.93 C533.15,902.40 532.25,900.63 531.50,900.00 C530.75,899.37 529.82,897.43 529.44,895.68 C529.06,893.93 527.46,889.93 525.88,886.78 C524.29,883.63 523.00,880.13 523.00,878.99 C523.00,877.85 522.10,875.16 521.00,873.00 C519.90,870.84 519.00,868.22 519.00,867.16 C519.00,866.11 518.33,863.63 517.50,861.65 C514.63,854.78 515.91,848.00 520.08,848.00 C522.95,848.00 524.17,850.66 525.20,859.21 C525.75,863.76 527.06,869.15 528.10,871.20 C529.15,873.25 530.00,876.02 530.00,877.36 C530.00,878.71 532.22,884.16 534.94,889.47 C537.65,894.79 540.16,900.46 540.52,902.07 C541.25,905.40 544.67,906.19 545.64,903.25 C545.96,902.29 547.96,897.67 550.10,893.00 C552.23,888.33 554.41,882.70 554.93,880.50 C555.45,878.30 556.85,873.80 558.04,870.50 C559.23,867.20 560.82,861.37 561.59,857.55 C563.17,849.65 565.06,846.91 567.77,848.64 C569.73,849.89 569.89,854.95 568.15,861.50 C567.57,863.70 566.70,867.30 566.21,869.50 C565.73,871.70 564.59,874.94 563.67,876.70 C562.75,878.46 562.00,880.92 562.00,882.17 C562.00,883.42 558.36,891.77 553.92,900.72 C546.84,914.97 545.54,917.00 543.44,917.00 C541.77,917.00 540.56,916.05 539.42,913.84 ZM 627.67 916.33 C627.30,915.97 627.00,900.98 627.00,883.03 C627.00,858.99 627.32,850.08 628.20,849.20 C629.05,848.35 634.77,848.00 647.58,848.00 C662.94,848.00 665.96,848.24 667.07,849.58 C668.02,850.73 668.10,851.63 667.34,852.83 C666.45,854.24 663.78,854.58 650.39,855.00 L 634.50 855.50 L 634.21 865.35 C634.03,871.76 634.33,875.69 635.09,876.60 C635.97,877.67 639.30,878.00 649.00,878.00 C659.12,878.00 662.01,878.31 663.00,879.50 C663.98,880.68 663.99,881.31 663.02,882.47 C662.08,883.61 658.70,884.01 648.15,884.22 L 634.50 884.50 L 634.22 895.02 C633.82,909.84 633.30,909.38 651.14,910.00 C665.09,910.49 665.48,910.56 666.66,912.94 C667.33,914.29 667.65,915.75 667.38,916.19 C666.78,917.16 628.63,917.29 627.67,916.33 ZM 733.71 916.38 C733.32,915.99 733.00,900.95 733.00,882.96 C733.00,855.10 733.22,850.06 734.50,849.00 C735.70,848.01 736.31,848.01 737.51,849.01 C738.82,850.09 738.99,854.82 738.76,883.38 C738.51,915.86 738.46,916.51 736.46,916.79 C735.34,916.95 734.10,916.77 733.71,916.38 ZM 816.30 915.65 C815.86,914.91 814.15,913.67 812.50,912.90 C809.05,911.28 804.31,903.24 805.30,900.67 C806.45,897.66 809.69,898.91 815.28,904.50 L 820.78 910.00 L 827.81 910.00 C837.84,910.00 843.16,907.55 845.42,901.90 C846.86,898.30 846.96,896.92 845.99,893.47 C844.95,889.76 844.19,889.03 838.40,886.17 C834.86,884.43 830.80,883.00 829.38,883.00 C827.96,883.00 824.70,881.92 822.15,880.60 C819.59,879.28 816.16,877.81 814.53,877.34 C811.47,876.45 807.40,871.43 806.35,867.25 C805.71,864.71 808.16,858.34 811.31,854.34 C812.34,853.02 814.93,851.06 817.05,849.97 C823.38,846.74 838.93,847.60 845.05,851.51 C847.59,853.12 851.17,859.79 850.82,862.23 C850.31,865.83 846.89,865.07 844.09,860.75 C842.76,858.69 840.93,857.00 840.02,857.00 C839.12,857.00 837.51,856.34 836.44,855.53 C833.68,853.44 823.98,853.57 819.83,855.75 C815.47,858.04 815.03,858.75 815.03,863.50 C815.03,870.27 815.85,871.79 820.36,873.31 C830.55,876.75 834.91,878.00 836.77,878.00 C839.30,878.00 850.28,885.28 853.09,888.82 C854.89,891.09 855.12,892.36 854.64,897.10 C853.79,905.38 852.55,907.70 847.27,910.96 C844.65,912.58 841.79,914.60 840.92,915.45 C838.77,917.55 817.53,917.72 816.30,915.65 ZM 434.67 844.33 C433.59,843.26 433.88,842.31 436.04,839.83 C437.16,838.55 438.95,836.04 440.02,834.25 C441.41,831.94 442.71,831.00 444.52,831.00 C448.14,831.00 448.52,833.21 445.67,837.72 C442.19,843.25 436.81,846.48 434.67,844.33 ZM 89.29 771.98 C87.95,771.44 85.63,768.23 83.44,763.88 C81.44,759.91 79.17,756.03 78.39,755.25 C77.62,754.48 74.72,749.64 71.96,744.51 C69.19,739.38 66.23,734.61 65.39,733.90 C64.54,733.20 62.71,730.39 61.32,727.65 C57.28,719.68 47.79,712.06 41.79,711.96 C40.53,711.95 38.38,711.29 37.00,710.50 C34.14,708.86 20.36,708.49 18.00,709.98 C16.74,710.77 16.42,715.76 16.00,741.21 L 15.50 771.50 L 7.75 771.79 L 0.00 772.08 L 0.00 698.54 L 0.00 625.00 L 25.84 625.00 C60.08,625.00 72.19,626.63 81.00,632.41 C82.93,633.68 86.61,635.90 89.18,637.36 C93.07,639.56 94.47,641.21 97.43,647.14 C100.92,654.11 101.00,654.53 101.00,666.16 C101.00,677.80 100.92,678.20 97.44,685.12 C93.93,692.10 91.86,694.53 84.32,700.61 C79.92,704.16 72.79,708.00 70.60,708.00 C69.78,708.00 68.85,708.43 68.53,708.96 C67.86,710.04 73.50,720.50 76.20,723.20 C77.17,724.17 79.94,728.91 82.37,733.73 C84.79,738.55 87.75,743.38 88.95,744.46 C90.14,745.54 92.96,750.38 95.21,755.21 C97.45,760.04 99.62,764.00 100.03,764.00 C100.44,764.00 101.53,765.16 102.46,766.58 C104.06,769.02 104.06,769.28 102.42,771.08 C100.54,773.16 93.43,773.65 89.29,771.98 ZM 69.05 693.48 C75.37,690.22 82.32,682.10 84.25,675.71 C86.80,667.26 86.49,662.36 82.89,654.42 C77.05,641.53 73.04,640.15 39.04,639.34 C20.30,638.89 18.48,639.00 17.29,640.62 C16.32,641.95 16.00,648.57 16.00,667.61 C16.00,681.48 16.30,693.61 16.66,694.56 C17.27,696.15 19.26,696.24 41.46,695.77 C61.97,695.34 66.12,694.99 69.05,693.48 ZM 143.20 770.80 C141.46,769.06 141.46,627.94 143.20,626.20 C144.92,624.48 226.08,624.48 227.80,626.20 C228.46,626.86 229.00,629.47 229.00,632.00 C229.00,634.53 228.46,637.14 227.80,637.80 C226.91,638.69 217.65,639.00 192.34,639.00 C159.48,639.00 158.03,639.08 157.04,640.93 C155.70,643.42 155.65,683.96 156.98,687.43 L 157.95 690.00 L 186.78 690.00 C207.86,690.00 215.92,690.32 216.80,691.20 C218.36,692.76 218.36,701.24 216.80,702.80 C215.92,703.68 207.91,704.00 187.00,704.00 C166.09,704.00 158.08,704.32 157.20,705.20 C155.45,706.95 155.49,756.55 157.25,757.69 C157.94,758.14 174.25,758.72 193.50,759.00 L 228.50 759.50 L 228.81 763.24 C229.05,766.15 228.56,767.53 226.60,769.49 L 224.09 772.00 L 184.25 772.00 C154.59,772.00 144.09,771.69 143.20,770.80 ZM 255.20 770.80 C253.49,769.09 253.72,762.58 255.63,758.22 C256.53,756.17 257.60,752.70 258.02,750.50 C258.44,748.30 259.26,745.15 259.85,743.50 C260.43,741.85 261.57,737.80 262.38,734.50 C265.37,722.22 266.24,719.38 268.54,714.50 C269.83,711.75 271.09,708.38 271.33,707.00 C271.57,705.62 272.53,702.25 273.47,699.50 C274.41,696.75 275.64,693.15 276.21,691.50 C276.77,689.85 278.07,686.03 279.11,683.00 C280.14,679.97 284.32,670.53 288.38,662.00 C292.44,653.47 296.50,644.92 297.40,643.00 C299.95,637.54 306.19,627.63 307.93,626.28 C310.40,624.37 319.33,624.68 321.37,626.75 C327.99,633.49 335.06,645.73 336.55,653.00 C336.94,654.92 339.89,661.61 343.10,667.85 C346.32,674.10 349.25,680.85 349.61,682.85 C349.97,684.86 351.34,688.62 352.64,691.22 C353.94,693.81 355.00,697.19 355.01,698.72 C355.01,700.25 356.12,703.30 357.47,705.50 C358.83,707.70 359.95,710.37 359.97,711.43 C359.99,712.49 360.41,714.74 360.91,716.43 C361.41,718.12 362.50,721.75 363.33,724.50 C364.16,727.25 365.59,732.20 366.50,735.50 C367.42,738.80 368.80,742.98 369.58,744.78 C370.36,746.59 371.00,749.20 371.00,750.58 C371.00,751.97 371.67,754.40 372.50,756.00 C373.32,757.59 374.49,761.19 375.09,763.99 C376.54,770.74 375.48,772.00 368.33,772.00 C360.47,772.00 358.53,769.76 357.61,759.64 C357.22,755.36 356.31,750.44 355.57,748.68 C353.49,743.71 352.00,738.55 352.00,736.31 C352.00,735.19 351.07,733.08 349.93,731.63 L 347.85 729.00 L 314.49 729.00 C288.88,729.00 280.93,729.29 280.32,730.25 C278.71,732.79 275.01,742.56 275.00,744.30 C275.00,745.29 274.38,747.31 273.62,748.80 C272.86,750.28 271.93,754.42 271.56,758.00 C270.50,768.35 270.08,769.64 267.40,770.86 C264.12,772.36 256.72,772.32 255.20,770.80 ZM 344.64 714.49 C344.96,713.66 344.49,711.45 343.60,709.57 C342.71,707.70 341.70,704.66 341.35,702.83 C341.00,701.00 339.88,697.83 338.86,695.79 C337.84,693.75 337.00,691.14 337.00,690.00 C337.00,688.86 333.66,681.08 329.57,672.71 C325.48,664.35 321.82,656.15 321.42,654.50 C321.02,652.85 319.64,650.23 318.35,648.67 C317.06,647.12 316.00,645.43 316.00,644.92 C316.00,642.96 312.90,644.12 312.03,646.41 C311.53,647.74 307.04,657.13 302.06,667.27 C297.08,677.42 293.00,686.47 293.00,687.39 C293.00,688.31 291.65,691.73 290.00,695.00 C288.35,698.27 287.00,701.62 287.00,702.44 C287.00,703.26 286.29,706.01 285.43,708.56 C284.56,711.10 284.10,713.82 284.40,714.59 C285.23,716.77 343.80,716.68 344.64,714.49 ZM 408.20 770.80 C406.46,769.06 406.46,627.94 408.20,626.20 C408.86,625.54 411.70,625.00 414.50,625.00 C417.30,625.00 420.14,625.54 420.80,626.20 C421.71,627.11 422.00,642.98 422.02,691.45 C422.02,730.02 422.41,756.10 422.98,757.00 C423.78,758.27 429.20,758.58 458.21,759.00 L 492.50 759.50 L 492.81 763.85 C493.03,766.90 492.61,768.77 491.41,770.10 C489.78,771.91 487.70,772.00 449.55,772.00 C419.65,772.00 409.09,771.69 408.20,770.80 ZM 534.67 771.33 C534.30,770.97 534.00,737.89 534.00,697.83 C534.00,640.28 534.26,624.98 535.25,624.91 C539.93,624.60 547.70,625.34 548.75,626.21 C550.53,627.69 550.58,769.02 548.80,770.80 C547.54,772.06 535.83,772.50 534.67,771.33 ZM 601.21 770.81 C597.83,767.43 602.34,750.62 608.00,745.50 C609.22,744.40 611.08,741.79 612.15,739.71 C613.21,737.62 614.99,735.01 616.10,733.90 C617.22,732.78 618.95,729.95 619.96,727.60 C620.96,725.26 622.95,722.07 624.38,720.53 C625.81,718.99 628.62,714.75 630.62,711.12 C632.63,707.48 635.05,703.60 636.01,702.50 C636.97,701.40 638.98,698.25 640.48,695.50 C641.98,692.75 643.95,689.77 644.85,688.88 C645.76,688.00 647.05,686.42 647.73,685.38 C648.41,684.35 650.00,681.92 651.27,680.00 C652.54,678.08 655.28,673.69 657.36,670.25 C659.44,666.81 661.48,664.00 661.90,664.00 C662.31,664.00 663.70,661.86 664.99,659.25 C666.27,656.64 668.39,653.15 669.68,651.50 C670.97,649.85 672.38,648.05 672.80,647.50 C674.00,645.93 678.00,639.31 678.00,638.88 C678.00,638.67 660.85,638.64 639.89,638.81 C605.07,639.08 601.62,638.96 599.89,637.40 C597.71,635.43 597.26,628.14 599.20,626.20 C600.93,624.47 694.07,624.47 695.80,626.20 C696.46,626.86 697.00,629.86 697.00,632.86 C697.00,637.04 696.45,639.03 694.64,641.41 C693.35,643.11 691.36,646.33 690.22,648.57 C689.08,650.80 687.41,653.25 686.50,654.00 C685.59,654.75 683.97,657.10 682.89,659.22 C681.80,661.35 680.05,663.95 679.00,665.00 C677.95,666.05 676.10,668.85 674.91,671.21 C673.71,673.57 671.52,677.08 670.04,679.00 C668.55,680.92 665.85,685.20 664.02,688.50 C662.20,691.80 659.67,695.62 658.40,697.00 C657.14,698.38 655.41,701.16 654.57,703.18 C653.72,705.21 652.01,707.98 650.76,709.34 C649.52,710.71 647.94,712.65 647.27,713.66 C646.59,714.67 644.92,717.08 643.55,719.00 C642.19,720.92 639.92,724.65 638.50,727.28 C637.09,729.92 635.01,732.99 633.88,734.12 C632.76,735.24 630.73,738.27 629.37,740.83 C628.01,743.40 625.33,747.48 623.40,749.89 C621.34,752.49 620.02,755.15 620.20,756.39 C620.50,758.49 620.74,758.50 657.45,758.76 C693.99,759.02 694.42,759.05 696.75,761.23 C698.59,762.97 699.03,764.29 698.80,767.47 L 698.50 771.50 L 650.46 771.76 C613.93,771.96 602.13,771.73 601.21,770.81 ZM 730.67 771.33 C730.30,770.97 730.00,767.88 730.00,764.48 C730.00,758.85 730.40,757.68 734.48,751.40 C736.95,747.60 739.90,743.42 741.04,742.10 C742.18,740.79 744.00,737.96 745.10,735.81 C746.19,733.67 747.95,731.05 749.00,730.00 C750.05,728.95 751.86,726.23 753.02,723.96 C755.08,719.92 762.07,709.81 766.04,705.15 C767.13,703.85 768.98,700.59 770.14,697.90 C771.30,695.20 772.58,693.00 772.99,693.00 C773.78,693.00 775.70,690.26 783.85,677.50 C786.66,673.10 789.90,668.42 791.04,667.10 C792.18,665.79 794.05,662.86 795.20,660.61 C796.35,658.35 797.88,656.06 798.59,655.50 C800.33,654.16 807.00,642.18 807.00,640.40 C807.00,639.22 801.19,639.00 770.63,639.00 C735.36,639.00 734.19,638.94 731.63,636.93 C729.61,635.34 729.00,633.97 729.00,631.05 C729.00,628.96 729.58,626.76 730.29,626.17 C731.16,625.45 747.18,625.05 779.54,624.94 L 827.50 624.77 L 827.80 630.38 C828.07,635.41 827.67,636.72 823.91,643.24 C817.11,655.04 808.79,668.00 808.03,668.00 C807.64,668.00 806.13,670.45 804.66,673.44 C803.19,676.44 801.56,679.16 801.02,679.49 C800.02,680.10 788.73,696.95 785.42,702.75 C784.40,704.54 783.30,706.00 782.96,706.00 C782.63,706.00 781.29,708.14 780.00,710.75 C778.70,713.36 776.83,716.08 775.84,716.80 C774.84,717.51 772.80,720.21 771.30,722.80 C766.38,731.29 759.75,741.48 758.48,742.53 C757.79,743.09 755.66,746.57 753.74,750.25 C751.07,755.37 750.53,757.20 751.46,757.97 C752.22,758.60 766.94,759.07 790.59,759.24 L 828.50 759.50 L 828.81 764.33 C828.98,767.03 828.60,769.78 827.94,770.58 C826.95,771.77 819.08,772.00 779.04,772.00 C752.80,772.00 731.03,771.70 730.67,771.33 ZM 853.97 770.46 C852.93,769.21 853.01,767.41 854.43,760.71 C856.56,750.66 858.70,742.64 860.50,738.00 C861.24,736.08 862.83,731.35 864.03,727.50 C865.23,723.65 866.66,719.15 867.20,717.50 C867.75,715.85 868.53,712.92 868.93,711.00 C869.33,709.08 870.41,706.06 871.33,704.30 C872.25,702.54 873.00,699.88 873.00,698.38 C873.00,696.89 874.28,693.38 875.84,690.58 C877.40,687.79 879.23,683.25 879.90,680.50 C880.58,677.75 883.35,671.37 886.06,666.31 C888.78,661.26 891.00,656.37 891.00,655.45 C891.00,654.52 893.03,649.57 895.50,644.45 C897.97,639.32 900.00,634.96 900.00,634.74 C900.00,634.52 901.93,632.24 904.29,629.67 C908.41,625.19 908.80,625.00 914.13,625.00 C919.56,625.00 919.78,625.11 923.84,629.93 C926.13,632.64 928.00,635.28 928.00,635.79 C928.00,636.31 928.88,637.85 929.97,639.23 C931.05,640.60 932.42,643.93 933.02,646.61 C933.63,649.30 936.97,656.90 940.47,663.50 C943.96,670.10 947.32,677.53 947.93,680.00 C948.54,682.47 950.12,686.75 951.43,689.50 C952.74,692.25 954.26,696.30 954.80,698.50 C955.34,700.70 956.32,704.08 956.98,706.00 C957.65,707.92 958.64,710.85 959.19,712.50 C966.14,733.36 967.52,738.09 969.97,749.50 C970.44,751.70 971.52,755.30 972.37,757.50 C974.23,762.32 974.45,769.15 972.80,770.80 C971.13,772.47 963.88,772.30 961.35,770.53 C958.78,768.73 956.56,762.10 954.97,751.50 C953.96,744.73 951.76,738.21 948.05,731.00 C947.40,729.72 942.49,729.46 914.89,729.23 C880.21,728.93 878.93,729.09 877.17,733.88 C874.30,741.67 872.17,750.58 870.11,763.41 C869.09,769.75 866.44,772.00 860.01,772.00 C856.94,772.00 854.79,771.45 853.97,770.46 ZM 943.89 714.63 C944.75,713.60 944.55,712.22 943.03,708.88 C941.94,706.47 941.03,703.70 941.02,702.72 C941.01,701.74 939.65,698.27 938.00,695.00 C936.35,691.73 935.00,688.10 935.00,686.94 C935.00,685.77 930.98,676.65 926.06,666.66 C921.14,656.67 916.81,647.26 916.45,645.75 C916.03,644.03 915.12,643.00 914.00,643.00 C912.89,643.00 911.96,644.03 911.54,645.75 C911.17,647.26 906.77,656.83 901.76,667.00 C892.39,686.02 888.53,695.35 886.96,702.74 C886.47,705.07 885.35,708.36 884.47,710.06 C881.45,715.90 881.93,716.00 914.00,716.00 C937.09,716.00 942.98,715.73 943.89,714.63 ZM 1028.20 770.80 C1027.29,769.89 1027.00,754.25 1027.00,706.52 C1027.00,651.05 1026.81,643.18 1025.44,641.22 C1023.92,639.05 1023.41,639.00 1004.10,639.00 C986.20,639.00 984.15,638.83 982.65,637.17 C980.72,635.03 980.43,627.97 982.20,626.20 C983.10,625.30 995.98,625.00 1034.00,625.00 C1072.02,625.00 1084.90,625.30 1085.80,626.20 C1087.38,627.78 1087.34,634.48 1085.75,635.75 C1083.28,637.72 1077.21,638.36 1059.50,638.51 L 1041.50 638.67 L 1041.24 703.99 C1041.06,750.22 1040.66,769.71 1039.87,770.66 C1038.48,772.34 1029.84,772.44 1028.20,770.80 ZM 1128.20 770.80 C1126.46,769.06 1126.46,627.94 1128.20,626.20 C1128.90,625.50 1132.24,625.00 1136.20,625.00 L 1143.00 625.00 L 1143.00 698.50 L 1143.00 772.00 L 1136.20 772.00 C1132.24,772.00 1128.90,771.50 1128.20,770.80 ZM 711.54 545.50 C708.32,542.47 705.11,540.00 704.41,540.00 C703.71,540.00 702.81,538.99 702.42,537.75 C702.03,536.51 699.64,533.43 697.11,530.91 C693.04,526.86 691.54,525.30 686.91,520.34 C685.02,518.32 681.20,514.58 678.81,512.41 C677.54,511.26 674.06,507.55 671.09,504.16 C668.11,500.77 665.07,498.00 664.34,498.00 C663.60,498.00 663.00,497.54 663.00,496.99 C663.00,496.43 660.86,493.65 658.25,490.82 C647.33,478.97 645.31,477.59 646.45,482.77 C647.57,487.88 645.74,488.77 632.72,489.45 C626.24,489.79 619.76,490.52 618.32,491.07 C616.57,491.73 614.67,491.72 612.54,491.01 C610.80,490.44 604.90,490.06 599.44,490.16 C590.09,490.34 584.12,490.02 569.32,488.54 C564.14,488.02 562.99,488.19 562.20,489.61 C560.97,491.81 558.00,490.72 558.00,488.07 C558.00,486.61 557.00,485.82 554.25,485.10 C549.52,483.86 538.14,481.74 535.50,481.59 C534.40,481.54 532.91,481.11 532.19,480.65 C531.36,480.12 530.16,480.45 528.96,481.54 C527.37,482.97 526.77,483.05 525.50,482.00 C524.64,481.29 524.21,479.93 524.52,478.94 C524.98,477.50 524.07,476.87 519.64,475.58 C516.64,474.71 513.28,474.00 512.16,474.00 C511.03,474.00 509.84,473.55 509.50,473.00 C509.16,472.45 507.98,472.00 506.88,472.00 C505.78,472.00 505.13,471.60 505.43,471.12 C505.93,470.31 500.85,467.59 499.52,467.95 C499.20,468.03 497.09,467.06 494.82,465.80 C491.82,464.13 490.57,463.84 490.26,464.75 C490.03,465.44 489.21,466.00 488.45,466.00 C487.61,466.00 487.30,465.39 487.66,464.44 C488.57,462.08 482.86,457.44 477.86,456.47 C476.76,456.26 475.00,455.00 473.96,453.67 C472.92,452.35 470.81,451.01 469.28,450.69 C466.31,450.08 463.05,447.89 459.71,444.25 C458.57,443.01 456.82,442.00 455.81,442.00 C453.77,442.00 448.69,437.46 447.70,434.75 C447.35,433.79 446.69,433.00 446.24,433.00 C445.78,433.00 442.73,430.53 439.46,427.50 C436.18,424.48 433.16,422.00 432.75,422.00 C432.34,422.00 432.00,421.31 432.00,420.48 C432.00,419.64 430.88,418.52 429.50,418.00 C428.12,417.48 427.00,416.66 427.00,416.17 C427.00,414.77 415.06,401.62 412.61,400.32 C411.39,399.67 409.29,396.97 407.95,394.32 C406.61,391.67 404.05,388.05 402.26,386.27 C400.47,384.49 399.00,382.06 399.00,380.86 C399.00,379.61 397.30,377.13 395.00,375.00 C392.44,372.64 391.00,370.43 391.00,368.88 C391.00,365.05 388.17,361.73 385.38,362.27 C382.65,362.79 382.17,360.94 384.53,358.98 C385.83,357.89 385.85,357.48 384.66,356.11 C383.89,355.22 382.95,353.17 382.57,351.55 C382.18,349.93 380.77,347.59 379.43,346.35 C378.09,345.11 377.00,343.20 377.00,342.11 C377.00,341.01 376.51,339.82 375.91,339.45 C375.31,339.08 375.05,337.93 375.32,336.89 C375.59,335.85 375.33,335.00 374.74,335.00 C374.15,335.00 373.91,334.75 374.21,334.45 C374.51,334.15 374.21,332.01 373.53,329.70 C372.62,326.62 371.70,325.41 370.08,325.17 C367.24,324.75 366.30,322.27 368.25,320.32 C369.47,319.10 369.58,318.05 368.79,315.15 C368.24,313.14 367.44,311.05 367.02,310.50 C366.59,309.95 365.99,307.25 365.68,304.50 C364.71,295.69 363.79,292.54 361.73,290.89 C360.37,289.80 359.99,288.82 360.58,287.89 C361.71,286.10 361.83,279.99 360.78,277.79 C358.92,273.86 358.09,240.55 359.42,223.00 C359.69,219.43 360.07,212.62 360.26,207.87 C360.50,202.16 361.15,198.41 362.21,196.80 C364.67,193.05 366.01,187.15 365.00,184.50 C364.52,183.23 361.28,179.29 357.81,175.76 C354.34,172.24 349.17,166.80 346.33,163.68 C343.48,160.56 340.00,157.57 338.58,157.03 C337.16,156.49 336.00,155.44 336.00,154.69 C336.00,153.95 333.70,150.90 330.89,147.92 C328.08,144.94 324.86,141.51 323.72,140.31 C322.59,139.10 321.20,138.20 320.63,138.31 C320.06,138.41 319.57,137.99 319.55,137.37 C319.52,136.75 315.11,131.86 309.75,126.52 C304.39,121.17 300.00,116.40 300.00,115.90 C300.00,115.41 299.33,115.00 298.50,115.00 C297.67,115.00 297.00,114.31 297.00,113.47 C297.00,112.63 296.21,111.64 295.25,111.28 C291.71,109.95 289.89,105.29 291.77,102.35 C292.77,100.78 456.69,99.97 548.00,101.08 C585.67,101.54 617.85,101.89 619.50,101.85 C634.03,101.52 643.14,102.39 646.19,104.39 C647.67,105.36 651.88,106.78 655.55,107.55 C659.22,108.31 662.84,109.46 663.60,110.08 C664.36,110.71 665.54,111.01 666.24,110.74 C667.86,110.12 672.27,111.75 671.67,112.74 C671.16,113.58 672.93,115.50 674.50,115.81 C675.05,115.92 677.02,116.51 678.87,117.12 C681.55,118.01 682.41,117.95 683.10,116.87 C683.90,115.60 684.43,116.38 684.09,118.32 C684.01,118.78 684.44,118.84 685.04,118.47 C685.66,118.09 686.37,118.68 686.66,119.82 C686.95,120.93 688.48,122.37 690.06,123.03 C691.64,123.68 693.45,124.84 694.09,125.61 C694.72,126.37 696.10,127.00 697.15,127.00 C698.21,127.00 699.43,128.01 699.91,129.27 C700.39,130.52 701.95,132.17 703.39,132.94 C704.82,133.71 706.00,134.61 706.00,134.93 C706.00,135.26 710.87,140.53 716.83,146.64 C722.78,152.76 728.43,159.39 729.37,161.38 C730.32,163.37 731.51,165.00 732.03,165.00 C732.54,165.00 733.27,166.24 733.64,167.75 C734.64,171.82 736.99,175.00 739.01,175.00 C740.77,175.00 741.54,177.51 742.24,185.50 C742.38,187.15 743.51,189.41 744.75,190.53 C745.99,191.65 747.00,193.67 747.01,195.03 C747.02,196.39 747.68,199.66 748.48,202.31 C749.28,204.95 750.15,208.77 750.40,210.81 C751.58,220.22 752.38,223.72 754.01,226.50 C756.71,231.11 757.38,238.16 755.54,242.55 C754.35,245.41 754.26,246.60 755.14,247.67 C756.02,248.73 756.00,250.43 755.03,254.73 C754.34,257.85 753.41,261.10 752.97,261.95 C751.58,264.65 749.17,278.23 748.68,286.11 C748.56,288.13 747.34,291.20 745.91,293.11 C742.49,297.66 739.68,304.71 739.58,309.00 C739.52,311.83 739.07,312.56 737.27,312.82 C735.61,313.05 734.73,314.21 733.85,317.32 C732.52,321.98 730.36,325.00 728.37,325.00 C727.64,325.00 726.17,326.69 725.10,328.75 C723.00,332.79 706.15,351.01 704.50,351.01 C703.95,351.01 701.79,352.58 699.69,354.50 C697.60,356.43 695.51,358.00 695.05,358.00 C694.59,358.00 692.77,359.35 691.00,361.00 C689.23,362.65 687.15,364.00 686.36,364.00 C685.58,364.00 684.68,364.67 684.36,365.50 C684.05,366.33 682.81,367.00 681.62,367.00 C678.87,367.00 675.00,369.66 675.00,371.56 C675.00,372.57 673.83,373.00 671.12,373.00 C668.99,373.00 666.77,373.57 666.19,374.28 C665.60,374.98 663.95,375.65 662.51,375.77 C659.26,376.04 648.90,381.03 649.52,382.03 C649.77,382.44 649.08,383.01 647.99,383.29 C645.29,384.00 645.49,385.62 648.50,387.59 C649.88,388.49 651.00,389.76 651.00,390.41 C651.00,391.06 654.71,395.51 659.25,400.29 C666.25,407.66 667.86,408.88 669.85,408.35 C671.35,407.94 672.53,408.22 673.10,409.11 C673.85,410.26 674.15,410.27 674.86,409.16 C675.34,408.43 675.90,407.94 676.11,408.07 C676.33,408.21 678.21,407.76 680.30,407.07 C683.39,406.05 683.88,405.55 682.92,404.41 C682.03,403.33 682.05,402.65 683.00,401.50 C684.49,399.70 686.37,399.59 688.89,401.17 C690.42,402.12 691.57,401.85 695.26,399.69 C697.74,398.24 700.03,396.37 700.35,395.53 C700.67,394.69 701.80,394.00 702.86,394.00 C703.92,394.00 705.02,393.40 705.30,392.66 C705.58,391.92 707.43,390.55 709.41,389.61 C711.38,388.67 713.00,387.25 713.00,386.45 C713.00,385.65 713.48,385.00 714.06,385.00 C714.64,385.00 714.84,384.55 714.50,384.00 C714.16,383.45 714.70,383.00 715.71,383.00 C716.71,383.00 718.97,382.21 720.74,381.25 C724.62,379.13 737.61,366.76 740.73,362.21 C743.16,358.68 743.70,358.00 747.52,353.70 C748.88,352.16 750.00,350.50 750.00,350.01 C750.00,349.52 751.36,347.63 753.03,345.81 C754.69,343.99 756.50,340.84 757.05,338.80 C757.60,336.77 759.40,333.76 761.04,332.11 C764.17,328.98 768.97,319.73 768.99,316.80 C769.00,315.87 770.03,314.00 771.28,312.64 C772.53,311.29 773.63,309.23 773.72,308.06 C773.81,306.89 774.81,303.46 775.94,300.43 C777.07,297.40 778.00,294.15 778.01,293.21 C778.01,292.27 778.73,290.15 779.61,288.50 C780.48,286.85 781.53,281.64 781.93,276.93 C782.33,272.21 783.04,267.75 783.49,267.02 C783.94,266.28 784.41,263.84 784.52,261.59 C784.64,259.34 785.08,252.96 785.50,247.41 C786.06,239.96 785.92,236.31 784.94,233.41 C784.21,231.26 783.49,227.25 783.33,224.50 C782.48,209.83 780.69,201.03 778.16,199.11 C776.65,197.95 776.31,197.08 776.98,196.01 C777.60,195.03 777.47,193.83 776.61,192.51 C775.90,191.40 774.99,188.48 774.59,186.00 C773.12,176.78 772.51,175.30 769.87,174.46 C768.56,174.04 768.10,173.25 768.47,172.08 C769.13,170.02 764.94,160.02 762.61,158.09 C761.72,157.35 761.00,156.17 761.00,155.45 C761.00,154.73 760.36,153.50 759.57,152.72 C758.79,151.93 757.46,149.65 756.63,147.65 C755.79,145.64 754.63,144.00 754.05,144.00 C753.47,144.00 753.00,143.45 753.00,142.79 C753.00,142.12 752.14,140.65 751.09,139.54 C744.98,133.04 743.00,130.80 743.00,130.38 C743.00,130.12 742.55,129.37 742.01,128.71 C741.46,128.04 738.89,124.80 736.29,121.50 C733.68,118.20 731.17,115.34 730.70,115.14 C730.23,114.94 728.52,113.48 726.89,111.89 C725.26,110.30 723.35,109.00 722.65,109.00 C721.94,109.00 718.54,106.30 715.08,103.00 C711.62,99.70 708.31,97.00 707.71,97.00 C707.12,97.00 705.58,96.01 704.29,94.81 C703.01,93.60 701.40,92.53 700.73,92.43 C698.79,92.13 692.00,87.89 692.00,86.97 C692.00,85.41 680.53,80.66 677.25,80.86 C674.94,81.00 674.00,80.63 674.00,79.57 C674.00,77.65 670.92,76.00 667.32,75.99 C665.77,75.99 663.15,75.28 661.50,74.41 C659.85,73.55 656.92,72.76 655.00,72.67 C653.03,72.57 650.94,71.75 650.22,70.79 C648.99,69.14 643.07,67.41 640.00,67.80 C639.17,67.90 636.50,67.39 634.05,66.65 C630.79,65.67 628.56,65.58 625.68,66.31 C622.58,67.10 620.73,66.94 616.91,65.56 C612.86,64.11 609.88,63.91 598.78,64.38 C591.48,64.69 583.95,65.40 582.05,65.96 C580.15,66.52 576.32,67.05 573.55,67.14 C570.71,67.23 562.65,69.21 555.15,71.65 C547.81,74.04 541.21,76.00 540.48,76.00 C539.75,76.00 537.82,77.12 536.18,78.50 C534.55,79.88 532.54,81.00 531.73,81.00 C530.91,81.00 529.73,81.63 529.09,82.39 C528.46,83.15 525.95,84.28 523.52,84.89 C521.09,85.50 518.74,86.61 518.30,87.34 C517.08,89.39 512.20,92.26 509.73,92.39 C508.38,92.46 507.02,93.56 506.21,95.25 C504.75,98.30 502.38,98.75 499.44,96.53 C497.81,95.30 491.18,95.06 458.31,95.03 C433.23,95.01 418.90,95.36 418.50,96.00 C417.41,97.77 412.15,97.14 411.06,95.11 C410.29,93.67 410.49,92.64 411.88,90.86 C412.89,89.56 414.41,87.15 415.27,85.50 C416.12,83.85 418.54,80.82 420.66,78.77 C429.32,70.36 435.64,64.00 438.00,61.31 C439.38,59.75 441.95,57.44 443.73,56.18 C445.92,54.63 446.88,53.19 446.73,51.70 C446.55,50.03 446.98,49.56 448.50,49.74 C452.32,50.19 454.96,48.96 458.61,45.01 C460.63,42.83 463.23,40.75 464.39,40.39 C465.55,40.03 468.70,37.99 471.38,35.87 C474.06,33.74 477.10,32.00 478.13,32.00 C480.39,32.00 484.31,28.31 483.48,26.96 C482.75,25.78 487.82,23.72 489.69,24.44 C491.17,25.00 500.00,21.07 500.00,19.84 C500.00,19.42 500.96,18.18 502.14,17.08 C503.67,15.66 504.77,15.34 505.97,15.98 C507.87,17.00 515.49,14.76 518.08,12.42 C518.95,11.64 520.54,11.00 521.63,11.00 C522.71,11.00 524.03,10.61 524.55,10.14 C525.07,9.67 528.42,8.70 532.00,7.99 C540.79,6.25 542.31,5.38 541.74,2.41 C541.33,0.25 541.63,-0.00 544.64,-0.00 C546.96,-0.00 548.00,0.46 548.00,1.50 C548.00,3.44 551.51,3.44 557.00,1.50 C560.18,0.38 565.81,0.00 579.29,0.00 C589.21,0.00 597.15,0.18 596.92,0.41 C596.69,0.63 590.79,1.31 583.80,1.90 C534.03,6.14 486.04,26.26 447.50,59.06 C435.31,69.44 415.00,90.75 415.00,93.18 C415.00,93.63 434.24,93.99 457.75,93.98 L 500.50 93.96 L 507.50 89.39 C534.77,71.60 571.17,61.03 605.29,61.01 C634.06,60.99 659.69,66.85 685.50,79.37 C722.82,97.47 752.59,127.28 770.51,164.50 C804.95,236.04 789.63,321.01 732.37,376.02 C716.69,391.08 697.62,403.86 678.00,412.46 L 669.50 416.19 L 657.24 403.35 C650.49,396.28 642.73,387.97 640.00,384.88 L 635.02 379.26 L 641.24 378.03 C666.81,373.00 693.45,357.97 712.53,337.81 C731.02,318.28 742.92,295.30 748.67,268.00 C751.13,256.31 751.12,230.02 748.66,217.63 C742.93,188.85 730.42,165.28 710.06,144.94 C694.09,128.97 677.06,118.31 656.66,111.49 C634.81,104.18 648.24,104.68 462.01,104.28 L 294.51 103.93 L 298.56 108.21 C310.06,120.40 351.66,163.79 360.18,172.50 L 369.97 182.50 L 368.10 190.50 C367.08,194.90 365.71,202.32 365.07,207.00 C364.44,211.68 363.69,216.85 363.41,218.50 C363.13,220.15 362.65,228.02 362.33,236.00 C360.30,287.41 376.03,340.65 405.92,383.50 C428.74,416.22 462.57,445.07 498.50,462.46 C528.87,477.16 557.25,484.69 591.29,487.08 C611.17,488.48 641.71,486.42 642.07,483.66 C642.13,483.20 629.95,470.04 615.00,454.41 C589.52,427.78 587.60,426.00 584.32,426.00 C578.55,426.00 561.30,422.12 548.37,417.92 C527.53,411.14 502.52,397.42 489.50,385.62 L 484.50 381.09 L 522.00 381.05 L 559.50 381.02 L 586.95 409.76 C682.45,509.76 718.30,547.00 719.10,547.00 C719.62,547.00 720.00,530.83 720.00,508.71 L 720.00 470.42 L 717.04 466.96 C715.41,465.06 714.06,463.20 714.04,462.84 C714.02,462.47 717.49,460.29 721.75,458.00 C754.71,440.22 786.92,410.83 807.74,379.50 C828.11,348.87 840.93,315.60 846.50,279.00 C847.38,273.23 848.37,260.25 848.70,250.16 C849.26,233.05 849.40,232.04 850.74,235.16 C851.78,237.58 852.02,240.71 851.62,246.50 C851.31,250.90 850.81,259.67 850.50,266.00 C849.72,281.87 849.37,285.54 847.93,292.90 C847.07,297.31 846.98,300.12 847.66,301.92 C848.91,305.23 848.34,307.00 846.03,307.00 C845.04,307.00 843.90,308.01 843.50,309.25 C843.10,310.49 842.68,311.73 842.58,312.00 C842.47,312.27 842.03,314.45 841.59,316.83 C841.15,319.21 840.17,322.36 839.40,323.83 C838.64,325.30 838.01,327.40 838.00,328.50 C837.99,329.60 837.09,331.85 836.00,333.50 C834.91,335.15 834.01,337.68 834.01,339.13 C834.00,340.57 833.33,342.32 832.50,343.00 C831.67,343.68 831.00,345.08 831.00,346.10 C831.00,347.12 829.41,350.45 827.46,353.50 C825.28,356.90 823.83,360.48 823.71,362.77 C823.54,365.80 823.08,366.56 821.25,366.82 C818.88,367.16 816.51,370.39 817.48,371.96 C817.79,372.47 816.80,374.37 815.27,376.19 C811.42,380.79 808.00,385.76 808.00,386.76 C808.00,387.22 806.20,389.35 804.00,391.50 C801.80,393.65 800.00,396.16 800.00,397.08 C800.00,398.00 799.32,399.32 798.48,400.01 C797.65,400.71 797.09,402.45 797.23,403.89 C797.47,406.16 797.16,406.46 794.94,406.20 C792.84,405.96 791.24,407.21 786.18,413.03 C779.70,420.48 769.04,430.39 762.00,435.50 C759.73,437.15 757.12,439.29 756.21,440.25 C755.30,441.21 754.01,442.00 753.35,442.00 C752.69,442.00 751.31,443.01 750.30,444.25 C748.38,446.59 742.57,451.00 741.42,451.00 C741.06,451.00 739.22,452.36 737.32,454.02 C735.43,455.68 733.47,456.79 732.98,456.49 C732.48,456.18 730.26,457.07 728.04,458.48 C724.35,460.81 723.50,462.00 723.91,464.33 C723.99,464.78 723.14,464.86 722.03,464.51 C719.95,463.85 719.35,464.86 720.83,466.55 C723.39,469.47 724.00,477.13 723.99,506.12 C723.99,538.04 723.18,547.66 720.32,549.75 C719.38,550.44 718.35,551.00 718.01,551.00 C717.68,551.00 714.77,548.53 711.54,545.50 ZM 636.00 468.06 C636.00,466.88 634.05,465.62 633.33,466.33 C632.62,467.05 633.88,469.00 635.06,469.00 C635.58,469.00 636.00,468.58 636.00,468.06 ZM 631.00 462.06 C631.00,460.71 629.18,459.77 627.98,460.51 C627.42,460.86 627.23,461.56 627.54,462.07 C628.29,463.28 631.00,463.28 631.00,462.06 ZM 624.00 455.06 C624.00,454.54 622.99,453.41 621.76,452.54 C619.24,450.78 618.05,452.15 620.03,454.53 C621.39,456.17 624.00,456.52 624.00,455.06 ZM 617.30 448.62 C615.68,445.84 608.83,438.84 608.26,439.40 C607.95,439.72 606.97,439.45 606.09,438.80 C605.22,438.14 607.42,440.39 611.00,443.79 C617.80,450.27 618.61,450.89 617.30,448.62 ZM 604.25 434.06 C603.01,433.02 602.00,431.89 602.00,431.55 C602.00,430.41 585.55,414.30 583.75,413.68 C582.79,413.34 582.00,412.16 582.00,411.07 C582.00,409.97 581.02,408.55 579.82,407.90 C578.62,407.26 574.81,403.76 571.35,400.12 C567.89,396.48 562.95,391.36 560.37,388.75 L 555.68 384.00 L 524.84 384.00 C504.95,384.00 494.00,384.35 494.00,385.00 C494.00,385.55 494.84,386.00 495.86,386.00 C496.88,386.00 498.55,387.11 499.57,388.47 C500.59,389.82 502.62,391.20 504.07,391.52 C505.52,391.83 508.47,393.71 510.61,395.69 C514.64,399.41 520.30,402.37 521.35,401.32 C521.68,400.99 522.24,401.47 522.60,402.39 C523.41,404.52 528.14,407.00 531.38,407.00 C532.74,407.00 534.45,407.56 535.18,408.25 C538.66,411.53 548.52,415.51 553.53,415.64 C556.41,415.72 559.84,416.51 561.20,417.40 C562.55,418.28 563.90,418.77 564.19,418.48 C564.84,417.82 575.82,420.62 577.37,421.84 C577.99,422.33 581.12,422.99 584.32,423.30 C587.52,423.61 590.78,424.40 591.57,425.06 C592.36,425.71 593.00,425.90 593.00,425.48 C593.00,424.67 595.84,427.67 599.99,432.88 C601.36,434.59 603.38,435.99 604.49,435.97 C606.42,435.93 606.41,435.86 604.25,434.06 ZM 442.31 326.21 C439.03,324.13 429.29,297.16 426.03,281.13 C422.18,262.27 421.25,238.73 423.64,221.25 L 424.23 217.00 L 448.95 217.00 C462.54,217.00 473.94,216.73 474.27,216.39 C474.60,216.06 463.14,203.12 448.79,187.64 L 422.71 159.50 L 521.61 159.22 C589.98,159.02 622.49,159.28 626.95,160.03 C655.73,164.92 680.78,185.70 690.96,213.13 C697.93,231.89 697.72,254.57 690.41,273.23 C680.71,297.98 658.76,317.34 633.00,323.87 C623.41,326.30 609.00,327.64 609.00,326.10 C609.00,325.50 610.10,325.00 611.44,325.00 C612.78,325.00 614.16,324.55 614.50,324.00 C614.84,323.45 617.10,323.00 619.51,323.00 C625.32,323.00 629.28,321.18 628.66,318.81 C628.40,317.82 628.60,316.75 629.09,316.44 C629.59,316.13 630.00,316.25 630.00,316.69 C630.00,317.68 639.39,317.48 641.78,316.44 C643.51,315.69 644.49,315.43 646.71,315.15 C647.38,315.07 648.73,314.16 649.71,313.14 C650.69,312.12 652.76,310.98 654.29,310.61 C655.83,310.24 656.84,309.56 656.55,309.08 C656.26,308.61 656.94,307.99 658.06,307.69 C659.61,307.29 660.03,306.48 659.80,304.33 C659.54,301.90 659.85,301.50 662.00,301.50 C665.36,301.50 672.85,296.99 673.63,294.50 C673.98,293.40 675.05,291.38 676.01,290.00 C677.34,288.09 677.49,287.10 676.66,285.80 C675.19,283.50 676.63,282.29 679.05,283.80 C680.96,284.99 681.54,284.42 681.12,281.75 C681.05,281.34 681.45,281.00 682.00,281.00 C682.55,281.00 683.00,280.10 683.00,279.00 C683.00,277.90 683.51,277.00 684.12,277.00 C684.95,277.00 684.94,276.64 684.11,275.63 C683.25,274.59 683.34,273.96 684.49,273.01 C685.32,272.32 686.00,271.14 686.00,270.38 C686.00,269.62 686.46,269.00 687.02,269.00 C688.09,269.00 690.23,264.68 690.54,261.93 C690.63,261.07 691.06,258.59 691.50,256.43 C692.70,250.44 692.11,231.54 690.45,222.60 C689.76,218.93 688.22,216.00 686.96,216.00 C686.43,216.00 686.00,214.68 686.00,213.07 C686.00,211.46 685.39,209.54 684.65,208.79 C683.91,208.05 682.74,205.75 682.06,203.67 C681.37,201.60 679.95,199.36 678.91,198.71 C677.86,198.05 677.00,196.98 677.00,196.32 C677.00,194.13 657.35,175.00 655.10,175.00 C653.95,175.00 653.00,174.55 653.00,174.00 C653.00,173.45 652.07,173.00 650.93,173.00 C648.40,173.00 644.78,171.17 643.70,169.35 C643.26,168.61 641.89,168.00 640.65,168.00 C639.41,168.00 637.91,167.51 637.32,166.92 C635.10,164.70 628.24,163.93 623.93,165.41 C620.39,166.63 619.36,166.63 616.41,165.40 C612.06,163.58 621.03,163.77 520.92,163.35 L 434.33 162.98 L 434.49 165.06 C434.57,166.23 439.97,172.73 446.75,179.82 C469.59,203.74 478.97,214.14 478.99,215.55 C479.03,218.67 476.46,219.00 451.91,219.00 C424.71,219.00 426.00,218.68 426.00,225.38 C426.00,227.15 425.64,229.03 425.20,229.55 C424.75,230.07 424.64,234.55 424.95,239.50 C425.25,244.45 425.25,250.67 424.95,253.31 C424.64,255.96 424.70,258.31 425.07,258.54 C425.44,258.77 426.06,262.23 426.45,266.23 C426.85,270.23 427.67,274.10 428.27,274.83 C428.88,275.55 429.55,278.03 429.76,280.33 C429.97,282.62 431.01,287.07 432.07,290.22 C433.13,293.36 434.00,297.46 434.00,299.31 C434.00,301.44 434.75,303.37 436.03,304.53 C437.15,305.54 438.55,308.31 439.15,310.68 C439.75,313.06 440.63,315.00 441.12,315.00 C441.60,315.00 442.00,316.25 442.00,317.78 C442.00,321.04 444.50,325.00 446.56,325.00 C447.35,325.00 448.00,325.45 448.00,326.00 C448.00,327.17 444.04,327.32 442.31,326.21 ZM 848.67 229.33 C848.30,228.97 848.00,226.73 848.00,224.36 C848.00,218.13 845.22,200.13 842.40,188.06 C836.37,162.33 823.71,132.86 809.29,111.00 C775.27,59.45 723.75,22.67 665.00,7.98 C653.97,5.22 640.18,3.03 622.00,1.16 C614.76,0.41 616.86,0.26 636.22,0.14 C656.04,0.02 658.86,0.19 658.36,1.50 C657.93,2.62 658.52,3.00 660.71,3.00 C662.31,3.00 665.53,3.92 667.85,5.04 C670.18,6.17 675.03,7.44 678.63,7.88 C682.23,8.31 685.54,9.25 685.99,9.98 C686.43,10.70 687.49,11.03 688.34,10.70 C689.18,10.38 690.95,10.96 692.27,12.00 C695.80,14.77 705.03,18.03 707.57,17.39 C708.79,17.09 710.06,17.28 710.39,17.83 C710.73,18.37 711.90,18.58 713.00,18.29 C714.63,17.86 715.00,18.26 715.00,20.43 C715.00,22.57 715.75,23.41 718.75,24.67 C720.81,25.53 723.62,26.71 725.00,27.29 C726.38,27.86 727.84,28.37 728.25,28.42 C728.66,28.46 729.03,28.95 729.07,29.50 C729.16,30.87 733.04,32.92 735.62,32.96 C738.03,33.01 743.26,36.76 742.54,37.94 C742.27,38.37 743.73,39.57 745.78,40.61 C747.83,41.65 749.65,42.84 749.83,43.25 C750.02,43.66 750.73,44.00 751.42,44.00 C752.11,44.00 754.66,46.02 757.09,48.49 C759.51,50.96 762.02,52.99 762.65,52.99 C763.28,53.00 765.18,54.58 766.87,56.50 C768.56,58.42 770.52,60.02 771.22,60.04 C771.92,60.06 773.41,61.52 774.52,63.28 C775.63,65.05 777.76,67.08 779.27,67.80 C780.77,68.52 782.00,69.46 782.00,69.89 C782.00,70.32 784.96,73.79 788.58,77.59 C792.20,81.39 795.77,85.66 796.52,87.08 C797.26,88.49 799.70,91.30 801.94,93.32 C804.17,95.34 806.00,97.40 806.00,97.90 C806.00,99.27 810.27,107.00 811.03,107.00 C812.62,107.00 816.12,110.99 815.46,112.06 C815.07,112.70 815.14,113.51 815.62,113.86 C816.82,114.73 819.20,119.03 823.57,128.22 C826.82,135.03 827.47,135.82 829.12,134.93 C830.16,134.38 831.04,134.06 831.09,134.21 C831.14,134.37 831.28,136.52 831.41,139.00 C831.53,141.48 831.91,144.18 832.24,145.00 C832.58,145.82 833.35,148.14 833.97,150.15 C834.58,152.15 835.99,154.84 837.10,156.12 C838.21,157.40 838.91,159.25 838.65,160.24 C838.39,161.23 838.85,162.71 839.68,163.54 C840.54,164.40 841.39,167.65 841.67,171.22 C841.94,174.62 843.03,179.10 844.08,181.16 C845.14,183.23 846.00,186.04 846.00,187.40 C846.00,188.77 846.38,190.12 846.85,190.41 C847.82,191.00 849.11,201.85 849.53,212.82 C849.68,216.85 850.08,220.41 850.40,220.74 C850.73,221.07 851.00,223.28 851.00,225.67 C851.00,229.72 850.24,230.91 848.67,229.33 Z" fill="rgb(253,253,252)"/>
</g>
</svg>