<svg xmlns="http://www.w3.org/2000/svg" width="1143" height="917" viewBox="0 0 1143 917">
<g>
<path d="M 720.00 508.30 C720.00,531.37 719.63,547.00 719.07,547.00 C718.56,547.00 682.68,509.88 639.32,464.51 L 560.50 382.02 L 523.25 382.01 C502.76,382.00 486.00,382.20 486.00,382.46 C486.00,383.33 502.13,395.18 509.81,399.94 C530.99,413.08 554.63,421.75 579.44,425.47 C584.91,426.29 589.92,427.53 590.56,428.23 C591.20,428.93 603.32,441.62 617.48,456.43 C640.23,480.22 643.03,483.50 641.54,484.60 C637.54,487.52 593.84,488.57 576.50,486.15 C521.92,478.55 475.89,456.62 437.69,420.02 C410.73,394.19 389.27,361.48 376.58,326.86 C361.45,285.56 358.21,238.14 367.50,193.72 L 369.85 182.50 L 361.12 173.50 C353.41,165.56 311.29,121.59 299.06,108.72 L 294.51 103.93 L 461.50 104.25 C616.67,104.55 629.14,104.69 637.50,106.34 C694.05,117.51 736.21,158.77 748.49,215.00 C751.09,226.86 751.59,250.33 749.53,263.50 C740.96,318.38 700.45,363.21 647.19,376.76 C641.31,378.25 636.32,379.58 636.11,379.72 C635.89,379.85 641.34,385.93 648.22,393.23 C655.10,400.53 662.70,408.68 665.12,411.35 L 669.50 416.20 L 680.00 411.60 C700.45,402.63 721.27,387.83 737.80,370.51 C763.74,343.34 779.74,311.41 786.65,273.00 C789.10,259.42 789.09,230.19 786.64,215.50 C776.57,155.12 739.10,105.00 684.49,78.86 C642.88,58.95 592.29,55.89 548.00,70.60 C535.49,74.76 517.86,83.05 508.03,89.41 L 500.94 94.00 L 457.97 94.00 C434.34,94.00 415.00,93.71 415.00,93.36 C415.00,91.87 426.63,78.69 435.70,69.90 C454.11,52.05 473.88,38.03 496.63,26.66 C521.12,14.44 540.18,8.49 573.00,2.82 C584.82,0.79 627.67,1.11 641.96,3.34 C656.38,5.59 676.83,10.80 689.64,15.49 C703.74,20.65 727.81,32.77 739.69,40.70 C797.05,78.98 834.28,136.39 846.25,205.00 C849.24,222.15 849.47,263.72 846.68,280.33 C842.09,307.57 835.53,328.16 824.00,351.50 C801.58,396.87 767.91,432.41 724.00,457.04 C718.78,459.97 714.31,462.52 714.07,462.70 C713.83,462.88 715.07,464.51 716.82,466.31 L 720.00 469.60 ZM 441.00 323.79 L 443.02 327.08 L 533.76 326.77 C624.26,326.45 624.52,326.45 632.50,324.21 C661.49,316.08 682.64,296.27 692.28,268.19 C694.85,260.72 695.33,257.61 695.74,246.00 C696.14,234.65 695.89,231.11 694.14,223.79 C687.89,197.63 670.54,176.69 646.37,166.14 C630.60,159.26 637.22,159.64 524.61,159.26 L 422.71 158.92 L 430.78 167.71 C435.22,172.54 446.96,185.26 456.86,195.96 C466.76,206.66 474.64,215.77 474.37,216.21 C474.10,216.64 462.72,217.00 449.09,217.00 L 424.29 217.00 L 423.65 223.75 C422.55,235.42 422.98,259.09 424.48,269.69 C427.14,288.39 434.93,313.88 441.00,323.79 Z" fill="rgb(54,35,28)"/>
<path d="M 698.03 18.86 C704.96,21.71 711.84,24.92 718.74,28.51 C723.41,30.94 727.98,33.51 732.44,36.21 C722.45,30.36 708.98,23.57 698.03,18.86 ZM 566.12 4.05 C553.36,6.42 542.71,8.91 532.81,11.93 C534.41,11.43 536.00,10.95 537.61,10.48 C547.45,7.62 556.19,5.61 566.12,4.05 ZM 656.58 6.16 C664.61,7.83 672.41,9.87 680.09,12.32 C672.79,10.09 664.48,7.91 656.58,6.16 ZM 511.01 19.95 C506.33,21.97 501.60,24.19 496.63,26.66 C491.49,29.23 486.50,31.94 481.65,34.79 C491.10,29.19 500.91,24.23 511.01,19.95 Z" fill="rgb(117,109,106)"/>
<path d="M 441.00 323.79 C434.93,313.88 427.14,288.39 424.48,269.69 C422.98,259.09 422.55,235.42 423.65,223.75 L 424.29 217.00 L 449.09 217.00 C462.72,217.00 474.10,216.64 474.37,216.21 C474.64,215.77 466.76,206.66 456.86,195.96 C446.96,185.26 435.22,172.54 430.78,167.71 L 422.71 158.92 L 524.61 159.26 C637.22,159.64 630.60,159.26 646.37,166.14 C670.54,176.69 687.89,197.63 694.14,223.79 C695.89,231.11 696.14,234.65 695.74,246.00 C695.33,257.61 694.85,260.72 692.28,268.19 C682.64,296.27 661.49,316.08 632.50,324.21 C624.52,326.45 624.26,326.45 533.76,326.77 L 443.02 327.08 Z" fill="rgb(254,254,254)"/>
<path d="M 592.25 0.28 C593.76,0.05 596.24,0.05 597.75,0.28 C599.26,0.51 598.03,0.70 595.00,0.70 C591.97,0.70 590.74,0.51 592.25,0.28 ZM 613.26 0.28 C614.78,0.05 617.03,0.06 618.26,0.30 C619.49,0.53 618.25,0.72 615.50,0.71 C612.75,0.71 611.74,0.51 613.26,0.28 Z" fill="rgb(224,222,220)"/>
</g>
</svg>