<svg xmlns="http://www.w3.org/2000/svg" width="1143" height="917" viewBox="0 0 1143 917">
<g>
<path d="M 101.25 772.56 C99.74,772.90 98.05,773.29 97.50,773.43 C96.23,773.76 91.99,772.60 89.37,771.20 C88.26,770.61 81.31,759.71 73.93,746.98 C66.54,734.25 58.99,722.06 57.14,719.88 C51.08,712.75 42.96,710.23 25.00,709.89 L 15.50 709.71 L 14.97 771.00 L 1.00 771.00 L 1.00 626.00 L 30.43 626.00 C52.90,626.00 61.58,626.36 67.07,627.52 C89.41,632.21 102.00,646.60 102.00,667.41 C102.00,685.37 90.30,701.08 72.51,707.00 L 66.03 709.15 L 69.60 713.83 C73.92,719.48 104.00,769.37 104.00,770.89 C104.00,771.48 102.76,772.23 101.25,772.56 ZM 269.21 768.50 C268.45,771.43 268.28,771.51 261.42,771.79 C257.57,771.95 254.14,771.81 253.81,771.48 C252.39,770.06 268.19,714.54 276.04,693.38 C282.34,676.41 291.45,655.68 299.28,640.50 L 306.50 626.50 L 323.50 626.50 L 331.00 641.57 C346.43,672.58 358.54,705.13 369.39,744.79 C372.41,755.80 375.18,766.45 375.56,768.45 L 376.24 772.09 L 368.48 771.79 L 360.73 771.50 L 357.47 757.49 C355.68,749.78 353.38,740.33 352.35,736.49 L 350.48 729.50 L 314.79 729.24 L 279.10 728.97 L 278.04 732.74 C277.46,734.81 275.41,743.03 273.49,751.00 C271.57,758.97 269.64,766.85 269.21,768.50 ZM 868.45 769.75 C868.00,771.84 867.43,772.00 860.48,772.00 C853.99,772.00 853.00,771.77 853.00,770.23 C853.00,767.12 863.84,728.55 870.12,709.29 C877.57,686.47 886.18,665.62 897.44,643.11 L 906.01 626.00 L 922.63 626.00 L 930.23 641.25 C939.54,659.93 949.58,683.84 955.98,702.57 C963.59,724.84 976.31,770.35 975.23,771.43 C974.92,771.75 971.58,772.00 967.81,772.00 C967.49,772.00 967.19,772.00 966.90,772.00 C964.25,772.01 962.63,772.01 961.48,771.28 C959.56,770.06 958.95,766.78 957.00,758.00 C955.84,752.78 953.72,744.11 952.30,738.75 L 949.72 729.00 L 878.26 729.00 L 873.60 748.25 C871.03,758.84 868.71,768.51 868.45,769.75 ZM 223.71 770.95 C221.81,771.61 206.25,772.00 181.35,772.00 L 142.00 772.00 L 142.00 626.00 L 229.00 626.00 L 229.00 638.00 L 157.00 638.00 L 157.00 691.00 L 219.00 691.00 L 219.00 703.00 L 157.00 703.00 L 157.00 759.00 L 229.00 759.00 L 229.00 761.95 C229.00,766.46 227.04,769.79 223.71,770.95 ZM 698.00 759.02 L 698.00 772.00 L 649.17 772.00 C622.31,772.00 600.03,771.70 599.67,771.33 C599.30,770.97 599.00,768.30 599.00,765.41 C599.00,760.15 599.05,760.08 639.32,699.32 L 679.64 638.50 L 639.32 638.24 L 599.00 637.98 L 599.00 626.00 L 697.00 626.00 L 696.99 632.25 L 696.97 638.50 L 617.03 758.50 L 657.52 758.76 ZM 829.10 759.00 L 828.50 771.50 L 779.93 771.76 C753.21,771.90 731.05,771.71 730.68,771.34 C730.30,770.97 730.01,768.15 730.01,765.08 L 730.03 759.50 L 770.01 699.18 C792.01,666.01 810.00,638.67 810.00,638.43 C810.00,638.20 792.00,638.00 770.00,638.00 L 730.00 638.00 L 730.00 626.00 L 827.00 626.00 L 827.00 639.23 L 787.50 698.67 C765.78,731.36 748.00,758.31 748.00,758.55 C748.00,758.80 766.25,759.00 788.55,759.00 ZM 16.00 638.82 L 16.00 697.19 L 38.75 696.79 C59.69,696.41 61.97,696.20 67.45,694.04 C75.00,691.08 82.32,684.34 84.70,678.16 C85.88,675.10 86.47,671.05 86.40,666.38 C86.28,657.52 83.56,651.41 77.57,646.50 C69.89,640.21 67.22,639.69 40.25,639.23 ZM 1041.00 638.00 L 1041.00 772.00 L 1034.17 772.00 C1030.41,772.00 1027.03,771.70 1026.67,771.33 C1026.30,770.97 1026.00,740.82 1026.00,704.33 L 1026.00 638.00 L 981.00 638.00 L 981.00 626.00 L 1087.00 626.00 L 1087.00 630.00 C1087.00,632.67 1086.33,634.67 1085.00,636.00 C1083.13,637.87 1081.67,638.00 1062.00,638.00 ZM 492.80 765.25 L 492.50 771.50 L 450.43 771.76 C427.29,771.90 408.05,771.72 407.68,771.34 C407.30,770.97 407.00,738.12 407.00,698.33 L 407.00 626.00 L 422.00 626.00 L 422.00 759.00 L 493.10 759.00 ZM 882.73 716.40 C883.61,717.28 944.80,717.13 945.33,716.25 C945.89,715.29 939.56,696.60 934.07,683.00 C928.33,668.80 915.36,642.00 914.23,642.00 C913.08,642.00 898.50,672.16 893.14,685.62 C887.11,700.79 882.06,715.73 882.73,716.40 ZM 283.00 716.20 C283.00,716.64 297.17,717.00 314.50,717.00 C339.72,717.00 346.00,716.74 346.00,715.70 C346.00,713.78 339.87,696.06 335.03,684.00 C329.38,669.90 315.92,642.00 314.77,642.00 C313.63,642.00 299.49,671.24 293.90,685.17 C289.71,695.60 283.00,714.71 283.00,716.20 ZM 1143.00 626.00 L 1143.00 772.00 L 1128.00 772.00 L 1128.00 626.00 L 1143.00 626.00 ZM 550.01 626.00 L 549.50 771.50 L 535.00 772.09 L 535.00 626.00 ZM 429.53 907.77 C432.85,909.70 434.66,910.03 440.59,909.78 C446.48,909.53 448.29,909.02 451.21,906.79 C456.81,902.52 459.22,896.23 459.77,884.43 C460.74,863.73 454.26,854.00 439.50,854.00 C425.16,854.00 419.00,862.23 419.01,881.38 C419.01,896.62 421.64,903.19 429.53,907.77 ZM 296.16 902.00 L 295.50 915.50 L 292.09 915.83 L 288.68 916.15 L 289.31 902.33 C289.90,889.36 292.90,862.47 294.75,853.50 C295.54,849.69 295.78,849.49 299.66,849.20 L 303.74 848.90 L 308.32 859.34 C310.83,865.09 314.60,874.99 316.70,881.36 C318.79,887.72 320.74,892.94 321.04,892.96 C321.33,892.98 323.08,888.39 324.93,882.75 C326.77,877.11 330.52,867.19 333.26,860.70 L 338.23 848.90 L 342.37 849.20 L 346.50 849.50 L 348.17 859.06 C350.52,872.55 353.00,897.47 353.00,907.57 L 353.00 916.13 L 346.50 915.50 L 345.83 901.50 C345.47,893.80 344.46,882.02 343.58,875.33 C342.71,868.64 342.00,862.45 342.00,861.58 C342.00,860.71 341.58,860.00 341.07,860.00 C339.84,860.00 335.36,871.82 328.84,892.29 C323.80,908.12 323.37,909.05 321.12,908.79 C318.97,908.53 318.03,906.40 311.09,886.00 C303.29,863.05 302.47,861.00 301.10,861.00 C299.97,861.00 296.93,886.26 296.16,902.00 ZM 666.43 914.43 C665.12,915.74 661.91,916.00 647.10,916.00 C637.33,916.00 629.03,915.70 628.67,915.33 C628.30,914.97 628.00,899.89 628.00,881.83 L 628.00 849.00 L 668.00 849.00 L 668.00 854.00 L 634.94 854.00 L 635.22 866.25 L 635.50 878.50 L 649.25 878.78 L 663.00 879.06 L 663.00 884.00 L 635.00 884.00 L 635.00 910.00 L 651.50 910.00 C665.13,910.00 668.00,910.25 668.00,911.43 C668.00,912.21 667.29,913.56 666.43,914.43 ZM 552.36 905.25 C547.48,915.01 546.73,916.00 544.24,915.98 C542.73,915.98 540.99,915.64 540.38,915.23 C538.79,914.20 530.98,898.28 526.51,887.00 C523.38,879.09 516.00,853.04 516.00,849.91 C516.00,849.41 517.54,849.00 519.43,849.00 L 519.55 849.00 C520.77,849.00 521.58,849.00 522.19,849.35 C523.40,850.06 523.80,852.17 525.03,858.50 C526.93,868.28 532.89,885.78 538.04,896.75 C540.69,902.39 543.15,907.00 543.50,907.00 C543.85,907.00 546.31,902.39 548.96,896.75 C554.11,885.78 560.07,868.28 561.97,858.50 C563.20,852.18 563.59,850.07 564.81,849.36 C565.42,849.00 566.24,849.00 567.48,849.00 L 567.61 849.00 C571.08,849.00 571.09,849.01 570.42,852.75 C567.58,868.57 560.69,888.61 552.36,905.25 ZM 740.03 849.00 L 739.50 915.50 L 736.96 915.80 C735.57,915.96 734.10,915.77 733.71,915.38 C733.32,914.99 733.00,899.89 733.00,881.83 L 733.00 849.00 ZM 444.90 838.12 C440.42,843.17 438.13,845.00 436.29,845.00 C433.15,845.00 433.56,843.76 439.28,835.88 C443.11,830.59 443.84,830.06 447.25,830.03 C449.31,830.01 451.00,830.28 451.00,830.62 C451.00,830.96 448.25,834.33 444.90,838.12 Z" fill="rgb(53,35,28)"/>
<path d="M 0.00 625.50 L 25.75 625.20 C57.53,624.83 72.21,626.57 83.11,633.45 C78.53,630.80 73.16,628.80 67.07,627.52 C61.58,626.36 52.90,626.00 30.43,626.00 L 1.00 626.00 L 1.00 771.00 L 14.97 771.00 L 15.50 709.71 L 25.00 709.89 C27.41,709.94 29.65,710.02 31.73,710.15 C29.73,710.05 27.60,710.00 25.32,710.00 L 16.00 710.00 L 16.00 772.00 L 0.00 772.00 L 0.00 625.50 ZM 94.89 643.89 C97.57,646.96 98.57,649.10 99.90,653.40 C101.17,657.52 101.85,661.64 101.97,665.66 C101.68,657.21 99.25,649.88 94.89,643.89 ZM 86.22 767.04 C83.43,763.21 79.76,757.03 73.99,747.09 C78.73,755.25 83.28,762.64 86.22,767.04 ZM 95.36 689.67 C90.28,697.50 82.46,703.69 72.52,706.99 C82.27,703.75 90.19,697.56 95.36,689.67 ZM 101.25 772.56 C102.63,772.26 103.79,771.60 103.97,771.04 C103.72,771.99 101.73,772.78 98.99,773.07 C99.68,772.91 100.49,772.73 101.25,772.56 ZM 90.83 771.89 C92.03,772.40 93.36,772.83 94.54,773.12 C93.19,772.99 92.03,772.66 90.83,771.89 ZM 104.00 770.87 C103.91,769.96 96.15,756.71 87.96,743.15 C96.19,756.77 104.00,770.08 104.00,770.84 C104.00,770.85 104.00,770.86 104.00,770.87 Z" fill="rgb(155,145,142)"/>
<path d="M 436.66 315.25 L 441.19 326.00 L 531.64 326.00 L 536.91 326.00 C615.80,326.00 627.66,326.00 638.21,322.29 C640.31,321.56 642.35,320.67 644.87,319.62 C668.22,309.77 686.02,289.40 693.22,264.29 C695.05,257.87 695.45,254.03 695.43,242.50 C695.41,226.08 694.09,220.07 687.48,206.39 C677.09,184.83 658.47,169.07 634.82,161.79 C627.51,159.55 627.39,159.54 542.50,159.24 C495.75,159.08 449.65,159.07 440.05,159.22 L 422.59 159.50 L 448.82 187.75 C465.96,206.21 474.43,216.02 473.27,216.06 C472.30,216.10 460.94,216.21 448.04,216.31 L 424.59 216.50 L 423.72 220.00 C423.24,221.93 422.82,232.50 422.77,243.50 C422.70,259.79 423.08,265.63 424.79,275.00 C427.55,290.03 431.08,302.02 436.66,315.25 Z" fill="rgb(203,170,133)"/>
<path d="M 296.16 902.00 C296.93,886.26 299.97,861.00 301.10,861.00 C302.47,861.00 303.29,863.05 311.09,886.00 C318.03,906.40 318.97,908.53 321.12,908.79 C323.37,909.05 323.80,908.12 328.84,892.29 C335.36,871.82 339.84,860.00 341.07,860.00 C341.58,860.00 342.00,860.71 342.00,861.58 C342.00,862.45 342.71,868.64 343.58,875.33 C344.46,882.02 345.47,893.80 345.83,901.50 L 346.50 915.50 L 349.75 915.81 L 353.00 916.13 L 353.00 907.57 C353.00,897.47 350.52,872.55 348.17,859.06 L 346.50 849.50 L 342.37 849.20 L 338.23 848.90 L 333.26 860.70 C330.52,867.19 326.77,877.11 324.93,882.75 C323.08,888.39 321.33,892.98 321.04,892.96 C320.74,892.94 318.79,887.72 316.70,881.36 C314.60,874.99 310.83,865.09 308.32,859.34 L 303.74 848.90 L 299.66 849.20 C295.78,849.49 295.54,849.69 294.75,853.50 C292.90,862.47 289.90,889.36 289.31,902.33 L 288.68 916.15 L 292.09 915.83 L 295.50 915.50 L 296.16 902.00 ZM 552.36 905.25 C560.69,888.61 567.58,868.57 570.42,852.75 C571.09,849.01 571.08,849.00 567.61,849.00 C563.77,849.00 563.84,848.89 561.97,858.50 C560.07,868.28 554.11,885.78 548.96,896.75 C546.31,902.39 543.85,907.00 543.50,907.00 C543.15,907.00 540.69,902.39 538.04,896.75 C532.89,885.78 526.93,868.28 525.03,858.50 C523.16,848.90 523.22,849.00 519.43,849.00 C517.54,849.00 516.00,849.41 516.00,849.91 C516.00,853.04 523.38,879.09 526.51,887.00 C530.98,898.28 538.79,914.20 540.38,915.23 C540.99,915.64 542.73,915.98 544.24,915.98 C546.73,916.00 547.48,915.01 552.36,905.25 ZM 666.43 914.43 C667.29,913.56 668.00,912.21 668.00,911.43 C668.00,910.25 665.13,910.00 651.50,910.00 L 635.00 910.00 L 635.00 897.00 L 635.00 884.00 L 649.00 884.00 L 663.00 884.00 L 663.00 881.53 L 663.00 879.06 L 649.25 878.78 L 635.50 878.50 L 635.22 866.25 L 634.94 854.00 L 651.47 854.00 L 668.00 854.00 L 668.00 851.50 L 668.00 849.00 L 648.00 849.00 L 628.00 849.00 L 628.00 881.83 C628.00,899.89 628.30,914.97 628.67,915.33 C629.03,915.70 637.33,916.00 647.10,916.00 C661.91,916.00 665.12,915.74 666.43,914.43 ZM 739.76 882.25 L 740.03 849.00 L 736.51 849.00 L 733.00 849.00 L 733.00 881.83 C733.00,899.89 733.32,914.99 733.71,915.38 C734.10,915.77 735.57,915.96 736.96,915.80 L 739.50 915.50 L 739.76 882.25 ZM 444.90 838.12 C448.25,834.33 451.00,830.96 451.00,830.62 C451.00,830.28 449.31,830.01 447.25,830.03 C443.84,830.06 443.11,830.59 439.28,835.88 C433.56,843.76 433.15,845.00 436.29,845.00 C438.13,845.00 440.42,843.17 444.90,838.12 ZM 223.71 770.95 C227.04,769.79 229.00,766.46 229.00,761.95 L 229.00 759.00 L 193.00 759.00 L 157.00 759.00 L 157.00 731.00 L 157.00 703.00 L 188.00 703.00 L 219.00 703.00 L 219.00 697.00 L 219.00 691.00 L 188.00 691.00 L 157.00 691.00 L 157.00 664.50 L 157.00 638.00 L 193.00 638.00 L 229.00 638.00 L 229.00 632.00 L 229.00 626.00 L 185.50 626.00 L 142.00 626.00 L 142.00 699.00 L 142.00 772.00 L 181.35 772.00 C206.25,772.00 221.81,771.61 223.71,770.95 ZM 269.21 768.50 C269.64,766.85 271.57,758.97 273.49,751.00 C275.41,743.03 277.46,734.81 278.04,732.74 L 279.10 728.97 L 314.79 729.24 L 350.48 729.50 L 352.35 736.49 C353.38,740.33 355.68,749.78 357.47,757.49 L 360.73 771.50 L 368.48 771.79 L 376.24 772.09 L 375.56 768.45 C375.18,766.45 372.41,755.80 369.39,744.79 C358.54,705.13 346.43,672.58 331.00,641.57 L 323.50 626.50 L 315.00 626.50 L 306.50 626.50 L 299.28 640.50 C291.45,655.68 282.34,676.41 276.04,693.38 C268.19,714.54 252.39,770.06 253.81,771.48 C254.14,771.81 257.57,771.95 261.42,771.79 C268.28,771.51 268.45,771.43 269.21,768.50 ZM 492.80 765.25 L 493.10 759.00 L 457.55 759.00 L 422.00 759.00 L 422.00 692.50 L 422.00 626.00 L 414.50 626.00 L 407.00 626.00 L 407.00 698.33 C407.00,738.12 407.30,770.97 407.68,771.34 C408.05,771.72 427.29,771.90 450.43,771.76 L 492.50 771.50 L 492.80 765.25 ZM 549.76 698.75 L 550.01 626.00 L 542.51 626.00 L 535.00 626.00 L 535.00 699.04 L 535.00 772.09 L 542.25 771.79 L 549.50 771.50 L 549.76 698.75 ZM 698.00 765.51 L 698.00 759.02 L 657.52 758.76 L 617.03 758.50 L 657.00 698.50 L 696.97 638.50 L 696.99 632.25 L 697.00 626.00 L 648.00 626.00 L 599.00 626.00 L 599.00 631.99 L 599.00 637.98 L 639.32 638.24 L 679.64 638.50 L 639.32 699.32 C599.05,760.08 599.00,760.15 599.00,765.41 C599.00,768.30 599.30,770.97 599.67,771.33 C600.03,771.70 622.31,772.00 649.17,772.00 L 698.00 772.00 L 698.00 765.51 ZM 828.80 765.25 L 829.10 759.00 L 788.55 759.00 C766.25,759.00 748.00,758.80 748.00,758.55 C748.00,758.31 765.78,731.36 787.50,698.67 L 827.00 639.23 L 827.00 632.62 L 827.00 626.00 L 778.50 626.00 L 730.00 626.00 L 730.00 632.00 L 730.00 638.00 L 770.00 638.00 C792.00,638.00 810.00,638.20 810.00,638.43 C810.00,638.67 792.01,666.01 770.01,699.18 L 730.03 759.50 L 730.01 765.08 C730.01,768.15 730.30,770.97 730.68,771.34 C731.05,771.71 753.21,771.90 779.93,771.76 L 828.50 771.50 L 828.80 765.25 ZM 868.45 769.75 C868.71,768.51 871.03,758.84 873.60,748.25 L 878.26 729.00 L 913.99 729.00 L 949.72 729.00 L 952.30 738.75 C953.72,744.11 955.84,752.78 957.00,758.00 C960.24,772.60 959.78,772.00 967.81,772.00 C971.58,772.00 974.92,771.75 975.23,771.43 C976.31,770.35 963.59,724.84 955.98,702.57 C949.58,683.84 939.54,659.93 930.23,641.25 L 922.63 626.00 L 914.32 626.00 L 906.01 626.00 L 897.44 643.11 C886.18,665.62 877.57,686.47 870.12,709.29 C863.84,728.55 853.00,767.12 853.00,770.23 C853.00,771.77 853.99,772.00 860.48,772.00 C867.43,772.00 868.00,771.84 868.45,769.75 ZM 1041.00 705.00 L 1041.00 638.00 L 1062.00 638.00 C1081.67,638.00 1083.13,637.87 1085.00,636.00 C1086.33,634.67 1087.00,632.67 1087.00,630.00 L 1087.00 626.00 L 1034.00 626.00 L 981.00 626.00 L 981.00 632.00 L 981.00 638.00 L 1003.50 638.00 L 1026.00 638.00 L 1026.00 704.33 C1026.00,740.82 1026.30,770.97 1026.67,771.33 C1027.03,771.70 1030.41,772.00 1034.17,772.00 L 1041.00 772.00 L 1041.00 705.00 ZM 429.53 907.77 C421.64,903.19 419.01,896.62 419.01,881.38 C419.00,862.23 425.16,854.00 439.50,854.00 C454.26,854.00 460.74,863.73 459.77,884.43 C459.22,896.23 456.81,902.52 451.21,906.79 C448.29,909.02 446.48,909.53 440.59,909.78 C434.66,910.03 432.85,909.70 429.53,907.77 ZM 16.00 668.00 L 16.00 638.82 L 40.25 639.23 C67.22,639.69 69.89,640.21 77.57,646.50 C83.56,651.41 86.28,657.52 86.40,666.38 C86.47,671.05 85.88,675.10 84.70,678.16 C82.32,684.34 75.00,691.08 67.45,694.04 C61.97,696.20 59.69,696.41 38.75,696.79 L 16.00 697.19 L 16.00 668.00 ZM 436.66 315.25 C431.08,302.02 427.55,290.03 424.79,275.00 C423.08,265.63 422.70,259.79 422.77,243.50 C422.82,232.50 423.24,221.93 423.72,220.00 L 424.59 216.50 L 448.04 216.31 C460.94,216.21 472.30,216.10 473.27,216.06 C474.43,216.02 465.96,206.21 448.82,187.75 L 422.59 159.50 L 440.05 159.22 C449.65,159.07 495.75,159.08 542.50,159.24 C627.39,159.54 627.51,159.55 634.82,161.79 C658.47,169.07 677.09,184.83 687.48,206.39 C694.09,220.07 695.41,226.08 695.43,242.50 C695.45,254.03 695.05,257.87 693.22,264.29 C686.02,289.40 668.22,309.77 644.87,319.62 C629.45,326.12 631.55,326.00 531.64,326.00 L 441.19 326.00 L 436.66 315.25 ZM 283.00 716.20 C283.00,714.71 289.71,695.60 293.90,685.17 C299.49,671.24 313.63,642.00 314.77,642.00 C315.92,642.00 329.38,669.90 335.03,684.00 C339.87,696.06 346.00,713.78 346.00,715.70 C346.00,716.74 339.72,717.00 314.50,717.00 C297.17,717.00 283.00,716.64 283.00,716.20 ZM 882.73 716.40 C882.06,715.73 887.11,700.79 893.14,685.62 C898.50,672.16 913.08,642.00 914.23,642.00 C915.36,642.00 928.33,668.80 934.07,683.00 C939.56,696.60 945.89,715.29 945.33,716.25 C944.80,717.13 883.61,717.28 882.73,716.40 Z" fill="rgb(254,254,254)"/>
</g>
</svg>