<svg xmlns="http://www.w3.org/2000/svg" width="1842" height="569" viewBox="0 0 1842 569">
<g>
<path d="M 149.60 329.95 L 153.30 338.06 L 249.40 337.78 L 345.50 337.50 L 354.50 334.69 C392.33,322.89 417.00,289.81 417.00,250.87 C417.00,217.65 398.67,188.43 368.50,173.56 C364.62,171.64 361.87,170.14 359.00,168.95 C348.43,164.60 336.08,164.57 258.94,164.33 C252.66,164.31 245.94,164.29 238.75,164.27 C181.14,164.07 134.00,164.27 134.01,164.71 C134.02,165.14 146.11,178.55 160.90,194.50 L 187.77 223.50 L 161.51 223.77 L 135.26 224.03 L 134.62 227.77 C134.27,229.82 133.70,237.80 133.36,245.50 C132.10,274.02 137.95,304.46 149.60,329.95 Z" fill="rgb(203,170,132)"/>
<path d="M 299.45 0.89 C291.82,0.56 245.14,0.26 184.02,0.15 C263.40,0.23 293.26,0.39 299.45,0.89 ZM 183.22 42.47 C198.17,32.51 214.15,24.21 230.96,17.68 C225.41,19.89 219.84,22.35 214.16,25.07 C203.16,30.33 192.90,36.09 183.22,42.47 ZM 342.78 0.61 C344.31,0.92 348.15,1.46 352.50,1.96 C356.86,2.46 361.17,3.06 365.43,3.76 C361.13,3.08 356.82,2.52 352.50,2.09 C346.45,1.48 340.15,0.83 338.50,0.64 C338.50,0.64 338.49,0.64 338.49,0.64 C338.49,0.63 339.95,0.62 342.78,0.61 ZM 392.52 9.76 C419.03,17.22 443.81,29.07 467.50,45.54 C476.12,51.54 484.35,58.09 492.13,65.13 C463.47,39.33 428.98,20.14 392.52,9.76 ZM 557.04 157.81 C561.24,168.12 564.75,178.71 567.52,189.50 C570.31,200.39 572.23,209.95 573.46,219.71 C573.35,218.83 573.23,217.97 573.10,217.14 C569.93,196.21 564.60,176.49 557.04,157.81 ZM 294.03 2.03 C296.86,1.62 299.27,1.25 300.48,1.01 C301.19,1.15 300.37,1.32 298.50,1.52 C297.00,1.69 295.51,1.85 294.03,2.03 ZM 574.58 276.54 C574.34,279.70 574.02,282.57 573.63,285.26 C574.01,282.64 574.33,279.70 574.58,276.54 ZM 283.94 3.41 C284.26,3.36 284.57,3.31 284.86,3.27 C284.55,3.31 284.25,3.36 283.94,3.41 Z" fill="rgb(219,206,184)"/>
<path d="M 344.56 331.38 L 340.83 335.00 L 249.49 335.00 C245.23,335.00 241.17,335.00 237.29,335.00 C166.60,335.01 156.20,335.01 155.30,332.09 C155.15,331.59 155.27,331.00 155.42,330.30 C155.47,330.08 155.52,329.85 155.57,329.61 C155.88,327.89 155.31,326.78 153.53,325.61 C150.54,323.65 149.03,320.99 148.49,316.72 C148.27,314.95 147.78,311.02 147.41,308.00 C147.05,304.98 146.19,301.38 145.51,300.00 C144.83,298.62 144.48,296.94 144.72,296.25 C144.98,295.53 144.35,295.00 143.25,295.00 C140.92,295.00 139.49,290.86 139.11,283.00 C138.96,279.98 138.49,275.66 138.08,273.42 C137.66,271.17 137.73,266.00 138.22,261.92 C138.71,257.84 138.88,251.12 138.59,247.00 C138.03,239.15 137.98,234.20 138.41,230.00 L 138.66 227.50 L 164.03 227.23 C182.80,227.03 189.61,226.64 190.19,225.73 C191.77,223.24 190.91,220.74 187.07,216.67 C184.91,214.38 181.73,210.82 179.99,208.78 C178.26,206.73 176.32,205.15 175.69,205.28 C175.06,205.40 174.39,204.49 174.20,203.25 C174.02,202.01 173.47,201.00 172.98,201.00 C171.45,201.00 166.01,194.58 166.00,192.76 C166.00,191.81 164.26,189.93 162.14,188.59 C157.70,185.79 153.60,178.84 154.57,175.77 C155.14,173.99 154.86,173.79 152.28,174.17 C149.12,174.64 147.64,173.60 146.55,170.16 L 145.86 167.98 L 237.68 168.29 C288.18,168.46 330.85,168.91 332.50,169.30 C334.15,169.68 337.42,170.26 339.76,170.60 C342.10,170.94 344.26,171.61 344.57,172.11 C345.31,173.32 349.73,173.24 350.50,172.00 C350.89,171.38 352.18,171.56 354.01,172.50 C355.60,173.33 358.24,174.00 359.87,174.00 C363.11,174.00 369.00,178.25 369.00,180.59 C369.00,181.37 369.45,182.00 370.00,182.00 C370.55,182.00 371.00,181.56 371.00,181.02 C371.00,179.92 378.08,182.92 379.23,184.50 C379.63,185.05 379.69,186.35 379.37,187.39 C378.87,188.98 379.16,189.18 381.23,188.66 C383.95,187.97 386.72,190.38 388.78,195.22 C389.41,196.72 391.02,198.22 392.35,198.55 C393.87,198.93 395.72,200.89 397.34,203.83 C398.76,206.40 401.06,209.81 402.46,211.41 C403.86,213.00 405.00,215.27 405.00,216.43 C405.00,217.60 405.71,219.56 406.57,220.80 C407.64,222.32 408.04,224.70 407.82,228.27 C407.52,233.14 407.65,233.48 409.67,233.20 C412.77,232.77 413.19,234.99 413.20,252.11 C413.21,267.65 412.59,270.23 409.08,269.31 C407.46,268.89 407.25,269.40 407.38,273.41 C407.47,275.94 407.19,278.00 406.77,278.00 C406.35,278.00 406.00,279.10 406.00,280.44 C406.00,281.78 405.55,283.16 405.00,283.50 C404.45,283.84 404.00,285.61 404.00,287.44 C404.00,291.11 401.87,293.55 399.47,292.63 C397.94,292.04 395.73,295.64 396.66,297.22 C397.72,299.03 386.97,313.00 384.52,313.00 C384.16,313.00 382.39,314.12 380.59,315.50 C378.79,316.88 376.59,318.00 375.71,318.00 C374.83,318.00 373.53,318.81 372.81,319.80 C372.09,320.79 370.39,322.37 369.03,323.30 C367.67,324.24 366.99,325.01 367.53,325.02 C369.63,325.05 365.36,326.97 363.15,326.98 C361.86,326.99 359.38,327.63 357.65,328.40 C352.47,330.70 350.07,330.95 349.14,329.29 C348.43,328.02 347.64,328.38 344.56,331.38 ZM 400.22 422.04 C399.27,422.07 396.85,422.68 394.83,423.40 C390.82,424.83 390.12,424.60 388.27,421.29 C387.25,419.46 387.30,418.93 388.55,418.23 C389.86,417.50 389.78,417.11 387.98,415.48 C386.31,413.97 385.71,413.85 385.06,414.90 C383.94,416.72 379.39,413.71 378.62,410.62 C378.30,409.37 377.02,407.80 375.77,407.13 C368.29,403.15 366.47,401.65 364.63,397.95 C362.84,394.38 363.38,393.88 368.15,394.64 C371.21,395.13 372.00,394.94 372.00,393.72 C372.00,391.74 379.96,389.00 385.71,389.00 C388.39,389.00 390.26,388.49 390.57,387.68 C390.89,386.86 392.16,386.52 393.96,386.78 C396.49,387.15 396.89,386.86 397.17,384.44 C397.35,382.92 398.17,381.54 399.00,381.38 C399.83,381.21 402.44,380.60 404.81,380.02 C407.19,379.44 409.61,379.26 410.21,379.63 C410.93,380.08 411.08,379.47 410.67,377.81 C410.16,375.79 410.55,375.05 412.76,373.91 C415.71,372.38 417.00,371.41 423.69,365.75 C426.13,363.69 428.54,362.00 429.06,362.00 C429.58,362.00 430.00,361.36 430.00,360.57 C430.00,358.67 437.15,352.84 438.74,353.46 C439.43,353.72 440.00,353.30 440.00,352.52 C440.00,349.70 442.36,346.00 444.16,346.00 C445.17,346.00 446.00,345.66 446.00,345.24 C446.00,344.82 447.01,344.03 448.25,343.49 C449.72,342.84 450.61,341.46 450.83,339.50 C451.01,337.85 452.12,335.47 453.29,334.21 C454.46,332.96 456.38,329.66 457.55,326.89 C458.79,323.94 460.68,321.35 462.09,320.64 C465.24,319.08 468.30,312.53 467.73,308.58 C467.48,306.89 467.71,304.26 468.24,302.73 C469.23,299.89 472.37,297.50 473.88,298.43 C474.35,298.72 474.73,297.16 474.73,294.97 C474.73,292.79 474.31,291.00 473.80,291.00 C473.30,291.00 473.14,290.59 473.45,290.09 C475.74,286.37 477.40,240.75 475.81,225.11 C475.24,219.44 474.29,215.15 473.43,214.29 C472.64,213.50 472.00,211.35 472.00,209.50 C472.00,207.65 471.43,205.55 470.74,204.82 C468.75,202.73 467.00,198.17 467.00,195.04 C467.00,193.46 466.45,191.98 465.78,191.76 C465.06,191.52 464.52,189.34 464.47,186.43 C464.39,182.41 464.05,181.51 462.59,181.50 C461.53,181.50 459.82,179.73 458.36,177.14 C456.10,173.12 456.04,172.69 457.59,171.56 C460.26,169.60 457.49,164.86 453.00,163.73 C448.84,162.68 441.40,155.09 440.50,150.98 C440.10,149.19 438.88,147.78 437.06,147.02 C433.90,145.71 430.20,141.91 430.68,140.45 C430.85,139.93 428.85,138.82 426.24,138.00 C423.63,137.18 421.44,135.94 421.38,135.25 C421.31,134.56 421.19,133.30 421.12,132.45 C421.01,130.98 415.85,128.24 411.71,127.44 C410.66,127.24 408.36,125.54 406.58,123.65 C404.24,121.18 402.92,120.46 401.82,121.08 C400.16,122.01 391.00,116.88 391.00,115.02 C391.00,114.46 390.19,114.00 389.20,114.00 C388.21,114.00 386.97,113.57 386.43,113.03 C385.90,112.50 383.90,112.00 381.98,111.93 C375.06,111.65 369.03,109.70 367.39,107.19 C365.96,105.01 365.33,104.83 361.02,105.40 C357.13,105.92 356.11,105.73 355.61,104.42 C355.11,103.12 354.12,102.92 350.74,103.42 C348.41,103.76 345.38,104.00 344.00,103.94 C338.80,103.73 337.39,103.69 333.50,103.70 C282.93,103.76 129.99,102.31 129.99,101.78 C129.99,101.78 130.00,101.77 130.00,101.77 C130.82,101.37 150.92,100.92 174.65,100.77 C214.11,100.52 217.96,100.35 219.72,98.75 C220.79,97.79 222.11,97.00 222.67,97.00 C223.23,97.00 224.50,96.10 225.50,95.00 C226.50,93.90 228.01,93.00 228.86,93.00 C229.71,93.00 231.87,91.58 233.67,89.84 C236.18,87.40 237.75,86.70 240.47,86.81 C242.41,86.88 244.00,86.60 244.00,86.19 C244.00,85.77 245.24,85.34 246.75,85.22 C249.35,85.01 250.11,84.39 252.50,80.58 C253.11,79.60 255.36,78.81 258.26,78.55 C260.88,78.32 263.71,77.43 264.57,76.58 C265.96,75.18 266.35,75.18 268.56,76.63 C269.90,77.51 271.00,77.82 271.00,77.33 C271.00,76.83 272.24,76.44 273.75,76.46 C275.98,76.49 276.45,76.10 276.21,74.39 C275.76,71.11 279.70,70.02 298.00,68.35 C301.58,68.03 304.76,67.34 305.09,66.83 C305.41,66.32 306.25,66.60 306.96,67.45 C308.59,69.42 312.61,69.46 313.36,67.52 C313.67,66.70 314.58,66.29 315.38,66.59 C316.19,66.90 317.81,66.64 318.99,66.01 C320.42,65.24 321.53,65.19 322.32,65.85 C322.98,66.40 328.47,67.05 334.51,67.31 C343.80,67.70 360.32,69.75 368.75,71.56 C370.16,71.86 371.00,72.77 371.00,74.02 C371.00,76.19 373.04,76.59 376.02,74.99 C377.49,74.20 378.33,74.44 379.85,76.07 C380.92,77.22 382.63,78.03 383.65,77.86 C386.98,77.33 395.03,80.23 396.93,82.64 C397.95,83.94 399.46,85.00 400.28,85.00 C401.10,85.00 403.06,85.67 404.64,86.49 C406.21,87.32 408.50,87.99 409.71,87.99 C412.11,88.00 414.47,91.32 413.64,93.50 C413.05,95.02 415.01,96.00 418.65,96.00 C422.22,96.00 425.00,97.76 425.00,100.04 C425.00,101.12 425.34,101.91 425.75,101.80 C427.11,101.44 431.00,103.12 431.00,104.07 C431.00,104.58 432.39,105.00 434.09,105.00 C436.45,105.00 438.29,106.12 441.87,109.75 C444.46,112.36 447.57,115.16 448.78,115.97 C450.00,116.78 451.00,118.24 451.00,119.22 C451.00,120.20 451.72,121.00 452.59,121.00 C454.30,121.00 457.91,124.78 457.97,126.63 C457.99,127.26 458.84,127.99 459.88,128.26 C461.55,128.70 465.67,133.46 471.47,141.68 C472.56,143.21 473.58,145.38 473.74,146.49 C474.25,150.08 474.84,150.88 478.99,153.49 C481.24,154.91 482.79,156.53 482.45,157.08 C482.11,157.63 482.26,158.63 482.80,159.29 C484.36,161.23 485.32,167.00 484.08,167.00 C481.94,167.00 483.05,169.00 485.25,169.10 C487.39,169.19 487.38,169.23 485.01,169.89 C481.77,170.79 483.98,172.29 487.32,171.46 C489.40,170.93 489.93,171.37 491.21,174.68 C492.03,176.78 492.61,180.98 492.50,184.00 C492.27,190.28 493.33,192.43 495.95,191.03 C497.97,189.94 500.00,191.47 500.00,194.07 C500.00,195.00 500.65,197.59 501.45,199.85 C502.32,202.32 502.52,204.18 501.95,204.53 C500.68,205.31 500.73,211.00 502.00,211.00 C502.55,211.00 503.00,212.35 503.00,214.00 C503.00,215.65 503.44,217.00 503.97,217.00 C504.51,217.00 505.73,218.46 506.69,220.25 C508.21,223.09 508.45,226.75 508.51,249.00 C508.60,278.74 508.14,283.66 505.01,286.19 C503.78,287.19 503.17,288.01 503.64,288.03 C504.11,288.05 503.70,288.67 502.72,289.42 C501.25,290.53 501.13,291.19 502.05,293.20 C502.90,295.08 502.79,297.00 501.54,301.57 C500.66,304.83 499.79,309.17 499.61,311.21 C499.43,313.25 498.55,316.04 497.64,317.42 C493.26,324.11 490.94,329.22 491.49,330.96 C491.88,332.20 491.09,333.97 489.18,336.17 C485.78,340.08 482.71,345.52 482.00,348.89 C481.73,350.21 480.61,351.78 479.52,352.39 C476.58,354.04 475.02,356.30 475.57,358.12 C476.03,359.68 471.43,363.72 469.75,363.22 C469.34,363.10 469.00,363.79 469.00,364.75 C469.00,366.52 464.00,371.07 460.73,372.29 C459.76,372.66 458.68,374.37 458.33,376.10 C457.90,378.23 456.63,379.87 454.39,381.19 C452.58,382.27 450.81,384.03 450.47,385.10 C450.13,386.18 448.21,387.83 446.20,388.78 C444.20,389.73 442.00,391.62 441.31,393.00 C438.96,397.74 437.62,399.02 435.66,398.39 C434.34,397.97 433.90,398.20 434.22,399.15 C434.72,400.65 428.37,405.93 426.00,405.97 C425.17,405.99 422.87,407.74 420.87,409.86 C417.40,413.55 411.87,415.86 411.17,413.92 C410.64,412.48 409.00,412.84 409.00,414.40 C409.00,416.24 402.40,421.99 400.22,422.04 ZM 0.00 0.00 L 155.25 0.12 C165.49,0.13 175.07,0.14 184.02,0.15 C217.96,0.21 247.45,0.33 268.28,0.48 C266.81,0.60 266.00,0.75 266.00,0.92 C266.00,1.43 264.54,2.15 262.75,2.53 C260.96,2.91 258.09,4.07 256.37,5.11 C254.10,6.49 251.14,7.05 245.62,7.16 C241.43,7.24 238.00,7.71 238.00,8.20 C238.00,8.70 236.54,9.76 234.75,10.56 C232.96,11.36 230.38,12.90 229.00,13.97 C227.62,15.04 224.48,16.13 222.00,16.38 C219.52,16.64 217.50,16.92 217.50,17.00 C217.50,17.08 215.48,17.38 213.01,17.65 C207.37,18.27 205.68,19.54 207.06,22.11 C207.73,23.37 207.74,24.00 207.06,24.00 C206.51,24.00 203.59,25.13 200.57,26.51 C197.55,27.89 194.51,28.91 193.82,28.76 C193.14,28.62 192.11,29.51 191.55,30.75 C190.89,32.21 189.29,33.23 187.01,33.65 C183.48,34.31 180.00,37.23 180.00,39.55 C180.00,41.07 177.49,42.13 175.59,41.40 C174.74,41.07 171.61,43.46 167.68,47.43 C164.10,51.04 160.67,54.00 160.05,54.00 C159.42,54.00 157.92,54.94 156.71,56.09 C155.49,57.23 152.81,59.04 150.75,60.11 C148.69,61.17 147.00,62.68 147.00,63.46 C147.00,65.64 136.31,76.71 133.53,77.40 C131.90,77.81 130.46,79.42 129.20,82.26 C128.17,84.59 126.12,87.39 124.66,88.49 C123.20,89.58 122.00,91.19 122.00,92.07 C122.00,92.95 121.70,93.96 121.34,94.33 C120.19,95.48 119.97,101.00 121.07,101.00 C121.65,101.00 121.84,101.45 121.50,102.00 C121.10,102.65 99.66,103.00 60.44,103.00 L 0.00 103.00 ZM 748.91 284.87 C753.20,287.36 761.14,287.74 762.97,285.53 C764.61,283.56 761.92,276.45 757.87,272.01 C756.24,270.23 752.89,264.77 750.43,259.87 C747.97,254.97 745.14,250.14 744.13,249.13 C743.12,248.12 740.32,243.59 737.90,239.05 C735.49,234.51 731.79,228.94 729.68,226.66 L 725.86 222.52 L 728.35 220.38 C729.72,219.20 734.02,217.02 737.92,215.53 C741.81,214.04 745.00,212.48 745.00,212.06 C745.00,211.63 747.31,208.98 750.12,206.16 C752.94,203.35 756.76,198.02 758.62,194.33 C761.83,187.96 762.00,187.07 762.00,177.00 C762.00,166.87 761.84,166.07 758.51,159.45 C753.09,148.67 738.93,137.07 731.05,136.96 C729.65,136.95 727.38,136.29 726.00,135.50 C722.64,133.58 659.10,133.30 657.20,135.20 C655.46,136.94 655.46,282.06 657.20,283.80 C658.78,285.38 671.22,285.38 672.80,283.80 C673.68,282.92 674.00,274.80 674.00,253.50 C674.00,232.20 674.32,224.08 675.20,223.20 C675.98,222.42 680.08,222.00 686.95,222.00 C695.62,222.00 698.87,222.46 705.25,224.58 C712.88,227.13 713.05,227.26 716.61,233.33 C718.60,236.72 720.57,239.73 721.01,240.00 C721.44,240.27 724.10,244.75 726.92,249.95 C729.75,255.15 732.83,260.14 733.78,261.04 C734.73,261.94 737.71,267.20 740.41,272.73 C744.34,280.80 746.03,283.20 748.91,284.87 ZM 1541.39 283.58 C1542.12,285.46 1556.50,285.61 1557.66,283.75 C1558.09,283.06 1558.76,280.25 1559.16,277.50 C1560.33,269.38 1561.85,261.92 1563.41,256.54 C1564.22,253.77 1565.14,250.27 1565.45,248.78 C1565.77,247.28 1567.00,245.14 1568.20,244.03 C1570.30,242.07 1571.60,242.00 1605.20,242.00 L 1640.03 242.00 L 1642.01 245.25 C1643.10,247.04 1643.99,249.67 1644.00,251.09 C1644.00,252.52 1644.90,256.30 1646.00,259.50 C1647.10,262.70 1648.00,266.22 1648.00,267.34 C1648.00,268.45 1648.43,270.74 1648.97,272.43 C1649.50,274.12 1650.18,276.73 1650.48,278.22 C1651.43,282.98 1654.64,285.00 1661.22,285.00 C1668.29,285.00 1668.74,284.28 1666.54,276.33 C1665.65,273.12 1664.32,267.31 1663.58,263.42 C1662.83,259.52 1661.42,254.80 1660.44,252.92 C1658.75,249.68 1657.91,246.69 1656.10,237.50 C1655.67,235.30 1654.12,230.09 1652.66,225.92 C1651.20,221.76 1650.00,217.70 1650.00,216.90 C1650.00,216.10 1648.43,212.16 1646.50,208.14 C1644.57,204.12 1643.00,199.90 1643.00,198.75 C1643.00,197.61 1640.80,192.13 1638.10,186.58 C1635.41,181.04 1632.50,174.11 1631.64,171.19 C1629.94,165.42 1616.77,138.60 1614.24,135.75 C1613.00,134.35 1611.04,134.00 1604.36,134.00 L 1596.03 134.00 L 1593.72 137.75 C1592.45,139.81 1588.74,146.90 1585.47,153.50 C1582.21,160.10 1579.22,165.73 1578.84,166.01 C1578.46,166.30 1577.60,168.77 1576.92,171.51 C1576.25,174.26 1574.23,179.46 1572.43,183.07 C1570.63,186.68 1568.84,191.40 1568.44,193.57 C1568.05,195.73 1566.63,199.39 1565.29,201.71 C1562.31,206.87 1557.00,221.64 1557.00,224.79 C1557.00,226.06 1556.25,228.54 1555.33,230.30 C1554.41,232.06 1553.33,235.07 1552.93,237.00 C1552.53,238.93 1551.75,241.85 1551.20,243.50 C1547.51,254.63 1545.93,260.18 1545.08,265.00 C1544.54,268.02 1543.37,273.12 1542.48,276.33 C1541.58,279.54 1541.09,282.80 1541.39,283.58 ZM 919.43 283.67 C919.79,284.61 922.12,285.00 927.43,285.00 C935.79,285.00 937.00,284.10 937.00,277.89 C937.00,274.83 937.81,271.46 940.20,264.50 C940.77,262.85 941.83,258.12 942.56,254.00 C943.30,249.88 943.92,246.41 943.95,246.29 C943.98,246.17 944.98,245.16 946.19,244.04 C948.30,242.07 949.54,242.00 983.20,242.00 L 1018.03 242.00 L 1020.01 245.25 C1021.10,247.04 1022.00,249.40 1022.01,250.50 C1022.02,251.60 1022.69,254.39 1023.49,256.70 C1024.30,259.01 1025.38,263.29 1025.89,266.20 C1027.48,275.17 1029.87,282.43 1031.67,283.74 C1034.11,285.53 1044.91,285.41 1045.61,283.58 C1045.91,282.80 1045.43,279.54 1044.54,276.33 C1043.65,273.12 1042.32,267.30 1041.57,263.38 C1040.82,259.47 1039.72,255.34 1039.11,254.20 C1038.50,253.06 1038.00,250.96 1038.00,249.53 C1038.00,248.09 1037.10,245.16 1036.00,243.00 C1034.90,240.84 1034.00,238.36 1034.00,237.48 C1034.00,233.85 1021.72,197.38 1018.07,190.13 C1016.38,186.79 1015.00,183.29 1015.00,182.36 C1015.00,180.44 1012.12,174.17 1001.28,152.50 C997.15,144.25 993.06,136.70 992.20,135.71 C990.90,134.24 989.31,133.97 983.14,134.21 L 975.66 134.50 L 972.36 139.00 C967.56,145.54 961.87,155.67 960.33,160.39 C959.60,162.65 958.11,166.30 957.02,168.50 C953.15,176.35 946.00,193.81 946.00,195.42 C946.00,196.32 944.65,199.73 943.00,203.00 C941.35,206.27 940.00,209.87 940.00,211.01 C940.00,212.15 939.10,214.84 938.00,217.00 C936.90,219.16 935.98,222.18 935.96,223.71 C935.95,225.24 935.29,227.62 934.50,229.00 C933.71,230.38 933.05,232.50 933.04,233.72 C933.02,234.93 932.35,237.41 931.56,239.22 C930.77,241.02 929.40,245.20 928.51,248.50 C927.63,251.80 926.43,255.85 925.84,257.50 C925.26,259.15 924.47,262.30 924.08,264.50 C923.69,266.70 922.85,269.46 922.22,270.62 C920.62,273.56 918.81,282.05 919.43,283.67 ZM 804.20 283.80 C805.09,284.69 815.98,285.00 847.01,285.00 C887.43,285.00 888.69,284.94 890.80,282.97 C893.46,280.50 894.65,276.25 893.29,274.10 C892.40,272.69 888.07,272.47 857.48,272.24 C833.82,272.06 822.24,271.62 821.34,270.86 C820.28,269.99 820.00,264.10 820.00,242.95 C820.00,219.55 820.21,215.94 821.62,214.52 C823.06,213.09 826.73,212.92 852.87,213.07 L 882.50 213.24 L 882.81 209.02 C883.03,206.09 882.60,204.21 881.41,202.90 C879.80,201.12 877.91,201.00 851.04,201.00 C830.10,201.00 822.08,200.68 821.20,199.80 C820.33,198.93 820.00,191.80 820.00,174.00 C820.00,156.20 820.33,149.07 821.20,148.20 C822.09,147.31 831.42,147.00 857.00,147.00 C882.58,147.00 891.91,146.69 892.80,145.80 C893.46,145.14 894.00,142.76 894.00,140.50 C894.00,138.24 893.46,135.86 892.80,135.20 C891.07,133.47 805.93,133.47 804.20,135.20 C802.46,136.94 802.46,282.06 804.20,283.80 ZM 1414.00 285.17 C1414.54,285.35 1437.13,285.37 1464.19,285.21 C1497.71,285.02 1513.80,284.58 1514.69,283.84 C1516.33,282.48 1516.41,274.81 1514.80,273.20 C1513.91,272.31 1503.67,272.00 1474.92,272.00 C1432.96,272.00 1432.91,271.99 1434.90,266.75 C1435.42,265.38 1436.97,263.38 1438.34,262.31 C1439.71,261.23 1441.98,257.95 1443.40,255.03 C1444.81,252.10 1446.65,248.98 1447.49,248.10 C1450.54,244.91 1457.98,233.98 1460.97,228.30 C1462.66,225.11 1466.95,218.45 1470.51,213.50 C1474.07,208.55 1478.08,202.45 1479.42,199.94 C1480.75,197.43 1482.59,194.76 1483.50,194.00 C1484.41,193.24 1486.25,190.57 1487.60,188.06 C1488.94,185.55 1492.95,179.45 1496.51,174.50 C1500.08,169.55 1504.08,163.45 1505.42,160.94 C1506.75,158.43 1508.59,155.76 1509.50,155.00 C1512.96,152.13 1515.11,146.13 1514.80,140.20 L 1514.50 134.50 L 1464.61 134.24 C1428.61,134.05 1414.35,134.30 1413.36,135.11 C1411.61,136.57 1411.59,144.41 1413.34,145.87 C1414.26,146.63 1427.02,147.06 1454.07,147.24 C1490.58,147.48 1493.50,147.63 1493.81,149.24 C1494.07,150.63 1486.25,163.94 1483.96,166.00 C1483.65,166.27 1481.37,169.65 1478.89,173.50 C1476.40,177.35 1473.50,181.79 1472.43,183.38 C1469.48,187.78 1463.23,197.15 1461.02,200.50 C1457.43,205.96 1456.52,207.25 1454.43,209.89 C1453.30,211.33 1451.34,214.52 1450.09,217.00 C1448.84,219.48 1447.01,222.40 1446.03,223.50 C1445.05,224.60 1443.68,226.60 1442.99,227.94 C1442.30,229.28 1441.35,230.85 1440.88,231.44 C1436.99,236.30 1435.01,239.13 1432.75,243.08 C1431.30,245.60 1429.41,248.25 1428.54,248.96 C1427.68,249.68 1425.82,252.57 1424.41,255.38 C1423.00,258.18 1421.51,260.71 1421.10,260.99 C1420.70,261.27 1418.71,264.02 1416.68,267.10 C1413.46,272.01 1413.00,273.46 1413.00,278.77 C1413.00,282.10 1413.45,284.98 1414.00,285.17 ZM 1279.01 283.51 C1280.10,284.82 1286.74,284.98 1330.38,284.76 L 1380.50 284.50 L 1380.50 272.50 L 1339.71 272.24 C1306.83,272.03 1298.52,271.98 1297.92,269.81 C1297.72,269.07 1298.40,268.10 1299.31,266.79 L 1299.34 266.74 C1300.19,265.51 1303.61,260.67 1306.93,256.00 C1310.26,251.32 1313.83,245.93 1314.88,244.00 C1315.93,242.07 1317.76,239.62 1318.96,238.54 C1320.15,237.46 1322.05,234.42 1323.19,231.79 C1324.32,229.15 1325.61,227.00 1326.05,227.00 C1326.49,227.00 1328.55,224.22 1330.61,220.82 C1332.68,217.41 1335.16,213.84 1336.14,212.86 C1337.11,211.89 1338.88,208.83 1340.07,206.05 C1341.27,203.27 1342.61,201.00 1343.05,201.00 C1343.49,201.00 1345.55,198.22 1347.61,194.82 C1349.68,191.41 1352.17,187.83 1353.15,186.85 C1354.13,185.87 1356.02,182.92 1357.36,180.28 C1358.69,177.65 1360.76,174.62 1361.96,173.54 C1363.15,172.46 1365.05,169.42 1366.19,166.79 C1367.32,164.15 1368.63,162.00 1369.10,162.00 C1369.57,162.00 1371.99,158.52 1374.48,154.27 C1378.23,147.86 1379.00,145.68 1379.00,141.47 C1379.00,138.68 1378.46,135.86 1377.80,135.20 C1376.07,133.47 1279.93,133.47 1278.20,135.20 C1277.54,135.86 1277.00,138.24 1277.00,140.50 C1277.00,142.76 1277.54,145.14 1278.20,145.80 C1279.09,146.69 1289.45,147.00 1318.64,147.00 C1340.22,147.00 1358.11,147.36 1358.38,147.81 C1358.97,148.77 1353.17,161.35 1351.92,161.82 C1351.44,162.00 1349.38,164.90 1347.34,168.26 C1345.30,171.62 1342.83,175.17 1341.85,176.15 C1340.87,177.13 1338.94,180.17 1337.55,182.90 C1336.17,185.63 1334.19,188.45 1333.15,189.18 C1332.12,189.91 1330.25,192.86 1329.01,195.75 C1327.77,198.64 1326.39,201.00 1325.95,201.00 C1325.51,201.00 1323.45,203.78 1321.39,207.18 C1319.32,210.59 1316.83,214.17 1315.85,215.15 C1314.87,216.13 1312.94,219.17 1311.55,221.90 C1310.17,224.63 1308.19,227.45 1307.15,228.18 C1306.12,228.91 1304.25,231.86 1303.01,234.75 C1301.77,237.64 1300.40,240.00 1299.96,240.00 C1299.52,240.00 1298.14,241.69 1296.88,243.75 C1295.63,245.81 1294.33,247.73 1293.99,248.00 C1293.65,248.27 1291.07,252.10 1288.26,256.50 C1285.45,260.90 1282.13,265.80 1280.88,267.40 C1278.16,270.86 1276.98,281.06 1279.01,283.51 ZM 720.00 206.01 C712.83,207.40 676.63,207.23 675.20,205.80 C674.32,204.92 674.00,197.12 674.00,176.92 C674.00,153.35 674.23,149.06 675.52,147.98 C676.70,147.01 682.32,146.83 699.82,147.22 L 722.59 147.72 L 730.33 151.97 C734.58,154.30 739.10,157.63 740.37,159.36 C748.90,170.99 747.67,187.33 737.50,197.50 C732.51,202.49 728.78,204.31 720.00,206.01 ZM 804.36 434.91 C811.63,437.02 817.63,436.21 826.01,431.99 C833.78,428.09 834.08,427.80 837.74,420.74 L 841.50 413.50 L 841.50 385.50 L 837.79 378.36 C834.43,371.88 833.49,370.88 827.63,367.61 C822.03,364.48 820.30,364.00 814.56,364.00 C810.91,364.00 806.32,364.67 804.35,365.50 C802.37,366.33 800.09,367.00 799.28,367.00 C794.90,367.00 788.07,376.30 785.70,385.50 C784.37,390.64 784.36,408.31 785.68,413.50 C787.76,421.63 791.31,427.36 796.37,430.75 C799.04,432.54 802.64,434.41 804.36,434.91 ZM 1079.20 283.80 C1080.93,285.53 1165.07,285.53 1166.80,283.80 C1167.46,283.14 1168.00,280.76 1168.00,278.50 C1168.00,276.24 1167.46,273.86 1166.80,273.20 C1165.91,272.31 1156.58,272.00 1131.00,272.00 C1105.42,272.00 1096.09,271.69 1095.20,270.80 C1094.29,269.89 1094.00,253.47 1094.00,203.00 C1094.00,152.53 1093.71,136.11 1092.80,135.20 C1092.14,134.54 1089.08,134.00 1086.00,134.00 C1082.92,134.00 1079.86,134.54 1079.20,135.20 C1077.46,136.94 1077.46,282.06 1079.20,283.80 ZM 1723.20 283.80 C1724.76,285.36 1733.24,285.36 1734.80,283.80 C1735.71,282.89 1736.00,266.47 1736.00,216.00 C1736.00,165.53 1736.29,149.11 1737.20,148.20 C1738.05,147.35 1743.99,147.00 1757.55,147.00 C1775.83,147.00 1776.86,146.90 1780.10,144.72 C1782.35,143.21 1783.61,141.49 1783.82,139.66 C1783.85,139.46 1783.87,139.26 1783.89,139.07 C1784.02,138.11 1784.12,137.33 1783.86,136.69 C1782.75,133.99 1775.08,133.99 1734.79,134.00 L 1729.08 134.00 C1689.44,134.00 1676.10,134.30 1675.20,135.20 C1674.54,135.86 1674.00,138.24 1674.00,140.50 C1674.00,142.76 1674.54,145.14 1675.20,145.80 C1676.06,146.66 1682.53,147.00 1698.00,147.00 C1713.47,147.00 1719.94,147.34 1720.80,148.20 C1721.71,149.11 1722.00,165.53 1722.00,216.00 C1722.00,266.47 1722.29,282.89 1723.20,283.80 ZM 1636.00 226.74 C1636.00,227.16 1621.82,227.50 1604.50,227.50 C1587.18,227.50 1573.00,227.16 1573.00,226.74 C1573.00,224.83 1577.01,212.05 1578.88,208.00 C1580.02,205.52 1580.97,202.52 1580.98,201.33 C1580.99,200.14 1582.50,196.32 1584.34,192.83 C1586.18,189.35 1587.98,185.29 1588.34,183.82 C1588.71,182.35 1589.67,180.47 1590.49,179.65 C1591.31,178.83 1592.63,175.68 1593.42,172.65 C1595.06,166.37 1596.72,162.84 1598.57,161.74 C1599.27,161.33 1600.39,159.30 1601.06,157.24 C1602.73,152.03 1603.92,150.69 1605.62,152.10 C1607.62,153.76 1619.86,178.94 1620.65,183.00 C1621.02,184.93 1622.82,189.35 1624.66,192.83 C1626.50,196.32 1628.01,200.14 1628.02,201.33 C1628.03,202.52 1628.98,205.52 1630.12,208.00 C1631.99,212.05 1636.00,224.83 1636.00,226.74 ZM 1013.34 222.50 L 1014.00 227.50 L 982.50 227.50 C965.18,227.50 951.00,227.16 951.00,226.74 C951.00,224.83 955.01,212.05 956.88,208.00 C958.02,205.52 958.97,202.60 958.98,201.49 C958.99,200.38 961.92,193.66 965.50,186.54 C969.08,179.42 972.00,172.84 972.00,171.92 C972.00,171.00 972.67,169.68 973.50,169.00 C974.33,168.32 975.01,167.25 975.03,166.63 C975.05,166.01 976.17,163.25 977.52,160.50 C978.87,157.75 979.99,154.99 979.99,154.37 C980.00,153.75 980.61,152.74 981.35,152.13 C982.37,151.28 983.06,151.43 984.19,152.75 C986.65,155.63 997.93,179.23 998.65,183.00 C999.02,184.93 1000.82,189.35 1002.66,192.83 C1004.50,196.32 1006.00,200.15 1006.00,201.36 C1006.00,202.57 1007.50,206.69 1009.34,210.53 C1011.18,214.36 1012.98,219.75 1013.34,222.50 ZM 1213.20 283.80 C1214.76,285.36 1224.24,285.36 1225.80,283.80 C1227.54,282.06 1227.54,136.94 1225.80,135.20 C1224.24,133.64 1214.76,133.64 1213.20,135.20 C1211.46,136.94 1211.46,282.06 1213.20,283.80 ZM 826.08 424.04 C822.82,427.48 821.92,427.86 816.00,428.33 C812.42,428.62 808.09,428.50 806.36,428.07 C801.94,426.98 797.45,423.54 796.20,420.28 C791.61,408.34 790.86,397.09 793.91,386.10 C796.37,377.19 797.28,375.61 801.36,373.09 C806.26,370.06 817.85,370.12 822.85,373.21 C827.41,376.03 829.00,377.65 831.99,382.48 C834.22,386.09 834.40,387.38 834.40,399.50 C834.40,414.08 833.76,415.96 826.08,424.04 ZM 657.20 431.80 C658.78,433.38 662.48,433.33 663.82,431.72 C664.40,431.02 665.10,425.06 665.38,418.47 C666.21,398.81 668.50,380.00 670.06,380.00 C671.18,380.00 678.00,394.68 678.00,397.09 C678.00,398.19 678.76,400.54 679.68,402.30 C680.60,404.06 681.68,407.30 682.07,409.50 C682.89,414.10 684.51,419.00 686.86,424.00 C688.08,426.60 689.13,427.50 690.96,427.50 C693.00,427.50 693.63,426.76 694.67,423.14 C695.37,420.74 696.36,418.27 696.88,417.64 C697.39,417.01 698.51,414.02 699.35,411.00 C701.20,404.38 703.68,396.76 705.53,392.00 C706.28,390.08 707.17,387.07 707.51,385.32 C708.28,381.38 710.30,379.43 711.74,381.24 C712.68,382.41 714.42,396.65 715.49,412.00 C716.85,431.25 717.48,433.32 721.91,432.80 C724.04,432.55 724.44,432.05 724.17,430.00 C723.98,428.62 723.44,420.75 722.97,412.50 C722.49,404.25 721.67,394.12 721.13,390.00 C720.59,385.88 719.83,379.25 719.44,375.29 C718.62,366.88 716.97,364.69 711.84,365.18 C708.78,365.47 708.19,366.12 704.76,373.00 C702.71,377.12 700.74,382.08 700.40,384.00 C700.06,385.92 699.15,388.50 698.38,389.72 C697.62,390.95 696.35,394.40 695.57,397.40 C693.94,403.66 692.34,407.00 690.99,407.00 C689.68,407.00 687.00,401.56 687.00,398.91 C687.00,397.70 685.04,392.62 682.65,387.61 C680.26,382.60 677.99,377.23 677.61,375.67 C677.23,374.11 675.81,371.07 674.45,368.92 C672.52,365.86 671.35,365.00 669.14,365.00 C663.95,365.00 663.10,367.11 660.91,385.50 C660.39,389.90 659.52,399.12 658.98,406.00 C658.44,412.88 657.54,420.13 657.00,422.12 C655.67,426.94 655.74,430.34 657.20,431.80 ZM 309.00 437.98 C309.00,439.52 307.68,439.68 302.08,438.81 C296.02,437.87 294.00,436.64 294.00,433.88 C294.00,431.58 291.75,431.46 288.51,433.59 C286.12,435.15 281.89,434.90 278.03,432.98 C277.19,432.56 273.66,431.69 270.18,431.05 C263.40,429.81 259.00,428.17 259.00,426.88 C259.00,426.45 257.42,425.80 255.50,425.43 C253.57,425.07 252.00,424.39 252.00,423.92 C252.00,423.45 251.37,423.30 250.60,423.60 C249.83,423.89 248.91,423.66 248.54,423.07 C248.18,422.48 246.99,422.00 245.89,422.00 C244.57,422.00 243.54,420.98 242.85,419.00 C242.27,417.35 241.51,415.95 241.15,415.89 C240.79,415.82 239.31,415.63 237.86,415.45 C230.32,414.55 226.86,412.90 225.46,409.56 C224.06,406.22 222.15,404.81 218.54,404.45 C217.47,404.34 216.41,403.74 216.20,403.11 C215.99,402.48 215.19,401.33 214.41,400.55 C213.63,399.78 213.00,398.86 213.00,398.52 C213.00,398.17 226.39,398.03 242.75,398.20 L 272.50 398.50 L 276.75 402.75 C279.09,405.09 281.41,407.00 281.92,407.00 C282.43,407.00 283.13,408.30 283.48,409.90 C283.83,411.49 284.88,413.48 285.81,414.33 C287.45,415.81 287.92,416.00 289.99,416.00 C290.53,416.00 291.62,417.56 292.42,419.46 C293.40,421.81 295.00,423.39 297.43,424.41 C299.39,425.23 301.00,426.52 301.00,427.29 C301.00,428.05 302.80,430.57 305.00,432.88 C307.20,435.19 309.00,437.49 309.00,437.98 ZM 1203.78 431.95 C1210.27,435.27 1212.50,435.91 1217.77,435.95 C1223.15,435.99 1225.18,435.43 1232.00,432.00 C1238.55,428.71 1240.32,427.30 1241.98,424.04 C1244.90,418.32 1244.78,409.13 1241.75,405.86 C1238.62,402.49 1229.39,397.36 1222.38,395.11 C1209.83,391.08 1205.21,388.44 1203.50,384.34 C1201.40,379.32 1202.22,376.60 1206.74,373.53 C1209.89,371.39 1211.60,371.00 1217.86,371.00 C1226.46,371.00 1230.59,372.94 1233.89,378.53 C1236.08,382.24 1238.02,382.89 1239.97,380.54 C1242.20,377.85 1240.18,373.19 1235.00,369.09 C1231.06,365.98 1229.06,365.15 1224.09,364.59 C1213.83,363.43 1206.62,364.74 1201.41,368.72 C1196.19,372.71 1195.00,375.19 1195.00,382.11 C1195.00,392.01 1198.40,394.62 1220.95,402.00 C1231.29,405.39 1232.58,406.08 1234.26,409.13 C1236.76,413.67 1236.00,419.20 1232.22,423.87 C1228.71,428.20 1224.74,429.22 1214.50,428.41 C1207.74,427.87 1207.35,427.69 1203.25,423.27 C1200.91,420.76 1199.00,418.31 1199.00,417.85 C1199.00,417.38 1197.88,417.00 1196.52,417.00 C1193.24,417.00 1192.27,420.69 1194.44,424.89 C1195.59,427.12 1198.26,429.13 1203.78,431.95 ZM 920.50 433.31 L 920.70 433.36 C922.06,433.70 923.12,433.96 924.09,433.78 C927.43,433.18 929.84,427.44 940.66,402.09 C941.46,400.21 942.51,396.84 942.98,394.59 C943.46,392.34 944.54,388.48 945.39,386.00 C948.27,377.60 950.16,370.08 949.83,368.40 C949.65,367.47 948.71,366.22 947.75,365.61 C944.97,363.86 942.59,366.07 941.84,371.10 C941.02,376.65 939.67,381.47 937.61,386.22 C936.72,388.26 936.00,390.86 936.00,392.00 C936.00,393.13 934.69,396.66 933.08,399.84 C931.47,403.02 929.85,407.40 929.46,409.56 C928.24,416.40 922.78,423.89 920.43,421.94 C918.50,420.34 907.00,396.06 907.00,393.60 C907.00,392.66 906.36,390.67 905.58,389.16 C904.80,387.65 903.84,383.06 903.44,378.96 C903.05,374.86 902.34,370.48 901.88,369.22 C900.83,366.41 897.17,364.89 894.64,366.21 C893.10,367.02 892.89,367.91 893.41,371.35 C893.76,373.63 894.68,377.52 895.46,380.00 C896.24,382.48 897.38,387.05 897.99,390.16 C898.60,393.27 900.88,399.49 903.05,403.98 C905.22,408.47 907.00,412.81 907.00,413.62 C907.00,414.43 908.12,417.20 909.50,419.79 C910.88,422.37 912.00,424.96 912.00,425.55 C912.00,427.10 918.17,432.73 920.50,433.31 ZM 1009.42 433.08 C1010.13,433.80 1044.83,434.19 1046.97,433.51 C1048.09,433.15 1049.00,432.00 1049.00,430.93 C1049.00,429.11 1048.17,429.00 1034.93,429.00 C1027.15,429.00 1020.00,428.54 1018.93,427.96 C1017.20,427.04 1017.00,425.78 1017.00,415.66 C1017.00,408.24 1017.41,403.99 1018.20,403.20 C1019.00,402.40 1023.33,402.00 1031.08,402.00 C1040.24,402.00 1043.02,401.68 1044.00,400.50 C1044.98,399.32 1044.99,398.69 1044.02,397.53 C1043.09,396.40 1039.75,395.99 1029.65,395.78 L 1016.50 395.50 L 1016.85 384.50 C1017.04,378.45 1017.66,372.94 1018.22,372.25 C1018.96,371.35 1023.44,371.00 1034.15,371.00 C1046.54,371.00 1049.16,370.74 1049.64,369.49 C1049.96,368.66 1049.67,367.31 1048.99,366.49 C1047.06,364.16 1013.42,364.31 1010.83,366.65 C1009.13,368.19 1009.00,370.58 1009.00,400.49 C1009.00,418.19 1009.19,432.85 1009.42,433.08 ZM 1119.14 432.29 C1120.34,433.28 1122.04,433.95 1122.91,433.78 C1124.32,433.51 1124.50,429.83 1124.50,400.60 C1124.50,370.37 1124.36,367.63 1122.75,366.61 C1121.47,365.81 1120.53,365.81 1119.25,366.61 C1117.65,367.62 1117.48,370.48 1117.23,399.11 C1116.95,430.34 1116.96,430.51 1119.14,432.29 ZM 809.75 358.75 C810.56,361.16 814.77,360.07 817.45,356.75 C818.89,354.96 820.97,352.43 822.08,351.12 C823.18,349.81 823.91,348.24 823.71,347.62 C823.14,345.91 820.02,345.65 817.34,347.08 C814.56,348.57 809.13,356.91 809.75,358.75 ZM 351.00 481.43 C351.00,482.54 349.23,481.98 347.98,480.48 C346.25,478.39 347.53,477.38 349.45,479.31 C350.30,480.16 351.00,481.11 351.00,481.43 ZM 300.18 0.96 C300.30,0.98 300.40,0.99 300.48,1.01 C300.05,1.09 299.46,1.20 298.76,1.31 C299.43,1.18 299.90,1.06 300.18,0.96 Z" fill="rgb(255,255,254)"/>
<path d="M 430.50 564.81 C428.30,562.59 425.49,559.83 424.25,558.66 C423.01,557.50 422.00,555.98 422.00,555.28 C422.00,554.59 420.47,553.39 418.60,552.60 C416.72,551.82 414.88,550.19 414.50,548.99 C414.11,547.78 411.93,544.85 409.65,542.48 C407.37,540.12 403.70,536.09 401.50,533.55 C399.30,531.00 395.14,526.37 392.25,523.26 C389.36,520.15 387.00,517.24 387.00,516.80 C387.00,516.36 386.50,516.00 385.88,516.00 C385.27,516.00 383.00,514.18 380.85,511.96 C378.69,509.74 376.56,508.15 376.11,508.43 C375.11,509.05 370.93,504.76 370.65,502.81 C370.40,501.14 362.92,492.00 361.79,492.00 C360.37,492.00 360.96,493.96 363.00,496.00 C365.36,498.36 365.63,503.23 363.50,505.00 C362.67,505.68 362.00,506.92 362.00,507.74 C362.00,508.84 361.41,509.04 359.75,508.50 C357.68,507.83 355.90,507.73 351.25,508.03 C350.29,508.09 347.37,508.64 344.78,509.25 C341.09,510.12 339.52,510.08 337.62,509.06 C336.28,508.35 334.66,508.09 334.02,508.49 C332.16,509.64 303.79,510.07 302.47,508.97 C301.83,508.44 297.01,507.89 291.76,507.75 C283.58,507.54 281.92,507.77 280.12,509.40 C278.03,511.28 278.01,511.27 276.48,507.60 C275.63,505.57 274.39,503.72 273.72,503.48 C271.61,502.73 264.77,501.91 257.01,501.48 C252.89,501.25 249.37,500.60 249.18,500.03 C248.99,499.46 247.94,499.00 246.86,499.00 C245.77,499.00 245.16,499.45 245.50,500.00 C246.44,501.53 244.05,501.19 242.43,499.57 C241.64,498.79 241.00,497.44 241.00,496.59 C241.00,495.16 238.10,493.90 234.11,493.59 C233.23,493.52 231.43,492.86 230.11,492.12 C228.80,491.38 226.50,490.70 225.00,490.59 C223.50,490.49 220.87,489.23 219.16,487.79 C217.45,486.35 214.69,484.87 213.02,484.51 C211.36,484.14 210.00,483.45 210.00,482.98 C210.00,482.50 207.41,482.20 204.25,482.31 C198.52,482.50 198.50,482.49 198.50,479.59 C198.50,477.23 197.93,476.49 195.50,475.72 C193.85,475.20 190.84,473.47 188.81,471.89 C186.78,470.30 184.75,469.00 184.31,468.99 C183.86,468.99 182.35,468.38 180.93,467.65 C179.52,466.91 177.20,466.02 175.78,465.66 C174.11,465.24 172.83,463.95 172.15,462.01 C171.58,460.35 170.44,459.00 169.63,459.00 C168.83,459.00 166.67,457.22 164.83,455.04 C163.00,452.87 160.38,450.88 159.00,450.63 C155.13,449.93 152.96,448.87 153.52,447.96 C153.80,447.51 153.57,446.85 153.00,446.50 C152.43,446.15 152.23,445.44 152.54,444.93 C152.86,444.42 152.43,444.00 151.59,444.00 C150.76,444.00 149.60,443.12 149.02,442.04 C148.40,440.88 147.36,440.31 146.48,440.64 C145.67,440.96 145.00,440.66 145.00,439.98 C145.00,439.15 144.04,438.94 142.04,439.34 C138.67,440.02 137.94,439.35 138.96,436.55 C139.48,435.11 138.94,433.98 136.94,432.30 C133.69,429.56 133.00,429.45 133.00,431.65 C133.00,433.14 132.80,433.13 131.00,431.50 C129.48,430.12 129.27,429.38 130.13,428.35 C130.95,427.35 130.94,426.63 130.08,425.60 C129.19,424.52 129.22,424.08 130.21,423.72 C131.03,423.42 129.77,421.61 126.74,418.74 C124.12,416.27 121.50,412.88 120.92,411.21 C120.28,409.38 118.73,407.72 116.97,406.99 C112.78,405.25 111.40,403.22 111.08,398.34 C111.03,397.71 109.43,395.31 107.52,393.02 C105.60,390.73 103.58,387.14 103.01,385.04 C102.42,382.86 100.91,380.52 99.49,379.59 C98.12,378.69 97.00,377.06 97.00,375.98 C97.00,374.89 96.55,374.00 96.00,374.00 C95.45,374.00 95.00,372.83 95.00,371.40 C95.00,368.25 92.05,363.00 90.28,363.00 C89.01,363.00 88.87,362.67 88.62,359.25 C88.56,358.29 87.71,356.71 86.75,355.75 C85.75,354.75 85.00,352.50 85.00,350.50 C85.00,348.58 84.56,347.00 84.03,347.00 C83.50,347.00 83.30,346.38 83.59,345.63 C83.97,344.64 83.46,344.38 81.81,344.69 C79.89,345.05 79.32,344.53 78.42,341.63 C77.73,339.40 77.68,337.53 78.28,336.46 C78.88,335.39 78.85,334.00 78.19,332.64 C77.62,331.46 76.90,327.94 76.58,324.81 C76.03,319.46 75.18,316.52 73.14,313.00 C69.79,307.22 68.85,298.76 68.61,272.09 C68.53,262.97 68.83,259.56 69.75,259.25 C70.66,258.95 71.00,260.54 71.00,265.17 C71.01,279.20 75.14,304.38 80.47,322.90 C94.22,370.63 123.47,415.23 161.82,446.89 C200.54,478.87 247.62,498.72 297.21,503.97 C315.75,505.94 358.54,504.65 361.30,502.05 C361.75,501.63 349.46,488.06 334.00,471.90 C306.74,443.39 305.75,442.48 301.20,441.70 C273.56,436.98 256.80,431.83 237.73,422.19 C224.69,415.59 209.33,405.61 201.50,398.64 L 197.50 395.08 L 236.50 395.05 L 275.50 395.01 L 331.50 453.67 C362.30,485.93 394.02,519.13 402.00,527.44 C409.98,535.75 421.98,548.27 428.68,555.27 C435.37,562.27 441.11,568.00 441.43,568.00 C441.74,568.00 442.00,549.96 442.00,527.92 L 442.00 487.84 L 438.42 483.47 L 434.84 479.10 L 441.67 475.64 C474.83,458.82 510.32,426.74 532.89,393.17 C554.33,361.27 567.78,325.66 573.63,285.26 C574.82,277.05 575.33,267.16 575.30,252.50 C575.27,228.38 573.21,211.71 567.52,189.50 C552.71,131.72 516.52,79.62 467.50,45.54 C432.28,21.05 394.65,6.79 352.50,1.96 C347.00,1.33 342.31,0.63 342.08,0.41 C341.85,0.18 350.47,0.00 361.23,0.00 C377.69,0.00 380.88,0.24 381.36,1.50 C381.68,2.33 382.48,3.00 383.15,3.00 C383.82,3.00 386.20,3.83 388.43,4.85 C393.83,7.29 403.42,9.33 409.02,9.23 C412.98,9.15 413.75,9.50 415.17,11.97 C416.22,13.81 417.96,15.05 420.14,15.51 C421.99,15.91 424.06,16.68 424.74,17.23 C425.43,17.78 427.23,17.96 428.74,17.62 C430.26,17.27 433.19,16.79 435.25,16.53 C438.69,16.11 439.00,16.27 439.00,18.53 C439.00,20.06 438.43,21.00 437.50,21.00 C436.67,21.00 436.00,21.40 436.00,21.88 C436.00,22.93 439.47,23.97 443.05,23.99 C444.69,24.00 446.99,25.43 449.53,28.03 C451.69,30.25 456.24,33.41 459.64,35.07 C463.04,36.72 466.39,38.77 467.09,39.61 C467.78,40.45 469.65,41.80 471.24,42.62 C472.82,43.44 475.86,45.68 477.98,47.60 C480.10,49.51 482.81,51.27 484.00,51.50 C488.67,52.40 490.08,53.25 491.54,56.07 C492.37,57.68 492.75,59.00 492.37,59.00 C492.00,59.00 492.52,59.91 493.53,61.03 C494.54,62.15 496.30,62.94 497.43,62.78 C498.88,62.58 499.59,63.12 499.80,64.57 C500.15,67.05 512.34,80.00 514.31,80.00 C516.08,80.00 518.69,82.94 519.15,85.46 C519.35,86.56 520.60,87.67 522.01,88.00 C523.95,88.46 525.07,90.00 527.05,94.97 C528.63,98.89 530.43,101.71 531.74,102.30 C532.97,102.84 534.79,105.52 536.05,108.62 C537.59,112.42 538.78,114.00 540.09,114.00 C542.68,114.00 545.32,118.43 545.43,122.96 C545.51,125.91 546.28,127.46 548.87,129.88 C550.71,131.60 552.73,133.01 553.36,133.03 C553.99,133.05 553.72,133.52 552.77,134.07 C551.54,134.79 551.28,135.58 551.89,136.79 C552.37,137.73 553.48,140.19 554.36,142.25 C555.24,144.31 556.59,146.00 557.36,146.00 C559.30,146.00 561.09,148.39 561.23,151.17 C561.30,152.45 561.72,154.00 562.18,154.60 C562.63,155.21 562.93,157.47 562.84,159.63 C562.63,165.06 564.52,168.33 567.54,167.75 C569.60,167.35 569.87,167.65 569.70,170.15 C569.59,171.71 568.94,173.00 568.25,173.00 C566.52,173.00 566.67,173.63 569.22,177.09 C571.02,179.51 571.48,181.61 571.66,188.04 C571.78,192.42 572.16,196.45 572.50,197.00 C572.84,197.55 574.44,198.00 576.06,198.00 C578.54,198.00 579.00,198.40 579.00,200.53 C579.00,201.92 578.33,203.32 577.50,203.64 C575.47,204.42 575.48,212.34 577.51,214.37 C578.65,215.51 578.98,217.92 578.84,224.19 C578.57,236.43 579.23,249.03 580.17,249.61 C581.26,250.28 581.24,259.73 580.15,260.40 C579.69,260.69 578.95,266.01 578.50,272.21 C578.06,278.42 577.53,285.75 577.32,288.50 C576.84,294.97 576.78,298.33 577.15,299.53 C577.31,300.06 576.24,302.30 574.78,304.50 C572.59,307.78 571.99,310.12 571.43,317.50 C571.03,322.74 570.06,327.71 569.12,329.39 C567.88,331.60 567.80,332.39 568.75,332.73 C570.93,333.49 570.10,336.00 567.25,337.25 C563.76,338.78 563.03,339.82 563.02,343.30 C563.01,344.84 562.40,347.31 561.66,348.80 C560.25,351.64 560.12,355.77 561.38,357.81 C561.83,358.53 561.42,359.28 560.37,359.69 C559.35,360.08 558.45,359.85 558.21,359.14 C557.95,358.35 557.13,358.70 555.87,360.15 C554.80,361.38 554.16,362.97 554.44,363.69 C554.71,364.41 554.45,365.00 553.85,365.00 C553.26,365.00 553.00,365.90 553.29,367.00 C553.58,368.10 553.43,369.23 552.97,369.52 C551.59,370.37 549.08,376.00 550.08,376.00 C552.06,376.00 550.86,378.00 548.53,378.58 C546.63,379.06 545.91,380.06 545.44,382.85 C544.40,389.05 543.93,390.00 541.93,390.00 C539.76,390.00 535.66,393.64 536.43,394.88 C536.70,395.32 536.47,397.33 535.92,399.34 C535.16,402.09 534.25,403.14 532.21,403.63 C528.57,404.50 527.00,405.86 527.00,408.14 C527.00,409.19 524.53,412.56 521.50,415.63 C518.47,418.71 516.00,421.59 516.00,422.04 C516.00,422.50 515.14,423.14 514.10,423.47 C513.05,423.80 511.89,425.29 511.52,426.78 C510.61,430.42 509.28,431.85 505.34,433.50 C503.26,434.37 501.40,436.20 500.35,438.40 C499.42,440.33 498.28,441.67 497.81,441.38 C496.89,440.81 491.00,446.61 491.00,448.09 C491.00,448.57 489.87,449.25 488.49,449.59 C487.11,449.94 485.21,451.52 484.28,453.11 C483.34,454.70 482.22,456.00 481.78,456.00 C481.35,456.00 481.00,456.67 481.00,457.49 C481.00,458.45 479.60,459.20 477.04,459.61 C474.86,459.96 473.18,460.68 473.29,461.21 C473.41,461.75 472.61,462.71 471.52,463.34 C470.42,463.98 468.94,465.29 468.21,466.25 C467.40,467.32 465.55,468.00 463.44,468.00 C461.25,468.00 460.00,468.48 460.00,469.33 C460.00,470.99 455.81,475.00 454.08,475.00 C453.37,475.00 451.45,476.12 449.82,477.50 C448.18,478.88 447.35,480.00 447.97,480.00 C448.65,480.00 449.10,481.89 449.10,484.75 C449.11,487.36 449.34,504.94 449.63,523.82 C450.08,553.91 449.95,558.43 448.57,560.53 C447.71,561.85 447.00,564.30 447.00,565.96 L 447.00 569.00 L 440.75 568.92 C434.83,568.84 434.29,568.62 430.50,564.81 ZM 351.00 481.43 C351.00,481.11 350.30,480.16 349.45,479.31 C347.53,477.38 346.25,478.39 347.98,480.48 C349.23,481.98 351.00,482.54 351.00,481.43 ZM 309.00 437.98 C309.00,437.49 307.20,435.19 305.00,432.88 C302.80,430.57 301.00,428.05 301.00,427.29 C301.00,426.52 299.39,425.23 297.43,424.41 C295.00,423.39 293.40,421.81 292.42,419.46 C291.62,417.56 290.53,416.00 289.99,416.00 C287.92,416.00 287.45,415.81 285.81,414.33 C284.88,413.48 283.83,411.49 283.48,409.90 C283.13,408.30 282.43,407.00 281.92,407.00 C281.41,407.00 279.09,405.09 276.75,402.75 L 272.50 398.50 L 242.75 398.20 C226.39,398.03 213.00,398.17 213.00,398.52 C213.00,398.86 213.63,399.78 214.41,400.55 C215.19,401.33 215.99,402.48 216.20,403.11 C216.41,403.74 217.47,404.34 218.54,404.45 C222.15,404.81 224.06,406.22 225.46,409.56 C226.86,412.90 230.32,414.55 237.86,415.45 C239.31,415.63 240.79,415.82 241.15,415.89 C241.51,415.95 242.27,417.35 242.85,419.00 C243.54,420.98 244.57,422.00 245.89,422.00 C246.99,422.00 248.18,422.48 248.54,423.07 C248.91,423.66 249.83,423.89 250.60,423.60 C251.37,423.30 252.00,423.45 252.00,423.92 C252.00,424.39 253.57,425.07 255.50,425.43 C257.42,425.80 259.00,426.45 259.00,426.88 C259.00,428.17 263.40,429.81 270.18,431.05 C273.66,431.69 277.19,432.56 278.03,432.98 C281.89,434.90 286.12,435.15 288.51,433.59 C291.75,431.46 294.00,431.58 294.00,433.88 C294.00,436.64 296.02,437.87 302.08,438.81 C307.68,439.68 309.00,439.52 309.00,437.98 ZM 804.36 434.91 C802.64,434.41 799.04,432.54 796.37,430.75 C791.31,427.36 787.76,421.63 785.68,413.50 C784.36,408.31 784.37,390.64 785.70,385.50 C788.07,376.30 794.90,367.00 799.28,367.00 C800.09,367.00 802.37,366.33 804.35,365.50 C806.32,364.67 810.91,364.00 814.56,364.00 C820.30,364.00 822.03,364.48 827.63,367.61 C833.49,370.88 834.43,371.88 837.79,378.36 L 841.50 385.50 L 841.50 399.50 L 841.50 413.50 L 837.74 420.74 C834.08,427.80 833.78,428.09 826.01,431.99 C817.63,436.21 811.63,437.02 804.36,434.91 ZM 826.08 424.04 C833.76,415.96 834.40,414.08 834.40,399.50 C834.40,387.38 834.22,386.09 831.99,382.48 C829.00,377.65 827.41,376.03 822.85,373.21 C817.85,370.12 806.26,370.06 801.36,373.09 C797.28,375.61 796.37,377.19 793.91,386.10 C790.86,397.09 791.61,408.34 796.20,420.28 C797.45,423.54 801.94,426.98 806.36,428.07 C808.09,428.50 812.42,428.62 816.00,428.33 C821.92,427.86 822.82,427.48 826.08,424.04 ZM 1203.78 431.95 C1198.26,429.13 1195.59,427.12 1194.44,424.89 C1192.27,420.69 1193.24,417.00 1196.52,417.00 C1197.88,417.00 1199.00,417.38 1199.00,417.85 C1199.00,418.31 1200.91,420.76 1203.25,423.27 C1207.35,427.69 1207.74,427.87 1214.50,428.41 C1224.74,429.22 1228.71,428.20 1232.22,423.87 C1236.00,419.20 1236.76,413.67 1234.26,409.13 C1232.58,406.08 1231.29,405.39 1220.95,402.00 C1198.40,394.62 1195.00,392.01 1195.00,382.11 C1195.00,375.19 1196.19,372.71 1201.41,368.72 C1206.62,364.74 1213.83,363.43 1224.09,364.59 C1229.06,365.15 1231.06,365.98 1235.00,369.09 C1240.18,373.19 1242.20,377.85 1239.97,380.54 C1238.02,382.89 1236.08,382.24 1233.89,378.53 C1230.59,372.94 1226.46,371.00 1217.86,371.00 C1211.60,371.00 1209.89,371.39 1206.74,373.53 C1202.22,376.60 1201.40,379.32 1203.50,384.34 C1205.21,388.44 1209.83,391.08 1222.38,395.11 C1229.39,397.36 1238.62,402.49 1241.75,405.86 C1244.78,409.13 1244.90,418.32 1241.98,424.04 C1240.32,427.30 1238.55,428.71 1232.00,432.00 C1225.18,435.43 1223.15,435.99 1217.77,435.95 C1212.50,435.91 1210.27,435.27 1203.78,431.95 ZM 920.50 433.31 C918.17,432.73 912.00,427.10 912.00,425.55 C912.00,424.96 910.88,422.37 909.50,419.79 C908.12,417.20 907.00,414.43 907.00,413.62 C907.00,412.81 905.22,408.47 903.05,403.98 C900.88,399.49 898.60,393.27 897.99,390.16 C897.38,387.05 896.24,382.48 895.46,380.00 C894.68,377.52 893.76,373.63 893.41,371.35 C892.89,367.91 893.10,367.02 894.64,366.21 C897.17,364.89 900.83,366.41 901.88,369.22 C902.34,370.48 903.05,374.86 903.44,378.96 C903.84,383.06 904.80,387.65 905.58,389.16 C906.36,390.67 907.00,392.66 907.00,393.60 C907.00,396.06 918.50,420.34 920.43,421.94 C922.78,423.89 928.24,416.40 929.46,409.56 C929.85,407.40 931.47,403.02 933.08,399.84 C934.69,396.66 936.00,393.13 936.00,392.00 C936.00,390.86 936.72,388.26 937.61,386.22 C939.67,381.47 941.02,376.65 941.84,371.10 C942.59,366.07 944.97,363.86 947.75,365.61 C948.71,366.22 949.65,367.47 949.83,368.40 C950.16,370.08 948.27,377.60 945.39,386.00 C944.54,388.48 943.46,392.34 942.98,394.59 C942.51,396.84 941.46,400.21 940.66,402.09 C926.53,435.20 926.74,434.86 920.50,433.31 ZM 1009.42 433.08 C1009.19,432.85 1009.00,418.19 1009.00,400.49 C1009.00,370.58 1009.13,368.19 1010.83,366.65 C1013.42,364.31 1047.06,364.16 1048.99,366.49 C1049.67,367.31 1049.96,368.66 1049.64,369.49 C1049.16,370.74 1046.54,371.00 1034.15,371.00 C1023.44,371.00 1018.96,371.35 1018.22,372.25 C1017.66,372.94 1017.04,378.45 1016.85,384.50 L 1016.50 395.50 L 1029.65 395.78 C1039.75,395.99 1043.09,396.40 1044.02,397.53 C1044.99,398.69 1044.98,399.32 1044.00,400.50 C1043.02,401.68 1040.24,402.00 1031.08,402.00 C1023.33,402.00 1019.00,402.40 1018.20,403.20 C1017.41,403.99 1017.00,408.24 1017.00,415.66 C1017.00,425.78 1017.20,427.04 1018.93,427.96 C1020.00,428.54 1027.15,429.00 1034.93,429.00 C1048.17,429.00 1049.00,429.11 1049.00,430.93 C1049.00,432.00 1048.09,433.15 1046.97,433.51 C1044.83,434.19 1010.13,433.80 1009.42,433.08 ZM 1119.14 432.29 C1116.96,430.51 1116.95,430.34 1117.23,399.11 C1117.48,370.48 1117.65,367.62 1119.25,366.61 C1120.53,365.81 1121.47,365.81 1122.75,366.61 C1124.36,367.63 1124.50,370.37 1124.50,400.60 C1124.50,429.83 1124.32,433.51 1122.91,433.78 C1122.04,433.95 1120.34,433.28 1119.14,432.29 ZM 657.20 431.80 C655.74,430.34 655.67,426.94 657.00,422.12 C657.54,420.13 658.44,412.88 658.98,406.00 C659.52,399.12 660.39,389.90 660.91,385.50 C663.10,367.11 663.95,365.00 669.14,365.00 C671.35,365.00 672.52,365.86 674.45,368.92 C675.81,371.07 677.23,374.11 677.61,375.67 C677.99,377.23 680.26,382.60 682.65,387.61 C685.04,392.62 687.00,397.70 687.00,398.91 C687.00,401.56 689.68,407.00 690.99,407.00 C692.34,407.00 693.94,403.66 695.57,397.40 C696.35,394.40 697.62,390.95 698.38,389.72 C699.15,388.50 700.06,385.92 700.40,384.00 C700.74,382.08 702.71,377.12 704.76,373.00 C708.19,366.12 708.78,365.47 711.84,365.18 C716.97,364.69 718.62,366.88 719.44,375.29 C719.83,379.25 720.59,385.88 721.13,390.00 C721.67,394.12 722.49,404.25 722.97,412.50 C723.44,420.75 723.98,428.62 724.17,430.00 C724.44,432.05 724.04,432.55 721.91,432.80 C717.48,433.32 716.85,431.25 715.49,412.00 C714.42,396.65 712.68,382.41 711.74,381.24 C710.30,379.43 708.28,381.38 707.51,385.32 C707.17,387.07 706.28,390.08 705.53,392.00 C703.68,396.76 701.20,404.38 699.35,411.00 C698.51,414.02 697.39,417.01 696.88,417.64 C696.36,418.27 695.37,420.74 694.67,423.14 C693.63,426.76 693.00,427.50 690.96,427.50 C689.13,427.50 688.08,426.60 686.86,424.00 C684.51,419.00 682.89,414.10 682.07,409.50 C681.68,407.30 680.60,404.06 679.68,402.30 C678.76,400.54 678.00,398.19 678.00,397.09 C678.00,394.68 671.18,380.00 670.06,380.00 C668.50,380.00 666.21,398.81 665.38,418.47 C665.10,425.06 664.40,431.02 663.82,431.72 C662.48,433.33 658.78,433.38 657.20,431.80 ZM 374.40 415.20 C366.27,406.56 358.34,398.11 356.77,396.41 L 353.93 393.33 L 365.71 390.25 C403.40,380.42 433.50,357.84 453.67,324.25 C481.44,278.02 480.37,218.70 450.96,173.50 C429.91,141.16 398.82,119.57 360.00,110.36 C352.98,108.69 341.17,108.55 176.50,108.27 L 0.50 107.96 L 10.06 117.73 C15.32,123.10 30.37,138.75 43.51,152.50 C56.65,166.25 69.85,180.05 72.85,183.18 L 78.29 188.85 L 76.16 199.68 C72.79,216.79 72.01,222.64 71.33,236.25 C70.73,248.27 69.91,251.45 68.54,247.12 C67.70,244.49 67.75,222.36 68.60,217.50 C68.98,215.30 69.33,211.59 69.38,209.25 C69.42,206.91 69.82,205.00 70.26,205.00 C71.10,205.00 70.67,196.36 69.47,189.27 C68.89,185.84 67.93,184.42 64.41,181.77 C62.02,179.97 60.05,177.92 60.03,177.20 C60.01,176.49 58.65,175.14 57.01,174.20 C55.36,173.27 54.01,171.74 54.01,170.80 C54.00,169.05 48.19,164.00 46.18,164.00 C45.55,164.00 44.15,162.25 43.06,160.11 C41.77,157.58 40.01,155.85 38.03,155.16 C36.16,154.51 34.58,153.02 33.93,151.30 C33.34,149.76 31.51,147.15 29.86,145.50 C25.27,140.93 15.00,128.68 15.00,127.79 C15.00,127.35 14.34,127.00 13.53,127.00 C12.71,127.00 11.35,125.65 10.50,124.00 C9.65,122.35 8.53,121.00 8.01,121.00 C7.49,121.00 5.48,119.41 3.53,117.47 C0.35,114.28 0.00,113.39 0.00,108.47 L 0.00 103.00 L 60.44 103.00 C99.66,103.00 121.10,102.65 121.50,102.00 C121.84,101.45 121.65,101.00 121.07,101.00 C119.97,101.00 120.19,95.48 121.34,94.33 C121.70,93.96 122.00,92.95 122.00,92.07 C122.00,91.19 123.20,89.58 124.66,88.49 C126.12,87.39 128.17,84.59 129.20,82.26 C130.46,79.42 131.90,77.81 133.53,77.40 C136.31,76.71 147.00,65.64 147.00,63.46 C147.00,62.68 148.69,61.17 150.75,60.11 C152.81,59.04 155.49,57.23 156.71,56.09 C157.92,54.94 159.42,54.00 160.05,54.00 C160.67,54.00 164.10,51.04 167.68,47.43 C171.61,43.46 174.74,41.07 175.59,41.40 C177.49,42.13 180.00,41.07 180.00,39.55 C180.00,37.23 183.48,34.31 187.01,33.65 C189.29,33.23 190.89,32.21 191.55,30.75 C192.11,29.51 193.14,28.62 193.82,28.76 C194.51,28.91 197.55,27.89 200.57,26.51 C203.59,25.13 206.51,24.00 207.06,24.00 C207.74,24.00 207.73,23.37 207.06,22.11 C205.68,19.54 207.37,18.27 213.01,17.65 C215.48,17.38 217.50,17.08 217.50,17.00 C217.50,16.92 219.52,16.64 222.00,16.38 C224.48,16.13 227.62,15.04 229.00,13.97 C230.38,12.90 232.96,11.36 234.75,10.56 C236.54,9.76 238.00,8.70 238.00,8.20 C238.00,7.71 241.43,7.24 245.62,7.16 C251.14,7.05 254.10,6.49 256.37,5.11 C258.09,4.07 260.96,2.91 262.75,2.53 C264.54,2.15 266.00,1.43 266.00,0.92 C266.00,0.39 274.11,0.05 285.25,0.11 C305.25,0.22 305.44,0.68 286.50,3.04 C281.00,3.73 269.75,5.96 261.50,8.01 C212.66,20.13 169.21,46.28 135.36,83.92 C129.71,90.20 125.32,95.71 125.60,96.17 C125.89,96.63 145.90,97.00 170.07,97.00 L 214.02 97.00 L 221.88 92.08 C243.02,78.83 265.54,70.18 291.50,65.33 C302.78,63.23 331.24,62.47 344.03,63.94 C409.71,71.46 465.36,110.85 493.90,170.00 C510.10,203.56 516.20,240.49 511.49,276.45 C505.87,319.32 487.61,356.41 457.03,387.05 C439.00,405.12 416.44,420.15 394.20,428.92 L 389.19 430.90 L 374.40 415.20 ZM 400.22 422.04 C402.40,421.99 409.00,416.24 409.00,414.40 C409.00,412.84 410.64,412.48 411.17,413.92 C411.87,415.86 417.40,413.55 420.87,409.86 C422.87,407.74 425.17,405.99 426.00,405.97 C428.37,405.93 434.72,400.65 434.22,399.15 C433.90,398.20 434.34,397.97 435.66,398.39 C437.62,399.02 438.96,397.74 441.31,393.00 C442.00,391.62 444.20,389.73 446.20,388.78 C448.21,387.83 450.13,386.18 450.47,385.10 C450.81,384.03 452.58,382.27 454.39,381.19 C456.63,379.87 457.90,378.23 458.33,376.10 C458.68,374.37 459.76,372.66 460.73,372.29 C464.00,371.07 469.00,366.52 469.00,364.75 C469.00,363.79 469.34,363.10 469.75,363.22 C471.43,363.72 476.03,359.68 475.57,358.12 C475.02,356.30 476.58,354.04 479.52,352.39 C480.61,351.78 481.73,350.21 482.00,348.89 C482.71,345.52 485.78,340.08 489.18,336.17 C491.09,333.97 491.88,332.20 491.49,330.96 C490.94,329.22 493.26,324.11 497.64,317.42 C498.55,316.04 499.43,313.25 499.61,311.21 C499.79,309.17 500.66,304.83 501.54,301.57 C502.79,297.00 502.90,295.08 502.05,293.20 C501.13,291.19 501.25,290.53 502.72,289.42 C503.70,288.67 504.11,288.05 503.64,288.03 C503.17,288.01 503.78,287.19 505.01,286.19 C508.14,283.66 508.60,278.74 508.51,249.00 C508.45,226.75 508.21,223.09 506.69,220.25 C505.73,218.46 504.51,217.00 503.97,217.00 C503.44,217.00 503.00,215.65 503.00,214.00 C503.00,212.35 502.55,211.00 502.00,211.00 C500.73,211.00 500.68,205.31 501.95,204.53 C502.52,204.18 502.32,202.32 501.45,199.85 C500.65,197.59 500.00,195.00 500.00,194.07 C500.00,191.47 497.97,189.94 495.95,191.03 C493.33,192.43 492.27,190.28 492.50,184.00 C492.61,180.98 492.03,176.78 491.21,174.68 C489.93,171.37 489.40,170.93 487.32,171.46 C483.98,172.29 481.77,170.79 485.01,169.89 C487.38,169.23 487.39,169.19 485.25,169.10 C483.05,169.00 481.94,167.00 484.08,167.00 C485.32,167.00 484.36,161.23 482.80,159.29 C482.26,158.63 482.11,157.63 482.45,157.08 C482.79,156.53 481.24,154.91 478.99,153.49 C474.84,150.88 474.25,150.08 473.74,146.49 C473.58,145.38 472.56,143.21 471.47,141.68 C465.67,133.46 461.55,128.70 459.88,128.26 C458.84,127.99 457.99,127.26 457.97,126.63 C457.91,124.78 454.30,121.00 452.59,121.00 C451.72,121.00 451.00,120.20 451.00,119.22 C451.00,118.24 450.00,116.78 448.78,115.97 C447.57,115.16 444.46,112.36 441.87,109.75 C438.29,106.12 436.45,105.00 434.09,105.00 C432.39,105.00 431.00,104.58 431.00,104.07 C431.00,103.12 427.11,101.44 425.75,101.80 C425.34,101.91 425.00,101.12 425.00,100.04 C425.00,97.76 422.22,96.00 418.65,96.00 C415.01,96.00 413.05,95.02 413.64,93.50 C414.47,91.32 412.11,88.00 409.71,87.99 C408.50,87.99 406.21,87.32 404.64,86.49 C403.06,85.67 401.10,85.00 400.28,85.00 C399.46,85.00 397.95,83.94 396.93,82.64 C395.03,80.23 386.98,77.33 383.65,77.86 C382.63,78.03 380.92,77.22 379.85,76.07 C378.33,74.44 377.49,74.20 376.02,74.99 C373.04,76.59 371.00,76.19 371.00,74.02 C371.00,72.77 370.16,71.86 368.75,71.56 C360.32,69.75 343.80,67.70 334.51,67.31 C328.47,67.05 322.98,66.40 322.32,65.85 C321.53,65.19 320.42,65.24 318.99,66.01 C317.81,66.64 316.19,66.90 315.38,66.59 C314.58,66.29 313.67,66.70 313.36,67.52 C312.61,69.46 308.59,69.42 306.96,67.45 C306.25,66.60 305.41,66.32 305.09,66.83 C304.76,67.34 301.58,68.03 298.00,68.35 C279.70,70.02 275.76,71.11 276.21,74.39 C276.45,76.10 275.98,76.49 273.75,76.46 C272.24,76.44 271.00,76.83 271.00,77.33 C271.00,77.82 269.90,77.51 268.56,76.63 C266.35,75.18 265.96,75.18 264.57,76.58 C263.71,77.43 260.88,78.32 258.26,78.55 C255.36,78.81 253.11,79.60 252.50,80.58 C250.11,84.39 249.35,85.01 246.75,85.22 C245.24,85.34 244.00,85.77 244.00,86.19 C244.00,86.60 242.41,86.88 240.47,86.81 C237.75,86.70 236.18,87.40 233.67,89.84 C231.87,91.58 229.71,93.00 228.86,93.00 C228.01,93.00 226.50,93.90 225.50,95.00 C224.50,96.10 223.23,97.00 222.67,97.00 C222.11,97.00 220.79,97.79 219.72,98.75 C217.96,100.35 214.11,100.52 174.65,100.77 C150.92,100.92 130.82,101.37 130.00,101.77 C128.91,102.30 282.75,103.76 333.50,103.70 C337.39,103.69 338.80,103.73 344.00,103.94 C345.38,104.00 348.41,103.76 350.74,103.42 C354.12,102.92 355.11,103.12 355.61,104.42 C356.11,105.73 357.13,105.92 361.02,105.40 C365.33,104.83 365.96,105.01 367.39,107.19 C369.03,109.70 375.06,111.65 381.98,111.93 C383.90,112.00 385.90,112.50 386.43,113.03 C386.97,113.57 388.21,114.00 389.20,114.00 C390.19,114.00 391.00,114.46 391.00,115.02 C391.00,116.88 400.16,122.01 401.82,121.08 C402.92,120.46 404.24,121.18 406.58,123.65 C408.36,125.54 410.66,127.24 411.71,127.44 C415.85,128.24 421.01,130.98 421.12,132.45 C421.19,133.30 421.31,134.56 421.38,135.25 C421.44,135.94 423.63,137.18 426.24,138.00 C428.85,138.82 430.85,139.93 430.68,140.45 C430.20,141.91 433.90,145.71 437.06,147.02 C438.88,147.78 440.10,149.19 440.50,150.98 C441.40,155.09 448.84,162.68 453.00,163.73 C457.49,164.86 460.26,169.60 457.59,171.56 C456.04,172.69 456.10,173.12 458.36,177.14 C459.82,179.73 461.53,181.50 462.59,181.50 C464.05,181.51 464.39,182.41 464.47,186.43 C464.52,189.34 465.06,191.52 465.78,191.76 C466.45,191.98 467.00,193.46 467.00,195.04 C467.00,198.17 468.75,202.73 470.74,204.82 C471.43,205.55 472.00,207.65 472.00,209.50 C472.00,211.35 472.64,213.50 473.43,214.29 C474.29,215.15 475.24,219.44 475.81,225.11 C477.40,240.75 475.74,286.37 473.45,290.09 C473.14,290.59 473.30,291.00 473.80,291.00 C474.31,291.00 474.73,292.79 474.73,294.97 C474.73,297.16 474.35,298.72 473.88,298.43 C472.37,297.50 469.23,299.89 468.24,302.73 C467.71,304.26 467.48,306.89 467.73,308.58 C468.30,312.53 465.24,319.08 462.09,320.64 C460.68,321.35 458.79,323.94 457.55,326.89 C456.38,329.66 454.46,332.96 453.29,334.21 C452.12,335.47 451.01,337.85 450.83,339.50 C450.61,341.46 449.72,342.84 448.25,343.49 C447.01,344.03 446.00,344.82 446.00,345.24 C446.00,345.66 445.17,346.00 444.16,346.00 C442.36,346.00 440.00,349.70 440.00,352.52 C440.00,353.30 439.43,353.72 438.74,353.46 C437.15,352.84 430.00,358.67 430.00,360.57 C430.00,361.36 429.58,362.00 429.06,362.00 C428.54,362.00 426.13,363.69 423.69,365.75 C417.00,371.41 415.71,372.38 412.76,373.91 C410.55,375.05 410.16,375.79 410.67,377.81 C411.08,379.47 410.93,380.08 410.21,379.63 C409.61,379.26 407.19,379.44 404.81,380.02 C402.44,380.60 399.83,381.21 399.00,381.38 C398.17,381.54 397.35,382.92 397.17,384.44 C396.89,386.86 396.49,387.15 393.96,386.78 C392.16,386.52 390.89,386.86 390.57,387.68 C390.26,388.49 388.39,389.00 385.71,389.00 C379.96,389.00 372.00,391.74 372.00,393.72 C372.00,394.94 371.21,395.13 368.15,394.64 C363.38,393.88 362.84,394.38 364.63,397.95 C366.47,401.65 368.29,403.15 375.77,407.13 C377.02,407.80 378.30,409.37 378.62,410.62 C379.39,413.71 383.94,416.72 385.06,414.90 C385.71,413.85 386.31,413.97 387.98,415.48 C389.78,417.11 389.86,417.50 388.55,418.23 C387.30,418.93 387.25,419.46 388.27,421.29 C390.12,424.60 390.82,424.83 394.83,423.40 C396.85,422.68 399.27,422.07 400.22,422.04 ZM 809.75 358.75 C809.13,356.91 814.56,348.57 817.34,347.08 C820.02,345.65 823.14,345.91 823.71,347.62 C823.91,348.24 823.18,349.81 822.08,351.12 C820.97,352.43 818.89,354.96 817.45,356.75 C814.77,360.07 810.56,361.16 809.75,358.75 ZM 149.60 329.95 C137.95,304.46 132.10,274.02 133.36,245.50 C133.70,237.80 134.27,229.82 134.62,227.77 L 135.26 224.03 L 161.51 223.77 L 187.77 223.50 L 160.90 194.50 C146.11,178.55 134.02,165.14 134.01,164.71 C134.00,164.27 181.14,164.07 238.75,164.27 C358.03,164.67 349.19,164.04 368.50,173.56 C398.67,188.43 417.00,217.65 417.00,250.87 C417.00,289.81 392.33,322.89 354.50,334.69 L 345.50 337.50 L 249.40 337.78 L 153.30 338.06 L 149.60 329.95 ZM 344.56 331.38 C347.64,328.38 348.43,328.02 349.14,329.29 C350.07,330.95 352.47,330.70 357.65,328.40 C359.38,327.63 361.86,326.99 363.15,326.98 C365.36,326.97 369.63,325.05 367.53,325.02 C366.99,325.01 367.67,324.24 369.03,323.30 C370.39,322.37 372.09,320.79 372.81,319.80 C373.53,318.81 374.83,318.00 375.71,318.00 C376.59,318.00 378.79,316.88 380.59,315.50 C382.39,314.12 384.16,313.00 384.52,313.00 C386.97,313.00 397.72,299.03 396.66,297.22 C395.73,295.64 397.94,292.04 399.47,292.63 C401.87,293.55 404.00,291.11 404.00,287.44 C404.00,285.61 404.45,283.84 405.00,283.50 C405.55,283.16 406.00,281.78 406.00,280.44 C406.00,279.10 406.35,278.00 406.77,278.00 C407.19,278.00 407.47,275.94 407.38,273.41 C407.25,269.40 407.46,268.89 409.08,269.31 C412.59,270.23 413.21,267.65 413.20,252.11 C413.19,234.99 412.77,232.77 409.67,233.20 C407.65,233.48 407.52,233.14 407.82,228.27 C408.04,224.70 407.64,222.32 406.57,220.80 C405.71,219.56 405.00,217.60 405.00,216.43 C405.00,215.27 403.86,213.00 402.46,211.41 C401.06,209.81 398.76,206.40 397.34,203.83 C395.72,200.89 393.87,198.93 392.35,198.55 C391.02,198.22 389.41,196.72 388.78,195.22 C386.72,190.38 383.95,187.97 381.23,188.66 C379.16,189.18 378.87,188.98 379.37,187.39 C379.69,186.35 379.63,185.05 379.23,184.50 C378.08,182.92 371.00,179.92 371.00,181.02 C371.00,181.56 370.55,182.00 370.00,182.00 C369.45,182.00 369.00,181.37 369.00,180.59 C369.00,178.25 363.11,174.00 359.87,174.00 C358.24,174.00 355.60,173.33 354.01,172.50 C352.18,171.56 350.89,171.38 350.50,172.00 C349.73,173.24 345.31,173.32 344.57,172.11 C344.26,171.61 342.10,170.94 339.76,170.60 C337.42,170.26 334.15,169.68 332.50,169.30 C330.85,168.91 288.18,168.46 237.68,168.29 L 145.86 167.98 L 146.55 170.16 C147.64,173.60 149.12,174.64 152.28,174.17 C154.86,173.79 155.14,173.99 154.57,175.77 C153.60,178.84 157.70,185.79 162.14,188.59 C164.26,189.93 166.00,191.81 166.00,192.76 C166.01,194.58 171.45,201.00 172.98,201.00 C173.47,201.00 174.02,202.01 174.20,203.25 C174.39,204.49 175.06,205.40 175.69,205.28 C176.32,205.15 178.26,206.73 179.99,208.78 C181.73,210.82 184.91,214.38 187.07,216.67 C190.91,220.74 191.77,223.24 190.19,225.73 C189.61,226.64 182.80,227.03 164.03,227.23 L 138.66 227.50 L 138.41 230.00 C137.98,234.20 138.03,239.15 138.59,247.00 C138.88,251.12 138.71,257.84 138.22,261.92 C137.73,266.00 137.66,271.17 138.08,273.42 C138.49,275.66 138.96,279.98 139.11,283.00 C139.49,290.86 140.92,295.00 143.25,295.00 C144.35,295.00 144.98,295.53 144.72,296.25 C144.48,296.94 144.83,298.62 145.51,300.00 C146.19,301.38 147.05,304.98 147.41,308.00 C147.78,311.02 148.27,314.95 148.49,316.72 C149.03,320.99 150.54,323.65 153.53,325.61 C155.31,326.78 155.88,327.89 155.57,329.61 C154.54,335.25 150.15,335.00 249.49,335.00 L 340.83 335.00 L 344.56 331.38 ZM 748.91 284.87 C746.03,283.20 744.34,280.80 740.41,272.73 C737.71,267.20 734.73,261.94 733.78,261.04 C732.83,260.14 729.75,255.15 726.92,249.95 C724.10,244.75 721.44,240.27 721.01,240.00 C720.57,239.73 718.60,236.72 716.61,233.33 C713.05,227.26 712.88,227.13 705.25,224.58 C698.87,222.46 695.62,222.00 686.95,222.00 C680.08,222.00 675.98,222.42 675.20,223.20 C674.32,224.08 674.00,232.20 674.00,253.50 C674.00,274.80 673.68,282.92 672.80,283.80 C671.22,285.38 658.78,285.38 657.20,283.80 C655.46,282.06 655.46,136.94 657.20,135.20 C659.10,133.30 722.64,133.58 726.00,135.50 C727.38,136.29 729.65,136.95 731.05,136.96 C738.93,137.07 753.09,148.67 758.51,159.45 C761.84,166.07 762.00,166.87 762.00,177.00 C762.00,187.07 761.83,187.96 758.62,194.33 C756.76,198.02 752.94,203.35 750.12,206.16 C747.31,208.98 745.00,211.63 745.00,212.06 C745.00,212.48 741.81,214.04 737.92,215.53 C734.02,217.02 729.72,219.20 728.35,220.38 L 725.86 222.52 L 729.68 226.66 C731.79,228.94 735.49,234.51 737.90,239.05 C740.32,243.59 743.12,248.12 744.13,249.13 C745.14,250.14 747.97,254.97 750.43,259.87 C752.89,264.77 756.24,270.23 757.87,272.01 C761.92,276.45 764.61,283.56 762.97,285.53 C761.14,287.74 753.20,287.36 748.91,284.87 ZM 720.00 206.01 C728.78,204.31 732.51,202.49 737.50,197.50 C747.67,187.33 748.90,170.99 740.37,159.36 C739.10,157.63 734.58,154.30 730.33,151.97 L 722.59 147.72 L 699.82 147.22 C682.32,146.83 676.70,147.01 675.52,147.98 C674.23,149.06 674.00,153.35 674.00,176.92 C674.00,197.12 674.32,204.92 675.20,205.80 C676.63,207.23 712.83,207.40 720.00,206.01 ZM 1414.00 285.17 C1413.45,284.98 1413.00,282.10 1413.00,278.77 C1413.00,273.46 1413.46,272.01 1416.68,267.10 C1418.71,264.02 1420.70,261.27 1421.10,260.99 C1421.51,260.71 1423.00,258.18 1424.41,255.38 C1425.82,252.57 1427.68,249.68 1428.54,248.96 C1429.41,248.25 1431.30,245.60 1432.75,243.08 C1435.01,239.13 1436.99,236.30 1440.88,231.44 C1441.35,230.85 1442.30,229.28 1442.99,227.94 C1443.68,226.60 1445.05,224.60 1446.03,223.50 C1447.01,222.40 1448.84,219.48 1450.09,217.00 C1451.34,214.52 1453.30,211.33 1454.43,209.89 C1456.52,207.25 1457.43,205.96 1461.02,200.50 C1463.23,197.15 1469.48,187.78 1472.43,183.38 C1473.50,181.79 1476.40,177.35 1478.89,173.50 C1481.37,169.65 1483.65,166.27 1483.96,166.00 C1486.25,163.94 1494.07,150.63 1493.81,149.24 C1493.50,147.63 1490.58,147.48 1454.07,147.24 C1427.02,147.06 1414.26,146.63 1413.34,145.87 C1411.59,144.41 1411.61,136.57 1413.36,135.11 C1414.35,134.30 1428.61,134.05 1464.61,134.24 L 1514.50 134.50 L 1514.80 140.20 C1515.11,146.13 1512.96,152.13 1509.50,155.00 C1508.59,155.76 1506.75,158.43 1505.42,160.94 C1504.08,163.45 1500.08,169.55 1496.51,174.50 C1492.95,179.45 1488.94,185.55 1487.60,188.06 C1486.25,190.57 1484.41,193.24 1483.50,194.00 C1482.59,194.76 1480.75,197.43 1479.42,199.94 C1478.08,202.45 1474.07,208.55 1470.51,213.50 C1466.95,218.45 1462.66,225.11 1460.97,228.30 C1457.98,233.98 1450.54,244.91 1447.49,248.10 C1446.65,248.98 1444.81,252.10 1443.40,255.03 C1441.98,257.95 1439.71,261.23 1438.34,262.31 C1436.97,263.38 1435.42,265.38 1434.90,266.75 C1432.91,271.99 1432.96,272.00 1474.92,272.00 C1503.67,272.00 1513.91,272.31 1514.80,273.20 C1516.41,274.81 1516.33,282.48 1514.69,283.84 C1513.80,284.58 1497.71,285.02 1464.19,285.21 C1437.13,285.37 1414.54,285.35 1414.00,285.17 ZM 804.20 283.80 C802.46,282.06 802.46,136.94 804.20,135.20 C805.93,133.47 891.07,133.47 892.80,135.20 C893.46,135.86 894.00,138.24 894.00,140.50 C894.00,142.76 893.46,145.14 892.80,145.80 C891.91,146.69 882.58,147.00 857.00,147.00 C831.42,147.00 822.09,147.31 821.20,148.20 C820.33,149.07 820.00,156.20 820.00,174.00 C820.00,191.80 820.33,198.93 821.20,199.80 C822.08,200.68 830.10,201.00 851.04,201.00 C877.91,201.00 879.80,201.12 881.41,202.90 C882.60,204.21 883.03,206.09 882.81,209.02 L 882.50 213.24 L 852.87 213.07 C826.73,212.92 823.06,213.09 821.62,214.52 C820.21,215.94 820.00,219.55 820.00,242.95 C820.00,264.10 820.28,269.99 821.34,270.86 C822.24,271.62 833.82,272.06 857.48,272.24 C888.07,272.47 892.40,272.69 893.29,274.10 C894.65,276.25 893.46,280.50 890.80,282.97 C888.69,284.94 887.43,285.00 847.01,285.00 C815.98,285.00 805.09,284.69 804.20,283.80 ZM 919.43 283.67 C918.81,282.05 920.62,273.56 922.22,270.62 C922.85,269.46 923.69,266.70 924.08,264.50 C924.47,262.30 925.26,259.15 925.84,257.50 C926.43,255.85 927.63,251.80 928.51,248.50 C929.40,245.20 930.77,241.02 931.56,239.22 C932.35,237.41 933.02,234.93 933.04,233.72 C933.05,232.50 933.71,230.38 934.50,229.00 C935.29,227.62 935.95,225.24 935.96,223.71 C935.98,222.18 936.90,219.16 938.00,217.00 C939.10,214.84 940.00,212.15 940.00,211.01 C940.00,209.87 941.35,206.27 943.00,203.00 C944.65,199.73 946.00,196.32 946.00,195.42 C946.00,193.81 953.15,176.35 957.02,168.50 C958.11,166.30 959.60,162.65 960.33,160.39 C961.87,155.67 967.56,145.54 972.36,139.00 L 975.66 134.50 L 983.14 134.21 C989.31,133.97 990.90,134.24 992.20,135.71 C993.06,136.70 997.15,144.25 1001.28,152.50 C1012.12,174.17 1015.00,180.44 1015.00,182.36 C1015.00,183.29 1016.38,186.79 1018.07,190.13 C1021.72,197.38 1034.00,233.85 1034.00,237.48 C1034.00,238.36 1034.90,240.84 1036.00,243.00 C1037.10,245.16 1038.00,248.09 1038.00,249.53 C1038.00,250.96 1038.50,253.06 1039.11,254.20 C1039.72,255.34 1040.82,259.47 1041.57,263.38 C1042.32,267.30 1043.65,273.12 1044.54,276.33 C1045.43,279.54 1045.91,282.80 1045.61,283.58 C1044.91,285.41 1034.11,285.53 1031.67,283.74 C1029.87,282.43 1027.48,275.17 1025.89,266.20 C1025.38,263.29 1024.30,259.01 1023.49,256.70 C1022.69,254.39 1022.02,251.60 1022.01,250.50 C1022.00,249.40 1021.10,247.04 1020.01,245.25 L 1018.03 242.00 L 983.20 242.00 C949.54,242.00 948.30,242.07 946.19,244.04 C944.98,245.16 943.98,246.17 943.95,246.29 C943.92,246.41 943.30,249.88 942.56,254.00 C941.83,258.12 940.77,262.85 940.20,264.50 C937.81,271.46 937.00,274.83 937.00,277.89 C937.00,284.10 935.79,285.00 927.43,285.00 C922.12,285.00 919.79,284.61 919.43,283.67 ZM 1013.34 222.50 C1012.98,219.75 1011.18,214.36 1009.34,210.53 C1007.50,206.69 1006.00,202.57 1006.00,201.36 C1006.00,200.15 1004.50,196.32 1002.66,192.83 C1000.82,189.35 999.02,184.93 998.65,183.00 C997.93,179.23 986.65,155.63 984.19,152.75 C983.06,151.43 982.37,151.28 981.35,152.13 C980.61,152.74 980.00,153.75 979.99,154.37 C979.99,154.99 978.87,157.75 977.52,160.50 C976.17,163.25 975.05,166.01 975.03,166.63 C975.01,167.25 974.33,168.32 973.50,169.00 C972.67,169.68 972.00,171.00 972.00,171.92 C972.00,172.84 969.08,179.42 965.50,186.54 C961.92,193.66 958.99,200.38 958.98,201.49 C958.97,202.60 958.02,205.52 956.88,208.00 C955.01,212.05 951.00,224.83 951.00,226.74 C951.00,227.16 965.18,227.50 982.50,227.50 L 1014.00 227.50 L 1013.34 222.50 ZM 1079.20 283.80 C1077.46,282.06 1077.46,136.94 1079.20,135.20 C1079.86,134.54 1082.92,134.00 1086.00,134.00 C1089.08,134.00 1092.14,134.54 1092.80,135.20 C1093.71,136.11 1094.00,152.53 1094.00,203.00 C1094.00,253.47 1094.29,269.89 1095.20,270.80 C1096.09,271.69 1105.42,272.00 1131.00,272.00 C1156.58,272.00 1165.91,272.31 1166.80,273.20 C1167.46,273.86 1168.00,276.24 1168.00,278.50 C1168.00,280.76 1167.46,283.14 1166.80,283.80 C1165.07,285.53 1080.93,285.53 1079.20,283.80 ZM 1213.20 283.80 C1211.46,282.06 1211.46,136.94 1213.20,135.20 C1214.76,133.64 1224.24,133.64 1225.80,135.20 C1227.54,136.94 1227.54,282.06 1225.80,283.80 C1224.24,285.36 1214.76,285.36 1213.20,283.80 ZM 1279.01 283.51 C1276.98,281.06 1278.16,270.86 1280.88,267.40 C1282.13,265.80 1285.45,260.90 1288.26,256.50 C1291.07,252.10 1293.65,248.27 1293.99,248.00 C1294.33,247.73 1295.63,245.81 1296.88,243.75 C1298.14,241.69 1299.52,240.00 1299.96,240.00 C1300.40,240.00 1301.77,237.64 1303.01,234.75 C1304.25,231.86 1306.12,228.91 1307.15,228.18 C1308.19,227.45 1310.17,224.63 1311.55,221.90 C1312.94,219.17 1314.87,216.13 1315.85,215.15 C1316.83,214.17 1319.32,210.59 1321.39,207.18 C1323.45,203.78 1325.51,201.00 1325.95,201.00 C1326.39,201.00 1327.77,198.64 1329.01,195.75 C1330.25,192.86 1332.12,189.91 1333.15,189.18 C1334.19,188.45 1336.17,185.63 1337.55,182.90 C1338.94,180.17 1340.87,177.13 1341.85,176.15 C1342.83,175.17 1345.30,171.62 1347.34,168.26 C1349.38,164.90 1351.44,162.00 1351.92,161.82 C1353.17,161.35 1358.97,148.77 1358.38,147.81 C1358.11,147.36 1340.22,147.00 1318.64,147.00 C1289.45,147.00 1279.09,146.69 1278.20,145.80 C1277.54,145.14 1277.00,142.76 1277.00,140.50 C1277.00,138.24 1277.54,135.86 1278.20,135.20 C1279.93,133.47 1376.07,133.47 1377.80,135.20 C1378.46,135.86 1379.00,138.68 1379.00,141.47 C1379.00,145.68 1378.23,147.86 1374.48,154.27 C1371.99,158.52 1369.57,162.00 1369.10,162.00 C1368.63,162.00 1367.32,164.15 1366.19,166.79 C1365.05,169.42 1363.15,172.46 1361.96,173.54 C1360.76,174.62 1358.69,177.65 1357.36,180.28 C1356.02,182.92 1354.13,185.87 1353.15,186.85 C1352.17,187.83 1349.68,191.41 1347.61,194.82 C1345.55,198.22 1343.49,201.00 1343.05,201.00 C1342.61,201.00 1341.27,203.27 1340.07,206.05 C1338.88,208.83 1337.11,211.89 1336.14,212.86 C1335.16,213.84 1332.68,217.41 1330.61,220.82 C1328.55,224.22 1326.49,227.00 1326.05,227.00 C1325.61,227.00 1324.32,229.15 1323.19,231.79 C1322.05,234.42 1320.15,237.46 1318.96,238.54 C1317.76,239.62 1315.93,242.07 1314.88,244.00 C1313.83,245.93 1310.26,251.32 1306.93,256.00 C1303.61,260.67 1300.19,265.51 1299.34,266.74 C1295.71,271.97 1295.59,271.96 1339.71,272.24 L 1380.50 272.50 L 1380.50 278.50 L 1380.50 284.50 L 1330.38 284.76 C1286.74,284.98 1280.10,284.82 1279.01,283.51 ZM 1541.39 283.58 C1541.09,282.80 1541.58,279.54 1542.48,276.33 C1543.37,273.12 1544.54,268.02 1545.08,265.00 C1545.93,260.18 1547.51,254.63 1551.20,243.50 C1551.75,241.85 1552.53,238.93 1552.93,237.00 C1553.33,235.07 1554.41,232.06 1555.33,230.30 C1556.25,228.54 1557.00,226.06 1557.00,224.79 C1557.00,221.64 1562.31,206.87 1565.29,201.71 C1566.63,199.39 1568.05,195.73 1568.44,193.57 C1568.84,191.40 1570.63,186.68 1572.43,183.07 C1574.23,179.46 1576.25,174.26 1576.92,171.51 C1577.60,168.77 1578.46,166.30 1578.84,166.01 C1579.22,165.73 1582.21,160.10 1585.47,153.50 C1588.74,146.90 1592.45,139.81 1593.72,137.75 L 1596.03 134.00 L 1604.36 134.00 C1611.04,134.00 1613.00,134.35 1614.24,135.75 C1616.77,138.60 1629.94,165.42 1631.64,171.19 C1632.50,174.11 1635.41,181.04 1638.10,186.58 C1640.80,192.13 1643.00,197.61 1643.00,198.75 C1643.00,199.90 1644.57,204.12 1646.50,208.14 C1648.43,212.16 1650.00,216.10 1650.00,216.90 C1650.00,217.70 1651.20,221.76 1652.66,225.92 C1654.12,230.09 1655.67,235.30 1656.10,237.50 C1657.91,246.69 1658.75,249.68 1660.44,252.92 C1661.42,254.80 1662.83,259.52 1663.58,263.42 C1664.32,267.31 1665.65,273.12 1666.54,276.33 C1668.74,284.28 1668.29,285.00 1661.22,285.00 C1654.64,285.00 1651.43,282.98 1650.48,278.22 C1650.18,276.73 1649.50,274.12 1648.97,272.43 C1648.43,270.74 1648.00,268.45 1648.00,267.34 C1648.00,266.22 1647.10,262.70 1646.00,259.50 C1644.90,256.30 1644.00,252.52 1644.00,251.09 C1643.99,249.67 1643.10,247.04 1642.01,245.25 L 1640.03 242.00 L 1605.20 242.00 C1571.60,242.00 1570.30,242.07 1568.20,244.03 C1567.00,245.14 1565.77,247.28 1565.45,248.78 C1565.14,250.27 1564.22,253.77 1563.41,256.54 C1561.85,261.92 1560.33,269.38 1559.16,277.50 C1558.76,280.25 1558.09,283.06 1557.66,283.75 C1556.50,285.61 1542.12,285.46 1541.39,283.58 ZM 1636.00 226.74 C1636.00,224.83 1631.99,212.05 1630.12,208.00 C1628.98,205.52 1628.03,202.52 1628.02,201.33 C1628.01,200.14 1626.50,196.32 1624.66,192.83 C1622.82,189.35 1621.02,184.93 1620.65,183.00 C1619.86,178.94 1607.62,153.76 1605.62,152.10 C1603.92,150.69 1602.73,152.03 1601.06,157.24 C1600.39,159.30 1599.27,161.33 1598.57,161.74 C1596.72,162.84 1595.06,166.37 1593.42,172.65 C1592.63,175.68 1591.31,178.83 1590.49,179.65 C1589.67,180.47 1588.71,182.35 1588.34,183.82 C1587.98,185.29 1586.18,189.35 1584.34,192.83 C1582.50,196.32 1580.99,200.14 1580.98,201.33 C1580.97,202.52 1580.02,205.52 1578.88,208.00 C1577.01,212.05 1573.00,224.83 1573.00,226.74 C1573.00,227.16 1587.18,227.50 1604.50,227.50 C1621.82,227.50 1636.00,227.16 1636.00,226.74 ZM 1723.20 283.80 C1722.29,282.89 1722.00,266.47 1722.00,216.00 C1722.00,165.53 1721.71,149.11 1720.80,148.20 C1719.94,147.34 1713.47,147.00 1698.00,147.00 C1682.53,147.00 1676.06,146.66 1675.20,145.80 C1674.54,145.14 1674.00,142.76 1674.00,140.50 C1674.00,138.24 1674.54,135.86 1675.20,135.20 C1676.10,134.30 1689.44,134.00 1729.08,134.00 C1786.52,134.00 1784.50,133.79 1783.82,139.66 C1783.61,141.49 1782.35,143.21 1780.10,144.72 C1776.86,146.90 1775.83,147.00 1757.55,147.00 C1743.99,147.00 1738.05,147.35 1737.20,148.20 C1736.29,149.11 1736.00,165.53 1736.00,216.00 C1736.00,266.47 1735.71,282.89 1734.80,283.80 C1733.24,285.36 1724.76,285.36 1723.20,283.80 ZM 1828.20 283.80 C1826.46,282.06 1826.46,136.94 1828.20,135.20 C1828.88,134.52 1832.13,134.00 1835.70,134.00 L 1842.00 134.00 L 1842.00 209.50 L 1842.00 285.00 L 1835.70 285.00 C1832.13,285.00 1828.88,284.48 1828.20,283.80 Z" fill="rgb(253,253,253)"/>
</g>
</svg>