<svg xmlns="http://www.w3.org/2000/svg" width="1842" height="569" viewBox="0 0 1842 569">
<g>
<path d="M 156.36 338.20 C158.09,338.36 200.00,338.44 249.50,338.36 C346.28,338.22 346.84,338.19 360.16,332.94 C387.17,322.29 406.32,301.65 414.07,274.82 C417.05,264.51 417.80,245.08 415.64,234.41 C411.38,213.36 399.78,194.77 383.06,182.16 C369.35,171.84 355.90,166.69 338.19,165.02 C325.80,163.84 133.98,163.59 134.04,164.75 C134.06,165.16 146.18,178.55 160.96,194.50 L 187.85 223.50 L 135.16 224.03 L 134.33 230.77 C132.89,242.49 133.45,269.52 135.39,281.37 C138.34,299.45 143.03,315.42 149.74,330.20 C152.92,337.20 153.51,337.92 156.36,338.20 Z" fill="rgb(53,34,27)"/>
<path d="M 458.91 0.48 C372.99,0.67 347.73,0.97 347.72,1.45 C347.72,1.50 347.99,1.56 348.50,1.61 C387.68,5.79 423.32,17.76 454.97,37.30 C418.70,15.16 378.01,2.76 334.50,0.67 C334.48,0.67 334.48,0.67 334.48,0.66 C334.48,0.61 380.29,0.54 458.91,0.48 ZM 517.17 414.40 C497.52,438.03 474.11,457.43 445.88,473.50 C473.67,457.67 497.65,437.68 517.17,414.40 ZM 192.90 36.56 C211.96,25.01 232.26,16.25 254.15,10.14 C251.14,11.02 248.09,11.96 245.00,12.98 C226.04,19.19 208.97,26.88 192.90,36.56 ZM 294.64 2.06 C297.56,1.69 300.52,1.35 303.50,1.06 C306.57,0.75 275.04,0.46 226.53,0.28 C278.65,0.46 311.12,0.76 306.10,1.08 C302.20,1.33 298.39,1.65 294.64,2.06 ZM 534.71 114.80 C547.75,134.76 557.67,156.10 564.48,178.16 C557.61,156.08 547.65,134.80 534.71,114.80 ZM 575.51 262.42 C574.73,282.63 571.52,302.77 565.91,322.35 C568.12,314.57 569.98,306.63 571.46,298.55 C573.68,286.49 575.02,274.43 575.51,262.42 ZM 487.61 61.37 C492.04,65.23 496.37,69.26 500.60,73.47 C502.58,75.44 504.42,77.29 506.13,79.04 C500.26,73.08 493.68,66.80 487.61,61.37 Z" fill="rgb(101,90,85)"/>
<path d="M 134.22 85.43 C134.58,85.03 134.94,84.61 135.30,84.20 C145.25,72.97 156.47,62.60 168.62,53.27 C163.93,56.92 159.29,60.79 154.68,64.88 C148.58,70.30 140.29,78.73 134.22,85.43 ZM 238.23 15.15 C249.74,10.99 261.48,7.71 273.25,5.39 C266.94,6.69 260.62,8.26 254.15,10.14 C248.75,11.65 243.44,13.32 238.23,15.15 ZM 295.85 1.91 C298.16,1.55 300.05,1.22 301.00,1.01 C301.49,0.90 297.51,0.79 289.93,0.68 C299.83,0.80 304.81,0.93 303.50,1.06 C300.93,1.31 298.38,1.60 295.85,1.91 ZM 347.72 1.45 C349.04,1.63 350.51,1.82 352.04,1.99 C364.13,3.38 376.04,5.62 387.70,8.69 C375.06,5.41 361.99,3.05 348.50,1.61 C348.00,1.56 347.73,1.50 347.72,1.45 Z" fill="rgb(144,134,133)"/>
<path d="M 156.36 338.20 C153.51,337.92 152.92,337.20 149.74,330.20 C143.03,315.42 138.34,299.45 135.39,281.37 C133.45,269.52 132.89,242.49 134.33,230.77 L 135.16 224.03 L 161.50 223.77 L 187.85 223.50 L 160.96 194.50 C146.18,178.55 134.06,165.16 134.04,164.75 C133.98,163.59 325.80,163.84 338.19,165.02 C355.90,166.69 369.35,171.84 383.06,182.16 C399.78,194.77 411.38,213.36 415.64,234.41 C417.80,245.08 417.05,264.51 414.07,274.82 C406.32,301.65 387.17,322.29 360.16,332.94 C346.84,338.19 346.28,338.22 249.50,338.36 C200.00,338.44 158.09,338.36 156.36,338.20 Z" fill="rgb(254,254,254)"/>
</g>
</svg>