<svg xmlns="http://www.w3.org/2000/svg" width="1842" height="569" viewBox="0 0 1842 569">
<g>
<path d="M 763.39 285.70 C762.42,286.42 759.45,287.00 756.79,287.00 C749.76,287.00 747.39,284.17 731.62,256.86 C716.43,230.56 712.81,226.21 703.89,223.56 C700.98,222.70 692.84,221.70 685.81,221.34 L 673.03 220.69 L 672.76 253.10 L 672.50 285.50 L 665.25 285.79 L 658.00 286.09 L 658.00 133.82 L 690.75 134.27 C726.37,134.76 729.53,135.19 740.94,140.99 C753.39,147.32 760.24,157.02 762.27,171.20 C765.27,192.09 752.80,211.14 731.39,218.36 L 725.05 220.50 L 728.62 225.00 C730.58,227.48 739.60,241.85 748.67,256.95 C763.83,282.20 765.02,284.51 763.39,285.70 ZM 1567.54 241.50 L 1556.69 286.00 L 1549.40 286.00 C1545.40,286.00 1541.88,285.62 1541.59,285.15 C1541.31,284.69 1542.88,277.37 1545.08,268.90 C1557.81,220.05 1568.96,189.34 1586.96,153.50 L 1596.50 134.50 L 1605.06 134.21 L 1613.61 133.93 L 1623.24 153.71 C1639.86,187.89 1651.56,219.95 1662.98,262.62 C1663.60,264.93 1664.16,267.01 1664.67,268.89 C1667.64,279.82 1668.68,283.65 1667.31,284.94 C1666.58,285.64 1665.15,285.60 1662.95,285.54 C1662.25,285.52 1661.48,285.50 1660.62,285.50 L 1652.74 285.50 L 1649.45 271.36 C1647.64,263.58 1645.17,253.56 1643.97,249.10 L 1641.77 240.98 L 1604.66 241.24 ZM 935.42 284.75 C935.06,286.02 920.96,286.63 919.76,285.43 C918.46,284.12 933.86,229.68 941.96,206.98 C947.89,190.36 957.45,168.36 966.51,150.50 L 974.63 134.50 L 983.15 134.21 L 991.68 133.93 L 997.74 145.71 C1015.03,179.36 1029.35,217.91 1041.47,263.41 C1041.93,265.13 1042.35,266.71 1042.75,268.18 C1045.79,279.52 1046.86,283.49 1045.43,284.85 C1044.67,285.58 1043.18,285.55 1040.89,285.52 C1040.34,285.51 1039.75,285.50 1039.11,285.50 C1033.56,285.50 1031.52,285.13 1030.93,284.00 C1030.49,283.17 1028.47,275.30 1026.43,266.50 C1024.40,257.70 1022.10,248.36 1021.33,245.75 L 1019.92 241.00 L 946.09 241.00 L 945.19 244.26 C944.70,246.06 942.37,255.62 940.03,265.51 C937.69,275.41 935.61,284.06 935.42,284.75 ZM 887.22 284.96 C884.95,285.59 868.02,285.99 843.75,285.99 L 804.00 286.00 L 804.00 134.00 L 894.00 134.00 L 894.00 147.00 L 819.00 147.00 L 819.00 201.00 L 882.78 201.00 L 883.45 204.58 C883.82,206.55 883.83,209.48 883.48,211.08 L 882.84 214.00 L 818.97 214.00 L 819.23 243.25 L 819.50 272.50 L 894.00 273.02 L 894.00 276.29 C894.00,280.74 891.67,283.72 887.22,284.96 ZM 1517.10 273.00 L 1516.50 285.50 L 1465.93 285.76 C1438.11,285.90 1415.05,285.71 1414.68,285.34 C1414.30,284.97 1414.01,281.93 1414.02,278.58 L 1414.03 272.50 L 1455.48 210.00 L 1496.92 147.50 L 1455.39 147.00 L 1413.87 146.50 L 1413.61 140.25 L 1413.36 134.00 L 1515.00 134.00 L 1515.00 146.96 L 1473.60 209.41 C1450.82,243.76 1432.45,272.12 1432.76,272.43 C1433.08,272.74 1452.18,273.00 1475.21,273.00 ZM 1381.10 273.00 L 1380.50 285.50 L 1329.75 285.76 L 1279.00 286.02 L 1279.00 271.50 L 1361.99 147.02 L 1278.50 146.50 L 1277.90 134.00 L 1379.00 134.00 L 1379.00 147.90 L 1338.00 209.57 C1315.45,243.49 1297.00,271.64 1297.00,272.12 C1297.00,272.61 1315.67,273.00 1339.05,273.00 ZM 673.67 207.33 C675.04,208.71 712.68,208.04 719.96,206.51 C737.85,202.74 746.26,193.31 746.26,177.00 C746.26,170.43 745.80,168.12 743.61,163.63 C737.24,150.61 725.22,147.00 688.25,147.00 L 673.00 147.00 L 673.00 176.83 C673.00,193.24 673.30,206.97 673.67,207.33 ZM 1737.01 147.00 L 1736.50 285.50 L 1729.46 285.79 C1725.58,285.95 1722.09,285.76 1721.71,285.37 C1721.32,284.98 1721.00,253.70 1721.00,215.85 L 1721.00 147.04 L 1674.50 146.50 L 1673.90 134.00 L 1784.00 134.00 L 1783.98 138.25 C1783.95,146.57 1782.67,147.00 1757.57,147.00 ZM 826.59 432.96 C820.34,435.98 810.78,436.52 804.33,434.21 C796.52,431.42 792.54,427.84 788.81,420.27 C785.54,413.62 785.50,413.37 785.50,399.52 C785.50,387.02 785.75,384.95 787.81,380.39 C789.08,377.58 791.78,373.67 793.81,371.69 C799.19,366.45 803.97,364.80 813.74,364.80 C820.73,364.80 822.95,365.23 827.51,367.46 C835.72,371.48 840.16,379.00 842.01,392.04 C843.22,400.61 841.88,413.16 839.07,419.55 C836.57,425.23 831.67,430.50 826.59,432.96 ZM 1168.10 273.00 L 1167.50 285.50 L 1123.93 285.76 C1099.96,285.90 1080.05,285.72 1079.68,285.34 C1079.30,284.97 1079.00,250.77 1079.00,209.33 L 1079.00 134.00 L 1095.00 134.00 L 1095.00 273.00 ZM 1572.00 227.02 C1572.00,227.64 1584.01,228.00 1605.00,228.00 C1623.15,228.00 1638.00,227.80 1638.00,227.57 C1638.00,226.42 1628.73,201.22 1624.64,191.22 C1618.89,177.21 1605.94,150.00 1605.00,150.00 C1604.25,150.00 1590.87,177.45 1585.40,190.24 C1581.60,199.10 1572.00,225.47 1572.00,227.02 ZM 950.00 227.70 C950.00,227.86 964.86,228.00 983.02,228.00 L 1016.04 228.00 L 1015.37 225.25 C1014.22,220.52 1005.42,196.99 1000.53,185.59 C994.43,171.35 984.21,151.00 983.16,151.00 C982.04,151.00 966.08,184.00 960.92,197.00 C957.42,205.79 950.00,226.66 950.00,227.70 ZM 1226.76 209.75 L 1226.50 285.50 L 1219.46 285.79 C1215.58,285.95 1212.09,285.76 1211.71,285.37 C1211.32,284.98 1211.00,250.77 1211.00,209.33 L 1211.00 134.00 L 1227.01 134.00 ZM 1842.00 134.00 L 1842.00 286.00 L 1827.00 286.00 L 1827.00 134.00 L 1842.00 134.00 ZM 803.80 426.96 C808.34,429.36 818.78,429.68 822.90,427.55 C830.99,423.37 835.00,414.06 835.00,399.48 C835.00,389.02 833.36,382.47 829.45,377.35 C825.95,372.76 821.60,371.00 813.74,371.00 C799.75,371.00 793.15,378.75 792.24,396.28 C791.42,411.97 795.39,422.52 803.80,426.96 ZM 664.40 431.75 C663.98,434.56 663.51,435.00 661.01,435.00 C659.42,435.00 657.93,434.66 657.70,434.25 C656.40,431.89 660.07,391.72 663.34,372.50 L 664.54 365.50 L 668.61 365.20 L 672.68 364.90 L 675.28 370.70 C679.28,379.62 685.51,395.70 688.08,403.75 C689.35,407.74 690.64,411.00 690.95,411.00 C691.25,411.00 693.37,405.49 695.65,398.75 C697.93,392.01 701.91,381.66 704.50,375.75 L 709.21 365.00 L 713.09 365.00 C713.33,365.00 713.56,365.00 713.78,364.99 C714.82,364.98 715.55,364.97 716.10,365.28 C717.52,366.04 717.85,368.79 719.46,378.50 C721.75,392.37 724.00,415.95 724.00,426.03 L 724.00 435.13 L 717.50 434.50 L 716.82 420.91 C716.22,408.80 714.04,388.46 712.34,379.12 C711.79,376.10 711.61,375.94 710.64,377.62 C710.03,378.65 705.88,390.30 701.40,403.50 C693.83,425.84 693.10,427.50 690.88,427.50 C688.68,427.50 688.07,426.18 682.84,410.19 C675.53,387.86 670.92,376.38 669.95,378.15 C668.77,380.31 665.96,404.22 665.40,416.88 C665.12,423.27 664.67,429.96 664.40,431.75 ZM 1227.54 434.46 C1224.26,435.31 1219.99,435.95 1218.04,435.90 C1206.32,435.57 1194.91,428.80 1193.41,421.31 C1192.89,418.68 1193.20,417.91 1195.42,416.46 C1196.88,415.51 1198.17,414.90 1198.31,415.11 C1198.45,415.33 1199.30,417.14 1200.22,419.15 C1203.45,426.28 1212.99,430.83 1221.92,429.49 C1231.14,428.11 1237.00,422.73 1237.00,415.65 C1237.00,408.11 1233.45,405.35 1217.50,400.52 C1206.28,397.11 1201.96,394.93 1198.67,391.01 C1191.79,382.84 1195.51,370.82 1206.26,366.51 C1212.75,363.90 1225.67,364.18 1231.59,367.04 C1236.35,369.35 1242.00,376.48 1242.00,380.20 C1242.00,382.80 1237.41,382.54 1235.24,379.81 C1229.02,371.97 1223.36,369.27 1215.44,370.35 C1206.37,371.60 1202.55,375.13 1202.55,382.28 C1202.55,387.71 1205.97,390.26 1218.50,394.16 C1239.97,400.85 1244.00,404.05 1244.00,414.34 C1244.00,424.97 1238.57,431.60 1227.54,434.46 ZM 1049.43 433.43 C1048.11,434.75 1044.82,435.00 1029.10,435.00 C1018.78,435.00 1010.03,434.70 1009.67,434.33 C1009.30,433.97 1009.00,418.22 1009.00,399.33 L 1009.00 365.00 L 1051.00 365.00 L 1051.00 371.00 L 1016.00 371.00 L 1016.00 396.00 L 1046.00 396.00 L 1046.00 402.00 L 1015.94 402.00 L 1016.22 415.25 L 1016.50 428.50 L 1033.75 428.77 C1047.77,429.00 1051.00,429.31 1051.00,430.45 C1051.00,431.22 1050.29,432.56 1049.43,433.43 ZM 931.71 422.00 C925.51,434.48 925.49,434.50 921.71,434.81 L 917.93 435.13 L 911.55 421.81 C902.90,403.78 897.17,386.77 893.49,368.25 C892.85,365.04 892.88,365.00 896.67,365.00 L 900.50 365.01 L 902.29 374.25 C903.28,379.34 905.82,388.70 907.94,395.05 C911.80,406.60 920.30,426.00 921.50,426.00 C921.85,426.00 924.54,420.94 927.47,414.75 C932.99,403.10 938.94,385.72 940.93,375.42 C942.36,368.06 942.68,365.88 943.84,365.24 C944.33,364.98 944.96,364.99 945.90,365.00 C946.09,365.00 946.30,365.00 946.52,365.00 L 946.78 365.00 C948.05,365.00 948.89,365.00 949.35,365.41 C950.24,366.22 949.72,368.58 948.19,375.49 L 948.03 376.21 C944.93,390.21 938.40,408.55 931.71,422.00 ZM 1125.00 365.00 L 1125.00 435.00 L 1122.17 435.00 C1120.61,435.00 1119.03,434.70 1118.67,434.33 C1118.30,433.97 1118.00,418.22 1118.00,399.33 L 1118.00 365.00 ZM 818.61 355.25 C814.76,359.76 813.08,361.00 810.85,361.00 C809.28,361.00 808.00,360.72 808.00,360.37 C808.00,360.03 810.29,356.65 813.09,352.87 C817.92,346.36 818.40,346.00 822.22,346.00 C822.51,346.00 822.78,346.00 823.04,345.99 C824.31,345.98 825.13,345.97 825.34,346.33 C825.71,346.95 824.22,348.69 820.11,353.49 C819.65,354.04 819.15,354.62 818.61,355.25 Z" fill="rgb(53,35,28)"/>
<path d="M 149.92 331.25 L 153.02 338.00 L 245.40 338.00 L 248.79 338.00 C331.64,338.00 344.31,338.00 355.71,334.18 C357.92,333.44 360.08,332.56 362.70,331.50 C388.19,321.23 406.96,299.59 414.72,271.56 C417.16,262.75 417.11,239.90 414.63,230.50 C410.34,214.24 401.19,199.03 388.71,187.40 C380.17,179.46 371.79,174.23 360.69,169.95 C345.45,164.06 343.34,163.96 233.11,164.25 L 132.99 164.50 L 160.00 193.68 C174.85,209.73 187.00,223.12 187.00,223.43 C187.00,223.74 175.35,224.00 161.12,224.00 L 135.23 224.00 L 134.61 226.75 C133.20,232.94 132.78,260.86 133.94,271.45 C136.19,292.14 142.06,314.10 149.92,331.25 Z" fill="rgb(203,170,133)"/>
<path d="M 826.59 432.96 C831.67,430.50 836.57,425.23 839.07,419.55 C841.88,413.16 843.22,400.61 842.01,392.04 C840.16,379.00 835.72,371.48 827.51,367.46 C822.95,365.23 820.73,364.80 813.74,364.80 C803.97,364.80 799.19,366.45 793.81,371.69 C791.78,373.67 789.08,377.58 787.81,380.39 C785.75,384.95 785.50,387.02 785.50,399.52 C785.50,413.37 785.54,413.62 788.81,420.27 C792.54,427.84 796.52,431.42 804.33,434.21 C810.78,436.52 820.34,435.98 826.59,432.96 ZM 1227.54 434.46 C1238.57,431.60 1244.00,424.97 1244.00,414.34 C1244.00,404.05 1239.97,400.85 1218.50,394.16 C1205.97,390.26 1202.55,387.71 1202.55,382.28 C1202.55,375.13 1206.37,371.60 1215.44,370.35 C1223.36,369.27 1229.02,371.97 1235.24,379.81 C1237.41,382.54 1242.00,382.80 1242.00,380.20 C1242.00,376.48 1236.35,369.35 1231.59,367.04 C1225.67,364.18 1212.75,363.90 1206.26,366.51 C1195.51,370.82 1191.79,382.84 1198.67,391.01 C1201.96,394.93 1206.28,397.11 1217.50,400.52 C1233.45,405.35 1237.00,408.11 1237.00,415.65 C1237.00,422.73 1231.14,428.11 1221.92,429.49 C1212.99,430.83 1203.45,426.28 1200.22,419.15 C1199.30,417.14 1198.45,415.33 1198.31,415.11 C1198.17,414.90 1196.88,415.51 1195.42,416.46 C1193.20,417.91 1192.89,418.68 1193.41,421.31 C1194.91,428.80 1206.32,435.57 1218.04,435.90 C1219.99,435.95 1224.26,435.31 1227.54,434.46 ZM 664.40 431.75 C664.67,429.96 665.12,423.27 665.40,416.88 C665.96,404.22 668.77,380.31 669.95,378.15 C670.92,376.38 675.53,387.86 682.84,410.19 C688.07,426.18 688.68,427.50 690.88,427.50 C693.10,427.50 693.83,425.84 701.40,403.50 C705.88,390.30 710.03,378.65 710.64,377.62 C711.61,375.94 711.79,376.10 712.34,379.12 C714.04,388.46 716.22,408.80 716.82,420.91 L 717.50 434.50 L 720.75 434.81 L 724.00 435.13 L 724.00 426.03 C724.00,415.95 721.75,392.37 719.46,378.50 C717.09,364.16 717.48,365.00 713.09,365.00 L 709.21 365.00 L 704.50 375.75 C701.91,381.66 697.93,392.01 695.65,398.75 C693.37,405.49 691.25,411.00 690.95,411.00 C690.64,411.00 689.35,407.74 688.08,403.75 C685.51,395.70 679.28,379.62 675.28,370.70 L 672.68 364.90 L 668.61 365.20 L 664.54 365.50 L 663.34 372.50 C660.07,391.72 656.40,431.89 657.70,434.25 C657.93,434.66 659.42,435.00 661.01,435.00 C663.51,435.00 663.98,434.56 664.40,431.75 ZM 931.71 422.00 C938.40,408.55 944.93,390.21 948.03,376.21 C950.57,364.75 950.60,365.00 946.52,365.00 C942.72,365.00 943.08,364.32 940.93,375.42 C938.94,385.72 932.99,403.10 927.47,414.75 C924.54,420.94 921.85,426.00 921.50,426.00 C920.30,426.00 911.80,406.60 907.94,395.05 C905.82,388.70 903.28,379.34 902.29,374.25 L 900.50 365.01 L 896.67 365.00 C892.88,365.00 892.85,365.04 893.49,368.25 C897.17,386.77 902.90,403.78 911.55,421.81 L 917.93 435.13 L 921.71 434.81 C925.49,434.50 925.51,434.48 931.71,422.00 ZM 1049.43 433.43 C1050.29,432.56 1051.00,431.22 1051.00,430.45 C1051.00,429.31 1047.77,429.00 1033.75,428.77 L 1016.50 428.50 L 1016.22 415.25 L 1015.94 402.00 L 1030.97 402.00 L 1046.00 402.00 L 1046.00 399.00 L 1046.00 396.00 L 1031.00 396.00 L 1016.00 396.00 L 1016.00 383.50 L 1016.00 371.00 L 1033.50 371.00 L 1051.00 371.00 L 1051.00 368.00 L 1051.00 365.00 L 1030.00 365.00 L 1009.00 365.00 L 1009.00 399.33 C1009.00,418.22 1009.30,433.97 1009.67,434.33 C1010.03,434.70 1018.78,435.00 1029.10,435.00 C1044.82,435.00 1048.11,434.75 1049.43,433.43 ZM 1125.00 400.00 L 1125.00 365.00 L 1121.50 365.00 L 1118.00 365.00 L 1118.00 399.33 C1118.00,418.22 1118.30,433.97 1118.67,434.33 C1119.03,434.70 1120.61,435.00 1122.17,435.00 L 1125.00 435.00 L 1125.00 400.00 ZM 818.61 355.25 C827.08,345.33 826.82,346.00 822.22,346.00 C818.40,346.00 817.92,346.36 813.09,352.87 C810.29,356.65 808.00,360.03 808.00,360.37 C808.00,360.72 809.28,361.00 810.85,361.00 C813.08,361.00 814.76,359.76 818.61,355.25 ZM 763.39 285.70 C765.02,284.51 763.83,282.20 748.67,256.95 C739.60,241.85 730.58,227.48 728.62,225.00 L 725.05 220.50 L 731.39 218.36 C752.80,211.14 765.27,192.09 762.27,171.20 C760.24,157.02 753.39,147.32 740.94,140.99 C729.53,135.19 726.37,134.76 690.75,134.27 L 658.00 133.82 L 658.00 209.95 L 658.00 286.09 L 665.25 285.79 L 672.50 285.50 L 672.76 253.10 L 673.03 220.69 L 685.81 221.34 C692.84,221.70 700.98,222.70 703.89,223.56 C712.81,226.21 716.43,230.56 731.62,256.86 C747.39,284.17 749.76,287.00 756.79,287.00 C759.45,287.00 762.42,286.42 763.39,285.70 ZM 887.22 284.96 C891.67,283.72 894.00,280.74 894.00,276.29 L 894.00 273.02 L 856.75 272.76 L 819.50 272.50 L 819.23 243.25 L 818.97 214.00 L 850.91 214.00 L 882.84 214.00 L 883.48 211.08 C883.83,209.48 883.82,206.55 883.45,204.58 L 882.78 201.00 L 850.89 201.00 L 819.00 201.00 L 819.00 174.00 L 819.00 147.00 L 856.50 147.00 L 894.00 147.00 L 894.00 140.50 L 894.00 134.00 L 849.00 134.00 L 804.00 134.00 L 804.00 210.00 L 804.00 286.00 L 843.75 285.99 C868.02,285.99 884.95,285.59 887.22,284.96 ZM 935.42 284.75 C935.61,284.06 937.69,275.41 940.03,265.51 C942.37,255.62 944.70,246.06 945.19,244.26 L 946.09 241.00 L 983.01 241.00 L 1019.92 241.00 L 1021.33 245.75 C1022.10,248.36 1024.40,257.70 1026.43,266.50 C1028.47,275.30 1030.49,283.17 1030.93,284.00 C1031.52,285.13 1033.56,285.50 1039.11,285.50 C1048.04,285.50 1047.84,287.34 1041.47,263.41 C1029.35,217.91 1015.03,179.36 997.74,145.71 L 991.68 133.93 L 983.15 134.21 L 974.63 134.50 L 966.51 150.50 C957.45,168.36 947.89,190.36 941.96,206.98 C933.86,229.68 918.46,284.12 919.76,285.43 C920.96,286.63 935.06,286.02 935.42,284.75 ZM 1167.80 279.25 L 1168.10 273.00 L 1131.55 273.00 L 1095.00 273.00 L 1095.00 203.50 L 1095.00 134.00 L 1087.00 134.00 L 1079.00 134.00 L 1079.00 209.33 C1079.00,250.77 1079.30,284.97 1079.68,285.34 C1080.05,285.72 1099.96,285.90 1123.93,285.76 L 1167.50 285.50 L 1167.80 279.25 ZM 1226.76 209.75 L 1227.01 134.00 L 1219.01 134.00 L 1211.00 134.00 L 1211.00 209.33 C1211.00,250.77 1211.32,284.98 1211.71,285.37 C1212.09,285.76 1215.58,285.95 1219.46,285.79 L 1226.50 285.50 L 1226.76 209.75 ZM 1380.80 279.25 L 1381.10 273.00 L 1339.05 273.00 C1315.67,273.00 1297.00,272.61 1297.00,272.12 C1297.00,271.64 1315.45,243.49 1338.00,209.57 L 1379.00 147.90 L 1379.00 140.95 L 1379.00 134.00 L 1328.45 134.00 L 1277.90 134.00 L 1278.20 140.25 L 1278.50 146.50 L 1320.25 146.76 L 1361.99 147.02 L 1320.50 209.26 L 1279.00 271.50 L 1279.00 278.76 L 1279.00 286.02 L 1329.75 285.76 L 1380.50 285.50 L 1380.80 279.25 ZM 1516.80 279.25 L 1517.10 273.00 L 1475.21 273.00 C1452.18,273.00 1433.08,272.74 1432.76,272.43 C1432.45,272.12 1450.82,243.76 1473.60,209.41 L 1515.00 146.96 L 1515.00 140.48 L 1515.00 134.00 L 1464.18 134.00 L 1413.36 134.00 L 1413.61 140.25 L 1413.87 146.50 L 1455.39 147.00 L 1496.92 147.50 L 1455.48 210.00 L 1414.03 272.50 L 1414.02 278.58 C1414.01,281.93 1414.30,284.97 1414.68,285.34 C1415.05,285.71 1438.11,285.90 1465.93,285.76 L 1516.50 285.50 L 1516.80 279.25 ZM 1562.12 263.75 L 1567.54 241.50 L 1604.66 241.24 L 1641.77 240.98 L 1643.97 249.10 C1645.17,253.56 1647.64,263.58 1649.45,271.36 L 1652.74 285.50 L 1660.62 285.50 C1670.03,285.50 1669.77,288.02 1662.98,262.62 C1651.56,219.95 1639.86,187.89 1623.24,153.71 L 1613.61 133.93 L 1605.06 134.21 L 1596.50 134.50 L 1586.96 153.50 C1568.96,189.34 1557.81,220.05 1545.08,268.90 C1542.88,277.37 1541.31,284.69 1541.59,285.15 C1541.88,285.62 1545.40,286.00 1549.40,286.00 L 1556.69 286.00 L 1562.12 263.75 ZM 1736.76 216.25 L 1737.01 147.00 L 1757.57 147.00 C1782.67,147.00 1783.95,146.57 1783.98,138.25 L 1784.00 134.00 L 1728.95 134.00 L 1673.90 134.00 L 1674.20 140.25 L 1674.50 146.50 L 1697.75 146.77 L 1721.00 147.04 L 1721.00 215.85 C1721.00,253.70 1721.32,284.98 1721.71,285.37 C1722.09,285.76 1725.58,285.95 1729.46,285.79 L 1736.50 285.50 L 1736.76 216.25 ZM 149.92 331.25 C142.06,314.10 136.19,292.14 133.94,271.45 C132.78,260.86 133.20,232.94 134.61,226.75 L 135.23 224.00 L 161.12 224.00 C175.35,224.00 187.00,223.74 187.00,223.43 C187.00,223.12 174.85,209.73 160.00,193.68 L 132.99 164.50 L 233.11 164.25 C343.34,163.96 345.45,164.06 360.69,169.95 C371.79,174.23 380.17,179.46 388.71,187.40 C401.19,199.03 410.34,214.24 414.63,230.50 C417.11,239.90 417.16,262.75 414.72,271.56 C406.96,299.59 388.19,321.23 362.70,331.50 C346.41,338.07 347.74,338.00 245.40,338.00 L 153.02 338.00 L 149.92 331.25 ZM 803.80 426.96 C795.39,422.52 791.42,411.97 792.24,396.28 C793.15,378.75 799.75,371.00 813.74,371.00 C821.60,371.00 825.95,372.76 829.45,377.35 C833.36,382.47 835.00,389.02 835.00,399.48 C835.00,414.06 830.99,423.37 822.90,427.55 C818.78,429.68 808.34,429.36 803.80,426.96 ZM 673.67 207.33 C673.30,206.97 673.00,193.24 673.00,176.83 L 673.00 147.00 L 688.25 147.00 C725.22,147.00 737.24,150.61 743.61,163.63 C745.80,168.12 746.26,170.43 746.26,177.00 C746.26,193.31 737.85,202.74 719.96,206.51 C712.68,208.04 675.04,208.71 673.67,207.33 ZM 950.00 227.70 C950.00,226.66 957.42,205.79 960.92,197.00 C966.08,184.00 982.04,151.00 983.16,151.00 C984.21,151.00 994.43,171.35 1000.53,185.59 C1005.42,196.99 1014.22,220.52 1015.37,225.25 L 1016.04 228.00 L 983.02 228.00 C964.86,228.00 950.00,227.86 950.00,227.70 ZM 1572.00 227.02 C1572.00,225.47 1581.60,199.10 1585.40,190.24 C1590.87,177.45 1604.25,150.00 1605.00,150.00 C1605.94,150.00 1618.89,177.21 1624.64,191.22 C1628.73,201.22 1638.00,226.42 1638.00,227.57 C1638.00,227.80 1623.15,228.00 1605.00,228.00 C1584.01,228.00 1572.00,227.64 1572.00,227.02 Z" fill="rgb(254,254,254)"/>
</g>
</svg>