<?xml version="1.0" encoding="UTF-8" standalone="no"?>
<svg
   xmlns:dc="http://purl.org/dc/elements/1.1/"
   xmlns:cc="http://creativecommons.org/ns#"
   xmlns:rdf="http://www.w3.org/1999/02/22-rdf-syntax-ns#"
   xmlns:svg="http://www.w3.org/2000/svg"
   xmlns="http://www.w3.org/2000/svg"
   viewBox="0 0 1880.4659 8642.4424"
   height="8642.4424"
   width="1880.4659"
   xml:space="preserve"
   id="svg2"
   version="1.1"><metadata
     id="metadata8"><rdf:RDF><cc:Work
         rdf:about=""><dc:format>image/svg+xml</dc:format><dc:type
           rdf:resource="http://purl.org/dc/dcmitype/StillImage" /></cc:Work></rdf:RDF></metadata><defs
     id="defs6"><clipPath
       id="clipPath14"
       clipPathUnits="userSpaceOnUse"><path
         id="path12"
         d="M -1,-1 H 1409.3495 V 6480.8316 H -1 Z" /></clipPath></defs><g
     clip-path="url(#clipPath14)"
     transform="matrix(1.3333333,0,0,-1.3333333,1.3333333,8641.1088)"
     id="g10"><g
       transform="matrix(1.3333333,0,0,-1.3333333,1.3333333,8641.1088)"
       id="g16"><path
         id="path18"
         style="fill:#36231c;fill-opacity:1;fill-rule:nonzero;stroke:none"
         d="M 0,5399.8597 H 1408.3495 V 6479.8316 H 0 Z" /><path
         id="path20"
         style="fill:#ccaa84;fill-opacity:1;fill-rule:nonzero;stroke:none"
         d="m 827.1882,6087.9665 c 0,52.399 -42.6147,95.0137 -95.014,95.0137 h -85.8373 -55.6713 -76.771 l 51.768,-53.9669 c -3.486,-13.4359 -5.341,-27.5286 -5.341,-42.0559 0,-92.2694 74.7989,-167.0684 167.0683,-167.0684 8.9751,0 17.7818,0.7144 26.3721,2.0807 l -38.1679,39.8738 c -27.3543,2.5466 -52.1626,13.8628 -71.5881,31.1074 h 51.7002 l 75.7168,-79.2085 21.0223,-21.9617 -0.0147,-0.015 13.3602,-13.9762 v 54.2869 l -4.6488,4.9484 c 55.2787,27.2401 93.3163,84.1388 93.3163,149.9321 0,92.2697 -74.7987,167.0683 -167.0684,167.0683 -53.3676,0 -100.891,-25.0231 -131.4771,-63.9765 h 59.614 c 20.3655,14.2234 45.1381,22.5723 71.8631,22.5723 69.4026,0 125.6644,-56.2615 125.6644,-125.6641 0,-54.0587 -34.1359,-100.1401 -82.027,-117.8748 l -23.597,25.1198 c 45.1789,7.2853 79.7579,46.5534 79.7579,93.7641 z m -224.0439,17.9294 35.1088,-0.041 -36.6356,39.608 h 130.5567 c 31.7021,0 57.4966,-25.7945 57.4966,-57.4963 0,-31.7027 -25.7945,-57.4962 -57.4966,-57.4962 h -116.8509 -0.2066 c -8.5623,16.9838 -13.3909,36.1715 -13.3909,56.49 0,6.4375 0.4842,12.7621 1.4185,18.9385" /><path
         id="path22"
         style="fill:#ffffff;fill-opacity:1;fill-rule:nonzero;stroke:none"
         d="m 383.9845,5725.4397 c -1.9134,-1.0525 -3.9702,-1.5786 -6.1707,-1.5786 -1.7221,0 -3.1332,0.3348 -4.2336,1.0046 -1.1001,0.6695 -2.0809,1.77 -2.9418,3.3007 l -16.3598,28.1273 c -2.2961,4.0181 -5.0945,6.8644 -8.3951,8.5388 -3.3007,1.6741 -7.7735,2.5112 -13.4181,2.5112 h -9.7586 v -42.3346 h -10.3322 v 100.4551 h 32.576 c 11.5761,0 20.6651,-2.5592 27.2664,-7.6777 6.6014,-5.1182 9.902,-12.2218 9.902,-21.3108 0,-7.1754 -2.3919,-13.3699 -7.1753,-18.584 -4.7838,-5.2143 -11.0024,-8.4433 -18.656,-9.6868 2.7743,-2.2961 5.262,-5.2141 7.4623,-8.754 z m -39.7514,50.8017 c 8.6103,0 15.2836,1.7697 20.0192,5.3096 4.7358,3.5399 7.1036,8.5147 7.1036,14.9247 0,6.6016 -2.2244,11.6002 -6.6731,14.9966 -4.4487,3.3962 -11.0262,5.0945 -19.7322,5.0945 h -22.2438 v -40.3254 z m 124.9044,-42.6217 c 0,-3.4444 -0.5023,-5.7405 -1.5066,-6.8885 -1.0046,-1.1481 -2.99,-1.7221 -5.9556,-1.7221 h -52.6671 v 100.4551 h 59.9859 v -8.6103 h -49.6536 v -36.1638 h 42.7651 v -8.6105 h -42.7651 v -38.4599 z m 90.4629,-8.6106 c -2.5832,11.8633 -5.0227,21.574 -7.3187,29.132 h -48.7925 c -2.2963,-7.558 -4.7358,-17.2687 -7.3191,-29.132 h -10.6194 c 4.9748,20.4738 10.3805,38.6754 16.2164,54.6047 5.836,15.9293 12.7721,31.2128 20.8086,45.8504 h 10.7629 c 7.9407,-14.5421 14.8291,-29.7777 20.6651,-45.707 5.836,-15.9293 11.2414,-34.1787 16.2165,-54.7481 z m -9.7585,37.7425 c -5.836,18.5601 -13.1548,35.9725 -21.9566,52.2366 -8.8019,-16.2641 -16.1206,-33.6765 -21.9566,-52.2366 z m 100.3646,-29.1319 v -8.6106 h -59.1248 v 100.4551 h 10.3323 v -91.8445 z m 28.4675,91.8445 h 10.3326 V 5725.0091 H 678.674 Z m 112.4195,-91.8445 v -8.6106 h -68.0224 v 8.6106 l 55.5375,83.2342 h -55.8244 v 8.6103 h 67.1612 v -9.1843 l -54.8197,-82.6602 z m 89.6017,0 v -8.6106 h -68.0224 v 8.6106 l 55.5375,83.2342 h -55.8244 v 8.6103 h 67.1613 v -9.1843 l -54.8198,-82.6602 z m 90.0323,-8.6106 c -2.5832,11.8633 -5.0227,21.574 -7.3187,29.132 h -48.7925 c -2.2964,-7.558 -4.7359,-17.2687 -7.3191,-29.132 h -10.6194 c 4.9748,20.4738 10.3805,38.6754 16.2164,54.6047 5.836,15.9293 12.7721,31.2128 20.8086,45.8504 h 10.7629 c 7.9407,-14.5421 14.8291,-29.7777 20.6651,-45.707 5.836,-15.9293 11.2414,-34.1787 16.2164,-54.7481 z m -9.7585,37.7425 c -5.836,18.5601 -13.1548,35.9725 -21.9566,52.2366 -8.8019,-16.2641 -16.1207,-33.6765 -21.9566,-52.2366 z m 96.203,62.7126 c 0.3827,-1.7221 0.574,-2.8701 0.574,-3.4441 0,-1.6266 -0.4305,-2.8939 -1.2914,-3.803 -0.8612,-0.9088 -2.1526,-1.3632 -3.8747,-1.3632 h -26.4056 v -91.8448 h -10.3323 v 91.8448 h -30.9977 v 8.6103 z m 28.4675,0 h 10.3326 v -100.4551 h -10.3326 z" /><path
         id="path24"
         style="fill:#ffffff;fill-opacity:1;fill-rule:nonzero;stroke:none"
         d="m 549.8099,5626.3243 c -0.3952,13.7815 -1.6458,26.9266 -3.7525,39.4351 -1.5801,-3.5989 -3.1383,-7.604 -4.6744,-12.0147 -1.5361,-4.411 -3.994,-12.0149 -7.3735,-22.8118 h -3.4234 c -2.9846,9.4802 -5.3217,16.6232 -7.0115,21.4291 -1.6897,4.8061 -3.3905,9.2061 -5.1023,13.2001 -2.1067,-11.9821 -3.3574,-25.0614 -3.7525,-39.2378 h -4.7401 c 0.2194,8.2514 0.7571,16.371 1.6129,24.359 0.8558,7.988 1.9641,15.2297 3.3248,21.7256 h 5.2667 c 2.6334,-5.6619 4.8498,-10.8408 6.6493,-15.5373 1.7997,-4.6961 3.6209,-10.0726 5.4643,-16.1294 1.8434,6.0568 3.6649,11.4225 5.4643,16.0965 1.7995,4.6744 3.9941,9.8643 6.5835,15.5702 h 5.2668 c 1.3606,-6.4959 2.469,-13.7376 3.3247,-21.7256 0.8558,-7.988 1.3936,-16.1076 1.613,-24.359 z m 63.5102,-0.6584 c -6.1883,0 -10.9395,2.063 -14.2532,6.1886 -3.3137,4.1255 -4.9705,10.0508 -4.9705,17.7755 0,7.5489 1.6568,13.3423 4.9705,17.3803 3.3137,4.038 8.0649,6.0568 14.2532,6.0568 6.1886,0 10.9397,-2.0188 14.2534,-6.0568 3.3137,-4.038 4.9706,-9.8314 4.9706,-17.3803 0,-7.7247 -1.6569,-13.65 -4.9706,-17.7755 -3.3137,-4.1256 -8.0648,-6.1886 -14.2534,-6.1886 z m 0,4.2137 c 4.7401,0 8.3171,1.6568 10.7311,4.9705 2.414,3.3134 3.621,8.2403 3.621,14.7799 0,12.8157 -4.784,19.2237 -14.3521,19.2237 -9.5678,0 -14.3518,-6.408 -14.3518,-19.2237 0,-6.5396 1.207,-11.4665 3.6207,-14.7799 2.414,-3.3137 5.991,-4.9705 10.7311,-4.9705 z m 3.0943,55.2353 h 5.5959 l -8.6242,-9.9411 h -4.3452 z m 87.4086,-12.706 c -1.4046,-8.1199 -3.4566,-15.9432 -6.1558,-23.4703 -2.6991,-7.5271 -6.1554,-15.0653 -10.3688,-22.6143 h -4.9377 c -4.2573,7.6369 -7.7465,15.219 -10.4678,22.7461 -2.7212,7.5271 -4.7622,15.3065 -6.1225,23.3385 h 5.0034 c 2.2383,-14.2206 6.9126,-27.8481 14.0227,-40.8835 7.1102,13.0354 11.7845,26.6629 14.023,40.8835 z m 66.6045,-42.1345 c 0,-1.58 -0.2305,-2.6334 -0.6914,-3.16 -0.4609,-0.5267 -1.3714,-0.7901 -2.732,-0.7901 h -24.1614 v 46.0846 h 27.519 v -3.9501 h -22.7789 v -16.5906 h 19.6186 v -3.9501 h -19.6186 v -17.6437 z m 44.155,42.1345 h 4.7401 v -46.0846 h -4.7401 z m 66.473,-46.743 c -3.0285,0 -5.8156,0.4719 -8.3611,1.4156 -2.5455,0.9436 -4.5646,2.2274 -6.0568,3.8514 -1.4924,1.6237 -2.2385,3.4013 -2.2385,5.3325 0,0.8779 0.3183,1.5911 0.9547,2.1396 0.6364,0.5485 1.4814,0.845 2.5348,0.8887 0.7021,-3.1161 2.1943,-5.4862 4.4767,-7.1101 2.2822,-1.624 5.2229,-2.4359 8.8217,-2.4359 3.6868,0 6.6603,0.8558 8.9207,2.5677 2.2603,1.7115 3.3905,3.95 3.3905,6.715 0,1.6239 -0.4059,3.0067 -1.2178,4.1476 -0.8121,1.1412 -2.1399,2.1617 -3.9832,3.0614 -1.8434,0.8997 -4.3889,1.7666 -7.6369,2.6005 -3.7743,1.0095 -6.7371,2.0739 -8.8877,3.193 -2.1504,1.1191 -3.6975,2.3919 -4.6412,3.8185 -0.9436,1.4264 -1.4156,3.193 -1.4156,5.2997 0,3.6867 1.3606,6.5945 4.0819,8.723 2.7213,2.1286 6.4738,3.193 11.2578,3.193 4.1695,0 7.6479,-0.9765 10.4349,-2.9296 2.787,-1.9531 4.6633,-4.7072 5.6287,-8.2622 -0.5706,-0.5706 -1.4482,-0.856 -2.6333,-0.856 -1.2289,0 -2.1286,0.5927 -2.6992,1.7776 -0.9657,1.9312 -2.425,3.4673 -4.3781,4.6085 -1.9531,1.141 -4.0708,1.7116 -6.353,1.7116 -3.4673,0 -6.1007,-0.6803 -7.9002,-2.0409 -1.7994,-1.3604 -2.6994,-3.3356 -2.6994,-5.925 0,-1.3167 0.3294,-2.4251 0.9876,-3.3248 0.6585,-0.8997 1.7558,-1.7226 3.2919,-2.4687 1.5361,-0.746 3.7085,-1.5142 6.5177,-2.3042 4.6961,-1.3167 8.2403,-2.5677 10.6322,-3.7525 2.3921,-1.1852 4.0708,-2.5237 5.0363,-4.0162 0.9657,-1.4921 1.4485,-3.4452 1.4485,-5.8592 0,-2.7652 -0.7024,-5.1899 -2.1067,-7.2748 -1.4046,-2.0846 -3.4127,-3.6868 -6.0239,-4.8059 -2.6116,-1.1191 -5.6727,-1.6789 -9.184,-1.6789" /><path
         id="path26"
         style="fill:#ccaa84;fill-opacity:1;fill-rule:nonzero;stroke:none"
         d="m 0,4319.8877 h 1408.3495 v 1079.972 H 0 Z" /><path
         id="path28"
         style="fill:#ffffff;fill-opacity:1;fill-rule:nonzero;stroke:none"
         d="M 0,3239.9158 H 1408.3495 V 4319.8877 H 0 Z" /><path
         id="path30"
         style="fill:#36231c;fill-opacity:1;fill-rule:nonzero;stroke:none"
         d="m 827.1882,5007.9946 c 0,52.399 -42.6147,95.0136 -95.014,95.0136 h -85.8373 -55.6713 -76.771 l 51.768,-53.9668 c -3.486,-13.436 -5.341,-27.5287 -5.341,-42.056 0,-92.2694 74.7989,-167.0683 167.0683,-167.0683 8.9751,0 17.7818,0.7143 26.3721,2.0806 l -38.1679,39.8739 c -27.3543,2.5466 -52.1626,13.8628 -71.5881,31.1074 h 51.7002 l 75.7168,-79.2085 21.0223,-21.9617 -0.0147,-0.015 13.3602,-13.9762 v 54.2868 l -4.6488,4.9485 c 55.2787,27.2401 93.3163,84.1388 93.3163,149.932 0,92.2697 -74.7987,167.0684 -167.0684,167.0684 -53.3676,0 -100.891,-25.0231 -131.4771,-63.9765 h 59.614 c 20.3655,14.2234 45.1381,22.5722 71.8631,22.5722 69.4026,0 125.6644,-56.2614 125.6644,-125.6641 0,-54.0586 -34.1359,-100.14 -82.027,-117.8747 l -23.597,25.1198 c 45.1789,7.2853 79.7579,46.5533 79.7579,93.7641 z m -224.0439,17.9294 35.1088,-0.041 -36.6356,39.6079 h 130.5567 c 31.7021,0 57.4966,-25.7944 57.4966,-57.4962 0,-31.7027 -25.7945,-57.4963 -57.4966,-57.4963 h -116.8509 -0.2066 c -8.5623,16.9838 -13.3909,36.1715 -13.3909,56.4899 0,6.4375 0.4842,12.7622 1.4185,18.9386" /><path
         id="path32"
         style="fill:#ffffff;fill-opacity:1;fill-rule:nonzero;stroke:none"
         d="m 383.9845,4645.4678 c -1.9134,-1.0525 -3.9702,-1.5786 -6.1707,-1.5786 -1.7221,0 -3.1332,0.3347 -4.2336,1.0046 -1.1001,0.6695 -2.0809,1.7699 -2.9418,3.3006 l -16.3598,28.1274 c -2.2961,4.0181 -5.0945,6.8643 -8.3951,8.5388 -3.3007,1.6741 -7.7735,2.5112 -13.4181,2.5112 h -9.7586 v -42.3346 h -10.3322 v 100.455 h 32.576 c 11.5761,0 20.6651,-2.5591 27.2664,-7.6776 6.6014,-5.1183 9.902,-12.2219 9.902,-21.3109 0,-7.1753 -2.3919,-13.3699 -7.1753,-18.5839 -4.7838,-5.2144 -11.0024,-8.4433 -18.656,-9.6869 2.7743,-2.296 5.262,-5.214 7.4623,-8.7539 z m -39.7514,50.8016 c 8.6103,0 15.2836,1.7697 20.0192,5.3096 4.7358,3.5399 7.1036,8.5147 7.1036,14.9247 0,6.6016 -2.2244,11.6002 -6.6731,14.9967 -4.4487,3.3962 -11.0262,5.0944 -19.7322,5.0944 h -22.2438 v -40.3254 z m 124.9044,-42.6217 c 0,-3.4444 -0.5023,-5.7404 -1.5066,-6.8885 -1.0046,-1.148 -2.99,-1.722 -5.9556,-1.722 h -52.6671 v 100.455 h 59.9859 v -8.6102 h -49.6536 v -36.1639 h 42.7651 v -8.6105 h -42.7651 v -38.4599 z m 90.4629,-8.6105 c -2.5832,11.8633 -5.0227,21.5739 -7.3187,29.1319 h -48.7925 c -2.2963,-7.558 -4.7358,-17.2686 -7.3191,-29.1319 h -10.6194 c 4.9748,20.4738 10.3805,38.6753 16.2164,54.6046 5.836,15.9293 12.7721,31.2129 20.8086,45.8504 h 10.7629 c 7.9407,-14.542 14.8291,-29.7776 20.6651,-45.7069 5.836,-15.9293 11.2414,-34.1788 16.2165,-54.7481 z m -9.7585,37.7425 c -5.836,18.5601 -13.1548,35.9725 -21.9566,52.2365 -8.8019,-16.264 -16.1206,-33.6764 -21.9566,-52.2365 z m 100.3646,-29.132 v -8.6105 h -59.1248 v 100.455 h 10.3323 v -91.8445 z m 28.4675,91.8445 h 10.3326 v -100.455 H 678.674 Z m 112.4195,-91.8445 v -8.6105 h -68.0224 v 8.6105 l 55.5375,83.2343 h -55.8244 v 8.6102 h 67.1612 v -9.1842 l -54.8197,-82.6603 z m 89.6017,0 v -8.6105 h -68.0224 v 8.6105 l 55.5375,83.2343 h -55.8244 v 8.6102 h 67.1613 v -9.1842 l -54.8198,-82.6603 z m 90.0323,-8.6105 c -2.5832,11.8633 -5.0227,21.5739 -7.3187,29.1319 h -48.7925 c -2.2964,-7.558 -4.7359,-17.2686 -7.3191,-29.1319 h -10.6194 c 4.9748,20.4738 10.3805,38.6753 16.2164,54.6046 5.836,15.9293 12.7721,31.2129 20.8086,45.8504 h 10.7629 c 7.9407,-14.542 14.8291,-29.7776 20.6651,-45.7069 5.836,-15.9293 11.2414,-34.1788 16.2164,-54.7481 z m -9.7585,37.7425 c -5.836,18.5601 -13.1548,35.9725 -21.9566,52.2365 -8.8019,-16.264 -16.1207,-33.6764 -21.9566,-52.2365 z m 96.203,62.7125 c 0.3827,-1.722 0.574,-2.8701 0.574,-3.4441 0,-1.6265 -0.4305,-2.8939 -1.2914,-3.8029 -0.8612,-0.9088 -2.1526,-1.3632 -3.8747,-1.3632 h -26.4056 v -91.8448 h -10.3323 v 91.8448 h -30.9977 v 8.6102 z m 28.4675,0 h 10.3326 v -100.455 h -10.3326 z" /><path
         id="path34"
         style="fill:#ffffff;fill-opacity:1;fill-rule:nonzero;stroke:none"
         d="m 549.8099,4546.3524 c -0.3952,13.7815 -1.6458,26.9266 -3.7525,39.435 -1.5801,-3.5988 -3.1383,-7.6039 -4.6744,-12.0146 -1.5361,-4.411 -3.994,-12.0149 -7.3735,-22.8118 h -3.4234 c -2.9846,9.4802 -5.3217,16.6232 -7.0115,21.429 -1.6897,4.8062 -3.3905,9.2061 -5.1023,13.2001 -2.1067,-11.982 -3.3574,-25.0613 -3.7525,-39.2377 h -4.7401 c 0.2194,8.2514 0.7571,16.3709 1.6129,24.359 0.8558,7.988 1.9641,15.2297 3.3248,21.7255 h 5.2667 c 2.6334,-5.6619 4.8498,-10.8408 6.6493,-15.5372 1.7997,-4.6962 3.6209,-10.0726 5.4643,-16.1294 1.8434,6.0568 3.6649,11.4225 5.4643,16.0965 1.7995,4.6743 3.9941,9.8643 6.5835,15.5701 h 5.2668 c 1.3606,-6.4958 2.469,-13.7375 3.3247,-21.7255 0.8558,-7.9881 1.3936,-16.1076 1.613,-24.359 z m 63.5102,-0.6585 c -6.1883,0 -10.9395,2.0631 -14.2532,6.1886 -3.3137,4.1256 -4.9705,10.0508 -4.9705,17.7755 0,7.549 1.6568,13.3424 4.9705,17.3804 3.3137,4.0379 8.0649,6.0567 14.2532,6.0567 6.1886,0 10.9397,-2.0188 14.2534,-6.0567 3.3137,-4.038 4.9706,-9.8314 4.9706,-17.3804 0,-7.7247 -1.6569,-13.6499 -4.9706,-17.7755 -3.3137,-4.1255 -8.0648,-6.1886 -14.2534,-6.1886 z m 0,4.2137 c 4.7401,0 8.3171,1.6569 10.7311,4.9706 2.414,3.3134 3.621,8.2403 3.621,14.7798 0,12.8157 -4.784,19.2237 -14.3521,19.2237 -9.5678,0 -14.3518,-6.408 -14.3518,-19.2237 0,-6.5395 1.207,-11.4664 3.6207,-14.7798 2.414,-3.3137 5.991,-4.9706 10.7311,-4.9706 z m 3.0943,55.2354 h 5.5959 l -8.6242,-9.9411 h -4.3452 z m 87.4086,-12.7061 c -1.4046,-8.1198 -3.4566,-15.9431 -6.1558,-23.4703 -2.6991,-7.5271 -6.1554,-15.0652 -10.3688,-22.6142 h -4.9377 c -4.2573,7.6368 -7.7465,15.2189 -10.4678,22.7461 -2.7212,7.5271 -4.7622,15.3065 -6.1225,23.3384 h 5.0034 c 2.2383,-14.2205 6.9126,-27.8481 14.0227,-40.8835 7.1102,13.0354 11.7845,26.663 14.023,40.8835 z m 66.6045,-42.1344 c 0,-1.58 -0.2305,-2.6334 -0.6914,-3.1601 -0.4609,-0.5267 -1.3714,-0.79 -2.732,-0.79 h -24.1614 v 46.0845 h 27.519 v -3.95 h -22.7789 v -16.5906 h 19.6186 v -3.9501 h -19.6186 v -17.6437 z m 44.155,42.1344 h 4.7401 v -46.0845 h -4.7401 z m 66.473,-46.743 c -3.0285,0 -5.8156,0.472 -8.3611,1.4156 -2.5455,0.9437 -4.5646,2.2275 -6.0568,3.8515 -1.4924,1.6237 -2.2385,3.4013 -2.2385,5.3325 0,0.8779 0.3183,1.5911 0.9547,2.1396 0.6364,0.5485 1.4814,0.845 2.5348,0.8887 0.7021,-3.1162 2.1943,-5.4862 4.4767,-7.1102 2.2822,-1.6239 5.2229,-2.4358 8.8217,-2.4358 3.6868,0 6.6603,0.8558 8.9207,2.5676 2.2603,1.7116 3.3905,3.9501 3.3905,6.715 0,1.624 -0.4059,3.0067 -1.2178,4.1477 -0.8121,1.1412 -2.1399,2.1617 -3.9832,3.0614 -1.8434,0.8997 -4.3889,1.7665 -7.6369,2.6005 -3.7743,1.0094 -6.7371,2.0738 -8.8877,3.1929 -2.1504,1.1192 -3.6975,2.3919 -4.6412,3.8186 -0.9436,1.4264 -1.4156,3.1929 -1.4156,5.2996 0,3.6868 1.3606,6.5946 4.0819,8.7231 2.7213,2.1285 6.4738,3.1929 11.2578,3.1929 4.1695,0 7.6479,-0.9765 10.4349,-2.9296 2.787,-1.953 4.6633,-4.7072 5.6287,-8.2621 -0.5706,-0.5706 -1.4482,-0.8561 -2.6333,-0.8561 -1.2289,0 -2.1286,0.5928 -2.6992,1.7776 -0.9657,1.9313 -2.425,3.4674 -4.3781,4.6086 -1.9531,1.141 -4.0708,1.7116 -6.353,1.7116 -3.4673,0 -6.1007,-0.6803 -7.9002,-2.041 -1.7994,-1.3603 -2.6994,-3.3355 -2.6994,-5.925 0,-1.3166 0.3294,-2.425 0.9876,-3.3247 0.6585,-0.8997 1.7558,-1.7226 3.2919,-2.4687 1.5361,-0.7461 3.7085,-1.5143 6.5177,-2.3043 4.6961,-1.3167 8.2403,-2.5676 10.6322,-3.7525 2.3921,-1.1852 4.0708,-2.5237 5.0363,-4.0161 0.9657,-1.4922 1.4485,-3.4452 1.4485,-5.8592 0,-2.7652 -0.7024,-5.19 -2.1067,-7.2749 -1.4046,-2.0846 -3.4127,-3.6867 -6.0239,-4.8058 -2.6116,-1.1191 -5.6727,-1.679 -9.184,-1.679" /><path
         id="path36"
         style="fill:#ccaa84;fill-opacity:1;fill-rule:nonzero;stroke:none"
         d="m 827.1882,3928.0226 c 0,52.399 -42.6147,95.0137 -95.014,95.0137 h -85.8373 -55.6713 -76.771 l 51.768,-53.9669 c -3.486,-13.4359 -5.341,-27.5286 -5.341,-42.0559 0,-92.2694 74.7989,-167.0683 167.0683,-167.0683 8.9751,0 17.7818,0.7143 26.3721,2.0806 l -38.1679,39.8738 c -27.3543,2.5467 -52.1626,13.8629 -71.5881,31.1074 h 51.7002 l 75.7168,-79.2085 21.0223,-21.9617 -0.0147,-0.014 13.3602,-13.9763 v 54.2869 l -4.6488,4.9484 c 55.2787,27.2401 93.3163,84.1389 93.3163,149.9321 0,92.2697 -74.7987,167.0684 -167.0684,167.0684 -53.3676,0 -100.891,-25.0232 -131.4771,-63.9766 h 59.614 c 20.3655,14.2234 45.1381,22.5723 71.8631,22.5723 69.4026,0 125.6644,-56.2615 125.6644,-125.6641 0,-54.0587 -34.1359,-100.1401 -82.027,-117.8748 l -23.597,25.1198 c 45.1789,7.2853 79.7579,46.5534 79.7579,93.7641 z m -224.0439,17.9295 35.1088,-0.041 -36.6356,39.6079 h 130.5567 c 31.7021,0 57.4966,-25.7944 57.4966,-57.4963 0,-31.7026 -25.7945,-57.4962 -57.4966,-57.4962 h -116.8509 -0.2066 c -8.5623,16.9837 -13.3909,36.1715 -13.3909,56.4899 0,6.4375 0.4842,12.7622 1.4185,18.9386" /><path
         id="path38"
         style="fill:#36231c;fill-opacity:1;fill-rule:nonzero;stroke:none"
         d="m 383.9845,3565.4958 c -1.9134,-1.0525 -3.9702,-1.5786 -6.1707,-1.5786 -1.7221,0 -3.1332,0.3348 -4.2336,1.0046 -1.1001,0.6696 -2.0809,1.77 -2.9418,3.3007 l -16.3598,28.1273 c -2.2961,4.0181 -5.0945,6.8644 -8.3951,8.5388 -3.3007,1.6742 -7.7735,2.5112 -13.4181,2.5112 h -9.7586 v -42.3345 h -10.3322 v 100.455 h 32.576 c 11.5761,0 20.6651,-2.5591 27.2664,-7.6777 6.6014,-5.1182 9.902,-12.2218 9.902,-21.3108 0,-7.1754 -2.3919,-13.3699 -7.1753,-18.584 -4.7838,-5.2143 -11.0024,-8.4432 -18.656,-9.6868 2.7743,-2.2961 5.262,-5.214 7.4623,-8.7539 z m -39.7514,50.8017 c 8.6103,0 15.2836,1.7697 20.0192,5.3096 4.7358,3.5399 7.1036,8.5147 7.1036,14.9247 0,6.6016 -2.2244,11.6002 -6.6731,14.9967 -4.4487,3.3962 -11.0262,5.0944 -19.7322,5.0944 h -22.2438 v -40.3254 z m 124.9044,-42.6217 c 0,-3.4444 -0.5023,-5.7405 -1.5066,-6.8885 -1.0046,-1.148 -2.99,-1.722 -5.9556,-1.722 h -52.6671 v 100.455 h 59.9859 v -8.6103 h -49.6536 v -36.1638 h 42.7651 v -8.6105 h -42.7651 v -38.4599 z m 90.4629,-8.6105 c -2.5832,11.8632 -5.0227,21.5739 -7.3187,29.1319 h -48.7925 c -2.2963,-7.558 -4.7358,-17.2687 -7.3191,-29.1319 h -10.6194 c 4.9748,20.4738 10.3805,38.6753 16.2164,54.6046 5.836,15.9293 12.7721,31.2128 20.8086,45.8504 h 10.7629 c 7.9407,-14.542 14.8291,-29.7777 20.6651,-45.707 5.836,-15.9293 11.2414,-34.1787 16.2165,-54.748 z m -9.7585,37.7424 c -5.836,18.5601 -13.1548,35.9725 -21.9566,52.2366 -8.8019,-16.2641 -16.1206,-33.6765 -21.9566,-52.2366 z m 100.3646,-29.1319 v -8.6105 h -59.1248 v 100.455 h 10.3323 v -91.8445 z m 28.4675,91.8445 h 10.3326 v -100.455 H 678.674 Z m 112.4195,-91.8445 v -8.6105 h -68.0224 v 8.6105 l 55.5375,83.2342 h -55.8244 v 8.6103 h 67.1612 v -9.1843 l -54.8197,-82.6602 z m 89.6017,0 v -8.6105 h -68.0224 v 8.6105 l 55.5375,83.2342 h -55.8244 v 8.6103 h 67.1613 v -9.1843 l -54.8198,-82.6602 z m 90.0323,-8.6105 c -2.5832,11.8632 -5.0227,21.5739 -7.3187,29.1319 h -48.7925 c -2.2964,-7.558 -4.7359,-17.2687 -7.3191,-29.1319 h -10.6194 c 4.9748,20.4738 10.3805,38.6753 16.2164,54.6046 5.836,15.9293 12.7721,31.2128 20.8086,45.8504 h 10.7629 c 7.9407,-14.542 14.8291,-29.7777 20.6651,-45.707 5.836,-15.9293 11.2414,-34.1787 16.2164,-54.748 z m -9.7585,37.7424 c -5.836,18.5601 -13.1548,35.9725 -21.9566,52.2366 -8.8019,-16.2641 -16.1207,-33.6765 -21.9566,-52.2366 z m 96.203,62.7126 c 0.3827,-1.7221 0.574,-2.8701 0.574,-3.4441 0,-1.6265 -0.4305,-2.8939 -1.2914,-3.803 -0.8612,-0.9088 -2.1526,-1.3632 -3.8747,-1.3632 h -26.4056 v -91.8447 h -10.3323 v 91.8447 h -30.9977 v 8.6103 z m 28.4675,0 h 10.3326 v -100.455 h -10.3326 z" /><path
         id="path40"
         style="fill:#36231c;fill-opacity:1;fill-rule:nonzero;stroke:none"
         d="m 549.8099,3466.3805 c -0.3952,13.7815 -1.6458,26.9266 -3.7525,39.435 -1.5801,-3.5989 -3.1383,-7.6039 -4.6744,-12.0146 -1.5361,-4.411 -3.994,-12.015 -7.3735,-22.8119 h -3.4234 c -2.9846,9.4802 -5.3217,16.6233 -7.0115,21.4291 -1.6897,4.8062 -3.3905,9.2061 -5.1023,13.2001 -2.1067,-11.982 -3.3574,-25.0614 -3.7525,-39.2377 h -4.7401 c 0.2194,8.2513 0.7571,16.3709 1.6129,24.3589 0.8558,7.9881 1.9641,15.2297 3.3248,21.7256 h 5.2667 c 2.6334,-5.6619 4.8498,-10.8408 6.6493,-15.5373 1.7997,-4.6961 3.6209,-10.0726 5.4643,-16.1294 1.8434,6.0568 3.6649,11.4225 5.4643,16.0966 1.7995,4.6743 3.9941,9.8642 6.5835,15.5701 h 5.2668 c 1.3606,-6.4959 2.469,-13.7375 3.3247,-21.7256 0.8558,-7.988 1.3936,-16.1076 1.613,-24.3589 z m 63.5102,-0.6585 c -6.1883,0 -10.9395,2.063 -14.2532,6.1886 -3.3137,4.1255 -4.9705,10.0508 -4.9705,17.7755 0,7.5489 1.6568,13.3424 4.9705,17.3803 3.3137,4.038 8.0649,6.0568 14.2532,6.0568 6.1886,0 10.9397,-2.0188 14.2534,-6.0568 3.3137,-4.0379 4.9706,-9.8314 4.9706,-17.3803 0,-7.7247 -1.6569,-13.65 -4.9706,-17.7755 -3.3137,-4.1256 -8.0648,-6.1886 -14.2534,-6.1886 z m 0,4.2137 c 4.7401,0 8.3171,1.6568 10.7311,4.9705 2.414,3.3135 3.621,8.2404 3.621,14.7799 0,12.8157 -4.784,19.2237 -14.3521,19.2237 -9.5678,0 -14.3518,-6.408 -14.3518,-19.2237 0,-6.5395 1.207,-11.4664 3.6207,-14.7799 2.414,-3.3137 5.991,-4.9705 10.7311,-4.9705 z m 3.0943,55.2353 h 5.5959 l -8.6242,-9.9411 h -4.3452 z m 87.4086,-12.706 c -1.4046,-8.1198 -3.4566,-15.9432 -6.1558,-23.4703 -2.6991,-7.5271 -6.1554,-15.0653 -10.3688,-22.6142 h -4.9377 c -4.2573,7.6368 -7.7465,15.2189 -10.4678,22.746 -2.7212,7.5271 -4.7622,15.3065 -6.1225,23.3385 h 5.0034 c 2.2383,-14.2206 6.9126,-27.8481 14.0227,-40.8835 7.1102,13.0354 11.7845,26.6629 14.023,40.8835 z m 66.6045,-42.1344 c 0,-1.5801 -0.2305,-2.6334 -0.6914,-3.1601 -0.4609,-0.5267 -1.3714,-0.79 -2.732,-0.79 h -24.1614 v 46.0845 h 27.519 v -3.9501 h -22.7789 v -16.5906 h 19.6186 v -3.9501 h -19.6186 v -17.6436 z m 44.155,42.1344 h 4.7401 v -46.0845 h -4.7401 z m 66.473,-46.743 c -3.0285,0 -5.8156,0.472 -8.3611,1.4156 -2.5455,0.9437 -4.5646,2.2275 -6.0568,3.8514 -1.4924,1.6237 -2.2385,3.4013 -2.2385,5.3326 0,0.8779 0.3183,1.5911 0.9547,2.1396 0.6364,0.5485 1.4814,0.845 2.5348,0.8886 0.7021,-3.1161 2.1943,-5.4861 4.4767,-7.1101 2.2822,-1.624 5.2229,-2.4358 8.8217,-2.4358 3.6868,0 6.6603,0.8558 8.9207,2.5676 2.2603,1.7116 3.3905,3.9501 3.3905,6.715 0,1.624 -0.4059,3.0067 -1.2178,4.1476 -0.8121,1.1413 -2.1399,2.1617 -3.9832,3.0615 -1.8434,0.8997 -4.3889,1.7665 -7.6369,2.6005 -3.7743,1.0094 -6.7371,2.0738 -8.8877,3.1929 -2.1504,1.1191 -3.6975,2.3919 -4.6412,3.8186 -0.9436,1.4264 -1.4156,3.1929 -1.4156,5.2996 0,3.6868 1.3606,6.5945 4.0819,8.7231 2.7213,2.1285 6.4738,3.1929 11.2578,3.1929 4.1695,0 7.6479,-0.9765 10.4349,-2.9296 2.787,-1.9531 4.6633,-4.7072 5.6287,-8.2621 -0.5706,-0.5706 -1.4482,-0.8561 -2.6333,-0.8561 -1.2289,0 -2.1286,0.5927 -2.6992,1.7776 -0.9657,1.9313 -2.425,3.4673 -4.3781,4.6086 -1.9531,1.1409 -4.0708,1.7115 -6.353,1.7115 -3.4673,0 -6.1007,-0.6803 -7.9002,-2.0409 -1.7994,-1.3604 -2.6994,-3.3355 -2.6994,-5.925 0,-1.3167 0.3294,-2.425 0.9876,-3.3247 0.6585,-0.8998 1.7558,-1.7227 3.2919,-2.4687 1.5361,-0.7461 3.7085,-1.5143 6.5177,-2.3043 4.6961,-1.3167 8.2403,-2.5676 10.6322,-3.7525 2.3921,-1.1852 4.0708,-2.5237 5.0363,-4.0161 0.9657,-1.4922 1.4485,-3.4453 1.4485,-5.8593 0,-2.7652 -0.7024,-5.1899 -2.1067,-7.2748 -1.4046,-2.0846 -3.4127,-3.6867 -6.0239,-4.8059 -2.6116,-1.1191 -5.6727,-1.6789 -9.184,-1.6789" /><path
         id="path42"
         style="fill:#36231c;fill-opacity:1;fill-rule:nonzero;stroke:none"
         d="M 0,2159.9439 H 1408.3495 V 3239.9158 H 0 Z" /><path
         id="path44"
         style="fill:#ccaa84;fill-opacity:1;fill-rule:nonzero;stroke:none"
         d="m 0,1079.9719 h 1408.3495 v 1079.972 H 0 Z" /><path
         id="path46"
         style="fill:#ffffff;fill-opacity:1;fill-rule:nonzero;stroke:none"
         d="M 0,0 H 1408.3495 V 1079.9719 H 0 Z" /><path
         id="path48"
         style="fill:#ccaa84;fill-opacity:1;fill-rule:nonzero;stroke:none"
         d="m 449.7608,558.9649 c 0,45.0834 -36.6651,81.7484 -81.7487,81.7484 h -73.8533 -47.8987 -66.0532 l 44.5408,-46.4321 c -2.9993,-11.5603 -4.5955,-23.6857 -4.5955,-36.1845 0,-79.3877 64.3561,-143.7435 143.7435,-143.7435 7.7218,0 15.2991,0.6145 22.6902,1.7901 l -32.8391,34.3068 c -23.5352,2.1912 -44.8801,11.9274 -61.5935,26.7645 h 44.4821 l 65.1459,-68.15 18.0873,-18.8955 -0.0128,-0.0124 11.4951,-12.0249 v 46.7076 l -4,4.2576 c 47.5614,23.4372 80.2882,72.3921 80.2882,128.9997 0,79.3873 -64.3558,143.7434 -143.7434,143.7434 -45.9168,0 -86.8054,-21.5297 -113.1211,-55.0448 h 51.2912 c 17.5221,12.2377 38.8358,19.4213 61.8299,19.4213 59.7129,0 108.1199,-48.407 108.1199,-108.1199 0,-46.5115 -29.3701,-86.1594 -70.5748,-101.418 l -20.3028,21.6128 c 38.8714,6.2679 68.6228,40.0538 68.6228,80.6734 z m -192.7645,15.4262 30.2072,-0.0352 -31.5207,34.0778 h 112.3293 c 27.2758,0 49.4691,-22.193 49.4691,-49.4688 0,-27.2766 -22.1933,-49.4691 -49.4691,-49.4691 H 267.4752 l -0.1778,-0.002 c -7.3669,14.6126 -11.5214,31.1213 -11.5214,48.6032 0,5.5386 0.4167,10.9802 1.2203,16.2944" /><text
         id="text52"
         style="font-variant:normal;font-weight:normal;font-size:123.47200012px;font-family:Krub;-inkscape-font-specification:Krub-Regular;writing-mode:lr-tb;fill:#36231c;fill-opacity:1;fill-rule:nonzero;stroke:none"
         transform="matrix(1,0,0,-1,543.327,539.5073)"><tspan
           id="tspan50"
           y="0"
           x="0 83.142097 157.7644 239.7951 308.61459 357.30789 434.40009 511.492 587.34943 658.76178">REALIZZATI</tspan></text>
<text
         id="text56"
         style="font-variant:normal;font-weight:normal;font-size:56.64400101px;font-family:Krub;-inkscape-font-specification:Krub-Regular;writing-mode:lr-tb;fill:#36231c;fill-opacity:1;fill-rule:nonzero;stroke:none"
         transform="matrix(1,0,0,-1,549.6406,454.6003)"><tspan
           id="tspan54"
           y="0"
           x="0 73.959 136.64549 199.78551 258.5072 305.3338">MÓVEIS</tspan></text>
<g
         id="g58"><path
           id="path60"
           style="fill:#36231c;fill-opacity:1;fill-rule:nonzero;stroke:none"
           d="m 449.7608,1638.9369 c 0,45.0833 -36.6651,81.7483 -81.7487,81.7483 h -73.8533 -47.8987 -66.0532 l 44.5408,-46.4321 c -2.9993,-11.5602 -4.5955,-23.6857 -4.5955,-36.1845 0,-79.3877 64.3561,-143.7435 143.7435,-143.7435 7.7218,0 15.2991,0.6146 22.6902,1.7901 l -32.8391,34.3069 c -23.5352,2.1912 -44.8801,11.9273 -61.5935,26.7644 h 44.4821 l 65.1459,-68.15 18.0873,-18.8954 -0.0128,-0.013 11.4951,-12.0249 v 46.7076 l -4,4.2577 c 47.5614,23.4371 80.2882,72.392 80.2882,128.9996 0,79.3874 -64.3558,143.7435 -143.7434,143.7435 -45.9168,0 -86.8054,-21.5297 -113.1211,-55.0449 h 51.2912 c 17.5221,12.2377 38.8358,19.4213 61.8299,19.4213 59.7129,0 108.1199,-48.407 108.1199,-108.1199 0,-46.5114 -29.3701,-86.1593 -70.5748,-101.418 l -20.3028,21.6128 c 38.8714,6.268 68.6228,40.0538 68.6228,80.6735 z m -192.7645,15.4261 30.2072,-0.035 -31.5207,34.0779 h 112.3293 c 27.2758,0 49.4691,-22.193 49.4691,-49.4688 0,-27.2767 -22.1933,-49.4692 -49.4691,-49.4692 h -100.5369 -0.1778 c -7.3669,14.6126 -11.5214,31.1213 -11.5214,48.6031 0,5.5386 0.4167,10.9803 1.2203,16.2944" /><text
           id="text64"
           style="font-variant:normal;font-weight:normal;font-size:123.47200012px;font-family:Krub;-inkscape-font-specification:Krub-Regular;writing-mode:lr-tb;fill:#ffffff;fill-opacity:1;fill-rule:nonzero;stroke:none"
           transform="matrix(1,0,0,-1,543.327,1619.4793)"><tspan
             id="tspan62"
             y="0"
             x="0 83.142097 157.7644 239.7951 308.61459 357.30789 434.40009 511.492 587.34943 658.76178">REALIZZATI</tspan></text>
<text
           id="text68"
           style="font-variant:normal;font-weight:normal;font-size:56.64400101px;font-family:Krub;-inkscape-font-specification:Krub-Regular;writing-mode:lr-tb;fill:#ffffff;fill-opacity:1;fill-rule:nonzero;stroke:none"
           transform="matrix(1,0,0,-1,549.6406,1534.5723)"><tspan
             id="tspan66"
             y="0"
             x="0 73.959 136.64549 199.78551 258.5072 305.3338">MÓVEIS</tspan></text>
</g><path
         id="path70"
         style="fill:#ccaa84;fill-opacity:1;fill-rule:nonzero;stroke:none"
         d="m 449.7608,2718.9088 c 0,45.0833 -36.6651,81.7483 -81.7487,81.7483 h -73.8533 -47.8987 -66.0532 l 44.5408,-46.432 c -2.9993,-11.5603 -4.5955,-23.6858 -4.5955,-36.1846 0,-79.3876 64.3561,-143.7434 143.7435,-143.7434 7.7218,0 15.2991,0.6145 22.6902,1.79 l -32.8391,34.3069 c -23.5352,2.1912 -44.8801,11.9274 -61.5935,26.7645 h 44.4821 l 65.1459,-68.15 18.0873,-18.8955 -0.0128,-0.012 11.4951,-12.0248 v 46.7076 l -4,4.2576 c 47.5614,23.4371 80.2882,72.392 80.2882,128.9996 0,79.3874 -64.3558,143.7435 -143.7434,143.7435 -45.9168,0 -86.8054,-21.5297 -113.1211,-55.0449 h 51.2912 c 17.5221,12.2378 38.8358,19.4213 61.8299,19.4213 59.7129,0 108.1199,-48.4069 108.1199,-108.1199 0,-46.5114 -29.3701,-86.1593 -70.5748,-101.4179 l -20.3028,21.6127 c 38.8714,6.268 68.6228,40.0539 68.6228,80.6735 z m -192.7645,15.4261 30.2072,-0.035 -31.5207,34.0778 h 112.3293 c 27.2758,0 49.4691,-22.193 49.4691,-49.4688 0,-27.2767 -22.1933,-49.4691 -49.4691,-49.4691 h -100.5369 -0.1778 c -7.3669,14.6126 -11.5214,31.1213 -11.5214,48.6031 0,5.5386 0.4167,10.9803 1.2203,16.2944" /><text
         id="text74"
         style="font-variant:normal;font-weight:normal;font-size:123.47200012px;font-family:Krub;-inkscape-font-specification:Krub-Regular;writing-mode:lr-tb;fill:#ffffff;fill-opacity:1;fill-rule:nonzero;stroke:none"
         transform="matrix(1,0,0,-1,543.327,2699.4512)"><tspan
           id="tspan72"
           y="0"
           x="0 83.142097 157.7644 239.7951 308.61459 357.30789 434.40009 511.492 587.34943 658.76178">REALIZZATI</tspan></text>
<text
         id="text78"
         style="font-variant:normal;font-weight:normal;font-size:56.64400101px;font-family:Krub;-inkscape-font-specification:Krub-Regular;writing-mode:lr-tb;fill:#ffffff;fill-opacity:1;fill-rule:nonzero;stroke:none"
         transform="matrix(1,0,0,-1,549.6406,2614.5442)"><tspan
           id="tspan76"
           y="0"
           x="0 73.959 136.64549 199.78551 258.5072 305.3338">MÓVEIS</tspan></text>
</g></g></svg>