<svg xmlns="http://www.w3.org/2000/svg" width="1024" height="1024" viewBox="0 0 1024 1024">
<g>
<path d="M 676.00 770.20 C676.00,794.92 675.62,813.00 675.10,813.00 C674.60,813.00 634.89,771.85 586.85,721.55 L 499.50 630.09 L 416.50 630.08 L 420.50 633.53 C445.25,654.90 482.70,672.13 516.00,677.47 C521.78,678.39 527.70,679.46 529.17,679.83 C530.91,680.27 542.22,691.39 561.89,712.00 C589.46,740.90 591.74,743.55 589.52,744.15 C577.19,747.46 532.51,747.66 512.00,744.50 C448.18,734.65 390.99,703.96 349.38,657.22 C314.03,617.52 292.05,570.69 283.81,517.50 C282.05,506.11 281.63,498.93 281.58,479.00 C281.51,453.22 282.32,444.35 286.58,424.00 C287.91,417.67 288.99,411.93 288.99,411.24 C289.00,410.54 270.54,390.74 247.97,367.24 L 206.94 324.50 L 384.22 324.20 C572.03,323.89 575.03,323.95 594.15,328.59 C644.06,340.67 685.61,378.91 702.00,427.84 C717.90,475.30 709.59,527.96 679.95,567.57 C669.24,581.89 653.68,596.35 638.40,606.19 C626.02,614.16 603.79,623.18 589.25,626.13 C585.81,626.83 583.00,627.66 583.00,627.97 C583.00,628.29 591.33,637.40 601.52,648.23 C615.49,663.09 620.46,667.78 621.77,667.32 C627.13,665.46 648.67,654.63 655.72,650.25 C688.45,629.90 714.34,601.14 731.11,566.50 C756.15,514.77 758.36,456.53 737.31,403.50 C710.76,336.64 650.31,288.97 578.87,278.55 C564.81,276.50 535.61,276.51 520.85,278.56 C493.02,282.45 464.56,292.97 440.90,308.13 L 433.30 313.00 L 386.15 313.00 C360.22,313.00 339.00,312.63 339.00,312.18 C339.00,310.09 356.13,291.44 368.42,280.16 C403.62,247.84 447.63,225.28 494.61,215.48 C529.91,208.13 571.81,208.33 607.50,216.04 C695.33,235.01 769.12,298.81 800.97,383.32 C813.56,416.73 818.72,448.64 817.72,486.81 C816.67,526.61 808.34,560.26 790.57,596.50 C766.19,646.21 725.80,688.53 678.25,714.18 C673.16,716.93 669.00,719.50 669.00,719.89 C669.00,720.28 670.58,722.13 672.50,724.00 L 676.00 727.39 ZM 365.42 561.28 L 368.97 569.05 L 471.74 568.78 L 574.50 568.50 L 583.00 565.65 C599.15,560.22 609.66,554.06 621.00,543.36 C645.99,519.79 655.86,482.73 645.83,450.15 C637.54,423.25 616.98,400.69 591.95,391.04 C589.49,390.09 587.51,389.29 585.49,388.62 C574.81,385.06 562.94,385.05 471.38,384.97 C467.71,384.97 463.91,384.97 459.98,384.96 C399.38,384.91 349.60,385.07 349.35,385.31 C349.11,385.56 361.75,399.65 377.45,416.63 L 405.99 447.50 L 378.10 447.77 C352.72,448.01 350.14,448.19 349.48,449.77 C348.11,453.09 347.70,490.26 348.93,501.03 C351.25,521.52 357.22,543.32 365.42,561.28 Z" fill="rgb(54,35,27)"/>
<path d="M 676.00 770.20 L 676.00 727.39 L 672.50 724.00 C670.58,722.13 669.00,720.28 669.00,719.89 C669.00,719.50 673.16,716.93 678.25,714.18 C725.80,688.53 766.19,646.21 790.57,596.50 C808.34,560.26 816.67,526.61 817.72,486.81 C818.72,448.64 813.56,416.73 800.97,383.32 C769.12,298.81 695.33,235.01 607.50,216.04 C571.81,208.33 529.91,208.13 494.61,215.48 C447.63,225.28 403.62,247.84 368.42,280.16 C356.13,291.44 339.00,310.09 339.00,312.18 C339.00,312.63 360.22,313.00 386.15,313.00 L 433.30 313.00 L 440.90 308.13 C464.56,292.97 493.02,282.45 520.85,278.56 C535.61,276.51 564.81,276.50 578.87,278.55 C650.31,288.97 710.76,336.64 737.31,403.50 C758.36,456.53 756.15,514.77 731.11,566.50 C714.34,601.14 688.45,629.90 655.72,650.25 C648.67,654.63 627.13,665.46 621.77,667.32 C620.46,667.78 615.49,663.09 601.52,648.23 C591.33,637.40 583.00,628.29 583.00,627.97 C583.00,627.66 585.81,626.83 589.25,626.13 C603.79,623.18 626.02,614.16 638.40,606.19 C653.68,596.35 669.24,581.89 679.95,567.57 C709.59,527.96 717.90,475.30 702.00,427.84 C685.61,378.91 644.06,340.67 594.15,328.59 C575.03,323.95 572.03,323.89 384.22,324.20 L 206.94 324.50 L 247.97 367.24 C270.54,390.74 289.00,410.54 288.99,411.24 C288.99,411.93 287.91,417.67 286.58,424.00 C282.32,444.35 281.51,453.22 281.58,479.00 C281.63,498.93 282.05,506.11 283.81,517.50 C292.05,570.69 314.03,617.52 349.38,657.22 C390.99,703.96 448.18,734.65 512.00,744.50 C532.51,747.66 577.19,747.46 589.52,744.15 C591.74,743.55 589.46,740.90 561.89,712.00 C542.22,691.39 530.91,680.27 529.17,679.83 C527.70,679.46 521.78,678.39 516.00,677.47 C482.70,672.13 445.25,654.90 420.50,633.53 L 416.50 630.08 L 458.00 630.08 L 499.50 630.09 L 586.85 721.55 C634.89,771.85 674.60,813.00 675.10,813.00 C675.62,813.00 676.00,794.92 676.00,770.20 ZM 365.42 561.28 C357.22,543.32 351.25,521.52 348.93,501.03 C347.70,490.26 348.11,453.09 349.48,449.77 C350.14,448.19 352.72,448.01 378.10,447.77 L 405.99 447.50 L 377.45 416.63 C361.75,399.65 349.11,385.56 349.35,385.31 C349.60,385.07 399.38,384.91 459.98,384.96 C580.52,385.07 575.92,384.86 591.95,391.04 C616.98,400.69 637.54,423.25 645.83,450.15 C655.86,482.73 645.99,519.79 621.00,543.36 C609.66,554.06 599.15,560.22 583.00,565.65 L 574.50 568.50 L 471.74 568.78 L 368.97 569.05 L 365.42 561.28 Z" fill="rgb(203,170,132)"/>
</g>
</svg>