<svg xmlns="http://www.w3.org/2000/svg" width="1024" height="1024" viewBox="0 0 1024 1024">
<g>
<path d="M 586.53 721.00 C634.90,771.60 674.82,813.00 675.24,813.00 C675.66,813.00 676.00,793.84 676.00,770.42 L 676.00 727.84 L 672.36 723.39 C670.36,720.95 668.89,718.81 669.11,718.64 C669.32,718.47 673.10,716.43 677.50,714.09 C687.91,708.58 708.25,694.97 719.00,686.33 C744.01,666.24 768.74,636.56 784.92,607.21 C818.74,545.89 826.99,471.72 807.53,404.10 C779.14,305.46 697.04,231.50 596.57,214.05 C554.50,206.75 508.33,209.70 469.00,222.21 C429.21,234.87 392.98,256.36 364.12,284.41 C353.03,295.20 339.00,310.67 339.00,312.12 C339.00,312.61 359.69,313.00 386.15,313.00 L 433.30 313.00 L 441.27 307.89 C452.33,300.79 473.45,290.79 486.14,286.65 C497.95,282.78 512.13,279.64 524.97,278.05 C537.15,276.54 565.73,276.78 577.80,278.50 C621.33,284.69 657.98,302.59 689.36,332.98 C708.11,351.15 720.36,368.10 731.40,391.13 C740.96,411.09 746.29,428.54 749.45,450.13 C751.48,464.06 751.49,491.90 749.45,505.87 C739.58,573.74 698.17,630.34 636.65,660.09 C629.81,663.39 623.04,666.19 621.59,666.30 C619.38,666.47 616.10,663.46 600.60,647.00 L 582.23 627.50 L 590.87 625.44 C636.64,614.50 673.21,585.66 693.48,544.50 C700.64,529.96 703.99,520.47 707.21,505.60 C710.35,491.09 710.33,462.07 707.18,447.35 C698.33,406.06 675.64,372.25 641.48,349.44 C624.70,338.24 608.32,331.39 587.10,326.72 C577.55,324.61 576.61,324.60 392.05,324.27 L 206.60 323.95 L 214.58 332.22 C260.01,379.33 288.56,409.46 288.81,410.57 C288.99,411.30 288.23,416.09 287.13,421.20 C276.56,470.26 280.26,523.61 297.50,570.64 C301.96,582.83 315.20,609.93 321.60,620.00 C362.80,684.81 427.78,728.76 502.62,742.43 C518.73,745.38 529.99,746.36 548.50,746.43 C567.53,746.50 591.00,744.54 591.00,742.88 C591.00,742.39 577.48,727.88 560.95,710.63 L 530.89 679.26 L 525.20 678.60 C498.26,675.44 465.57,663.69 441.50,648.50 C432.19,642.63 417.11,631.07 417.04,629.75 C417.02,629.34 435.35,629.00 457.79,629.00 L 498.58 629.00 ZM 570.86 567.95 C566.80,568.61 529.20,568.99 466.90,568.99 L 369.29 569.00 L 365.25 560.25 C357.05,542.49 351.14,520.31 348.90,498.91 C347.73,487.73 348.17,454.89 349.56,450.27 L 350.23 448.03 L 378.18 447.77 L 406.13 447.50 L 377.03 416.00 L 347.93 384.50 L 450.72 384.22 C516.31,384.03 557.76,384.31 565.26,384.97 C598.68,387.94 625.37,406.29 640.01,436.36 C646.73,450.17 649.28,461.19 649.28,476.50 C649.28,491.84 646.73,502.87 640.03,516.50 C631.38,534.13 619.69,546.79 603.00,556.63 C594.87,561.42 580.99,566.31 570.86,567.95 ZM 255.75 0.25 C214.92,0.29 195.60,0.33 195.60,0.36 C195.60,0.45 311.78,0.50 512.00,0.50 C712.22,0.50 828.40,0.45 828.40,0.36 C828.40,0.33 809.08,0.29 768.25,0.25 C627.31,0.11 396.69,0.11 255.75,0.25 Z" fill="rgb(53,35,28)"/>
<path d="M 255.75 0.25 C396.69,0.11 627.31,0.11 768.25,0.25 C809.08,0.29 828.40,0.33 828.40,0.36 C828.40,0.45 712.22,0.50 512.00,0.50 C311.78,0.50 195.60,0.45 195.60,0.36 C195.60,0.33 214.92,0.29 255.75,0.25 Z" fill="rgb(92,69,52)"/>
<path d="M 586.53 721.00 L 498.58 629.00 L 457.79 629.00 C435.35,629.00 417.02,629.34 417.04,629.75 C417.11,631.07 432.19,642.63 441.50,648.50 C465.57,663.69 498.26,675.44 525.20,678.60 L 530.89 679.26 L 560.95 710.63 C577.48,727.88 591.00,742.39 591.00,742.88 C591.00,744.54 567.53,746.50 548.50,746.43 C529.99,746.36 518.73,745.38 502.62,742.43 C427.78,728.76 362.80,684.81 321.60,620.00 C315.20,609.93 301.96,582.83 297.50,570.64 C280.26,523.61 276.56,470.26 287.13,421.20 C288.23,416.09 288.99,411.30 288.81,410.57 C288.56,409.46 260.01,379.33 214.58,332.22 L 206.60 323.95 L 392.05 324.27 C576.61,324.60 577.55,324.61 587.10,326.72 C608.32,331.39 624.70,338.24 641.48,349.44 C675.64,372.25 698.33,406.06 707.18,447.35 C710.33,462.07 710.35,491.09 707.21,505.60 C703.99,520.47 700.64,529.96 693.48,544.50 C673.21,585.66 636.64,614.50 590.87,625.44 L 582.23 627.50 L 600.60 647.00 C616.10,663.46 619.38,666.47 621.59,666.30 C623.04,666.19 629.81,663.39 636.65,660.09 C698.17,630.34 739.58,573.74 749.45,505.87 C751.49,491.90 751.48,464.06 749.45,450.13 C746.29,428.54 740.96,411.09 731.40,391.13 C720.36,368.10 708.11,351.15 689.36,332.98 C657.98,302.59 621.33,284.69 577.80,278.50 C565.73,276.78 537.15,276.54 524.97,278.05 C512.13,279.64 497.95,282.78 486.14,286.65 C473.45,290.79 452.33,300.79 441.27,307.89 L 433.30 313.00 L 386.15 313.00 C359.69,313.00 339.00,312.61 339.00,312.12 C339.00,310.67 353.03,295.20 364.12,284.41 C392.98,256.36 429.21,234.87 469.00,222.21 C508.33,209.70 554.50,206.75 596.57,214.05 C697.04,231.50 779.14,305.46 807.53,404.10 C826.99,471.72 818.74,545.89 784.92,607.21 C768.74,636.56 744.01,666.24 719.00,686.33 C708.25,694.97 687.91,708.58 677.50,714.09 C673.10,716.43 669.32,718.47 669.11,718.64 C668.89,718.81 670.36,720.95 672.36,723.39 L 676.00 727.84 L 676.00 770.42 C676.00,793.84 675.66,813.00 675.24,813.00 C674.82,813.00 634.90,771.60 586.53,721.00 ZM 570.86 567.95 C580.99,566.31 594.87,561.42 603.00,556.63 C619.69,546.79 631.38,534.13 640.03,516.50 C646.73,502.87 649.28,491.84 649.28,476.50 C649.28,461.19 646.73,450.17 640.01,436.36 C625.37,406.29 598.68,387.94 565.26,384.97 C557.76,384.31 516.31,384.03 450.72,384.22 L 347.93 384.50 L 377.03 416.00 L 406.13 447.50 L 378.18 447.77 L 350.23 448.03 L 349.56 450.27 C348.17,454.89 347.73,487.73 348.90,498.91 C351.14,520.31 357.05,542.49 365.25,560.25 L 369.29 569.00 L 466.90 568.99 C529.20,568.99 566.80,568.61 570.86,567.95 Z" fill="rgb(203,169,131)"/>
</g>
</svg>